<svg id="Background" xmlns="http://www.w3.org/2000/svg" viewBox="0 0 4800 2700"><defs><style>.cls-1{fill:#a7def1;}.cls-2{fill:#1f398a;}.cls-3{fill:#152e6d;}.cls-4{isolation:isolate;}.cls-5,.cls-9{fill:#1a98ed;}.cls-6{fill:#f6c01c;}.cls-7{fill:#f5920d;}.cls-8{fill:#1651d6;}.cls-9{font-size:320.3px;font-family:OpenSans-Bold, Open Sans;font-weight:700;}.cls-10{fill:#f6a983;}.cls-11{fill:#ffbe98;}.cls-12{fill:#703e03;}</style></defs><rect class="cls-1" width="4800" height="2700"/><polygon class="cls-2" points="2784.1 1588.48 0 0 0 2700 1537.29 2700 1907.69 2485.62 2064.1 2017.42 2013.72 1907.17 2784.1 1588.48"/><polygon class="cls-3" points="1319.78 2144.34 1935.78 1787.22 1935.78 1016.72 1303.41 985 1319.78 2144.34"/><polygon class="cls-2" points="2429.79 1987.97 1763.53 1600.78 2306.35 1287.39 2972.61 1674.58 2429.79 1987.97"/><g class="cls-4"><polygon class="cls-2" points="2718.47 1593.42 2423.89 1422.23 2537.17 1356.45 2825.28 1531.75 2718.47 1593.42"/><polygon class="cls-2" points="2657.99 1628.34 2363.41 1457.15 2363.21 1385.38 2657.79 1556.58 2657.99 1628.34"/><polygon class="cls-2" points="2657.79 1556.58 2363.21 1385.38 2423.68 1350.47 2718.26 1521.66 2657.79 1556.58"/><polygon class="cls-2" points="2551.17 1690.01 2256.59 1518.82 2363.41 1457.15 2657.99 1628.34 2551.17 1690.01"/><polygon class="cls-2" points="2688.7 1776.3 2394.12 1605.11 2256.59 1518.82 2551.17 1690.01 2688.7 1776.3"/><polygon class="cls-5" points="2718.26 1521.66 2718.47 1593.42 2825.28 1531.75 2688.7 1776.3 2551.17 1690.01 2657.99 1628.34 2657.79 1556.58 2718.26 1521.66"/></g><g class="cls-4"><polygon class="cls-2" points="2738.26 1479.27 2443.68 1308.07 2443.25 1158.24 2737.84 1329.43 2738.26 1479.27"/><polygon class="cls-2" points="2637.18 1305.96 2342.6 1134.76 2443.02 1076.78 2737.61 1247.98 2637.18 1305.96"/><polygon class="cls-2" points="2737.61 1247.98 2443.02 1076.78 2442.64 940.52 2737.22 1111.71 2737.61 1247.98"/><polygon class="cls-2" points="2737.22 1111.71 2442.64 940.52 2529.49 890.38 2824.07 1061.57 2737.22 1111.71"/><polygon class="cls-2" points="2549.94 1219.84 2255.36 1048.65 2342.21 998.5 2636.79 1169.69 2549.94 1219.84"/><polygon class="cls-2" points="2550.98 1587.39 2256.4 1416.2 2255.36 1048.65 2549.94 1219.84 2550.98 1587.39"/><polygon class="cls-5" points="2824.07 1061.57 2825.12 1429.12 2738.26 1479.27 2737.84 1329.43 2637.41 1387.41 2637.84 1537.25 2550.98 1587.39 2549.94 1219.84 2636.79 1169.69 2637.18 1305.96 2737.61 1247.98 2737.22 1111.71 2824.07 1061.57"/></g><g class="cls-4"><polygon class="cls-2" points="2656.57 1127.52 2361.99 956.33 2361.79 884.57 2656.37 1055.76 2656.57 1127.52"/><polygon class="cls-2" points="2549.55 1117.43 2254.97 946.24 2391.56 701.69 2686.14 872.88 2549.55 1117.43"/><polygon class="cls-5" points="2686.14 872.88 2823.66 959.18 2716.84 1020.85 2717.05 1092.61 2656.57 1127.52 2656.37 1055.76 2549.55 1117.43 2686.14 872.88"/></g><polygon class="cls-6" points="2973.16 1870.46 2430.35 2183.86 2429.79 2184.18 2429.79 1987.98 2972.61 1674.58 2973.16 1870.46"/><polygon class="cls-5" points="2302.97 94.87 1760.15 408.26 1495.45 561.09 1237.48 710.03 1903.74 1097.22 2161.71 948.28 2426.41 795.45 2969.23 482.06 2302.97 94.87"/><polygon class="cls-6" points="2426.96 991.34 2429.79 1987.98 2429.79 2184.18 2165.65 2336.68 1907.67 2485.63 1903.74 1097.22 2161.7 948.28 2426.42 795.46 2969.23 482.05 2969.79 677.94 2426.96 991.34"/><polygon class="cls-7" points="2264.76 1022.93 1902.83 1231.89 1902.83 1165.71 2264.76 956.75 2264.76 1022.93"/><polygon class="cls-7" points="2264.76 1022.93 1902.83 1231.89 1902.83 1165.71 2264.76 956.75 2264.76 1022.93"/><polygon class="cls-7" points="2140.67 1214.67 1902.83 1351.99 1902.83 1285.81 2140.67 1148.49 2140.67 1214.67"/><polygon class="cls-7" points="2140.67 1334.77 1902.83 1472.09 1902.83 1405.91 2140.67 1268.59 2140.67 1334.77"/><polygon class="cls-7" points="2140.67 1454.87 1902.83 1592.19 1902.83 1526.01 2140.67 1388.69 2140.67 1454.87"/><polygon class="cls-7" points="2140.67 1574.97 1902.83 1712.29 1902.83 1646.11 2140.67 1508.79 2140.67 1574.97"/><polygon class="cls-7" points="2264.76 1623.43 1902.83 1832.39 1902.83 1766.21 2264.76 1557.25 2264.76 1623.43"/><polygon class="cls-7" points="2264.76 2224 1902.83 2432.96 1902.83 2366.78 2264.76 2157.82 2264.76 2224"/><polygon class="cls-7" points="2140.67 1815.17 1902.83 1952.49 1902.83 1886.31 2140.67 1748.99 2140.67 1815.17"/><polygon class="cls-7" points="2140.67 1935.27 1902.83 2072.59 1902.83 2006.41 2140.67 1869.1 2140.67 1935.27"/><polygon class="cls-7" points="2140.67 2055.37 1902.83 2192.69 1902.83 2126.51 2140.67 1989.19 2140.67 2055.37"/><polygon class="cls-7" points="2140.67 2175.47 1902.83 2312.79 1902.83 2246.61 2140.67 2109.3 2140.67 2175.47"/><polygon class="cls-8" points="1769.45 2405.28 1769.45 1378.11 1320.36 1118.83 1320.36 2144.31 1241.42 2098.44 1237.49 710.04 1903.75 1097.21 1907.69 2485.62 1769.45 2405.28"/><text class="cls-9" transform="translate(3575.8 823.89) scale(1.01 1)">ft</text><text class="cls-9" transform="translate(3575.8 1301.17) scale(1.01 1)">cm</text><text class="cls-9" transform="translate(3575.8 1778.44) scale(1.01 1)">inch</text><rect class="cls-2" x="2794.37" y="1157.15" width="1044.24" height="56.79" transform="translate(4502.04 -2130.95) rotate(90)"/><polygon class="cls-2" points="3316.49 545.56 3180.84 688.75 3316.49 688.75 3452.15 688.75 3316.49 545.56"/><polygon class="cls-2" points="3316.49 1822.38 3180.84 1679.18 3316.49 1679.18 3452.15 1679.18 3316.49 1822.38"/><rect class="cls-2" x="2794.37" y="1157.15" width="1044.24" height="56.79" transform="translate(4502.04 -2130.95) rotate(90)"/><polygon class="cls-2" points="3316.49 545.56 3180.84 688.75 3316.49 688.75 3452.15 688.75 3316.49 545.56"/><polygon class="cls-2" points="3316.49 1822.38 3180.84 1679.18 3316.49 1679.18 3452.15 1679.18 3316.49 1822.38"/><rect class="cls-2" x="3158.08" y="399.1" width="316.82" height="56.79" transform="translate(6632.99 854.98) rotate(180)"/><rect class="cls-2" x="3158.08" y="1901.19" width="316.82" height="56.79" transform="translate(6632.99 3859.17) rotate(180)"/><ellipse class="cls-3" cx="1456.44" cy="2359.95" rx="293.62" ry="165.96"/><path class="cls-10" d="M1359.06,1672.86l-17.28,30.05s.79,33.89-8.47,57-27.82,77.41-27.82,77.41l-30.43-6.86,22.91-139a39.94,39.94,0,0,1,3.18-10.3l20-43Z"/><path class="cls-10" d="M1305.49,1837.3l2.67,37.94a31.53,31.53,0,0,1-2.88,15.58l-.23.5a6.59,6.59,0,0,1-7.63,3.6l-3.47-.9-2.41,6.29a8.26,8.26,0,0,1-9.83,5l-17.66-4.69a8.27,8.27,0,0,1-6-6.48l-3.31-17.91a11.19,11.19,0,0,1,1-7.08l19.33-38.74Z"/><path class="cls-7" d="M1387.74,1516.13c58,3.69,10.22,98.14,10.22,98.14s-12.18,31.35-25.73,72.88c-21.18,22.76-72.18-6.84-73.07-20.74,16-45.07,25.72-79.65,25.72-79.65S1332.39,1512.59,1387.74,1516.13Z"/><path class="cls-10" d="M1482.48,1498.23c-5.31,14.41,9,37.44,9,37.44v19.92l-38.91,31.17-31.71,2.1-24.6-5.85-11.7-25.38,21.57-50.29,38.39-15S1475.45,1494.59,1482.48,1498.23Z"/><path class="cls-11" d="M1517.84,2188c18.45,55.87,20.83,147.58,20.83,147.58l6,14.49,25.78,2.73,11-10.94s2.37,3.28,3.84-15.9c-7.32-78.43,14.26-105.83,4.76-158.84C1583.45,2143.73,1522.78,2179.66,1517.84,2188Z"/><path class="cls-10" d="M1370,2124c14.35,61.32,10.23,124.65,10.23,124.65l1.53,15,32.11,3.29,22.56-9.78s-5.2-11.78.28-21.1c-4.39-58.13,9.06-80.32,6.86-115.72C1442.72,2103.51,1378.11,2106.26,1370,2124Z"/><path class="cls-7" d="M1327.2,1825.36c-16.07,120.64,17.92,183.7,28.88,285.13,6,32.34,80.6,44.41,96.46,6.63-12.57-86.69-3.78-196.89-3.78-196.89S1333.43,1815,1327.2,1825.36Z"/><path class="cls-7" d="M1519.89,1850.66c10.56,16.31,17.86,55.11,22.28,100.46,27.76,73.1,55.17,208.39,55.17,208.39-14.26,42.37-86.64,46-99,16-11.71-52.64-85.54-224.44-85.54-224.44s-76-53.39-85.55-125.76C1328.54,1812.75,1502,1837.2,1519.89,1850.66Z"/><path class="cls-6" d="M1327.22,1825.36c8.85,12.63,54.45,58.28,124.26,58.37,40,.1,68.4-33.06,68.4-33.06s-12.93-29.82-5.71-64.67c5.32-25.85,26.86-74.11,26.86-74.11l8.57-123.78s-51.51-41.29-58.09-53.88c-1.45,25.08-52.33,64-80.6,41.1-8.18-6.63-9.1-21.15-8.37-32.34a111.83,111.83,0,0,1,1.93-14.81h-14.86s-25.56,24.4-44.53,51.85a2.9,2.9,0,0,0-.19.29c-10.61,15.29-19.08,31.51-20,44.92a.8.8,0,0,0,0,.34c-.87,15.39.78,40.51,2.47,69.37C1329.73,1736.58,1332.2,1786.05,1327.22,1825.36Z"/><path class="cls-11" d="M1393.9,1412.92c-17.72,11.45-25.74,44.73-25.76,49.09,0,5.85,6.59,10.24,6.59,10.24s-1.88,1.82-3.29,6.22c-3.65,11.33,6.21,66.53,6.21,66.53s11.21,11.84,18.27,12.43c43.86,3.65,71.65-46.42,71.65-46.42s14.06-3.39,17.92-21.21c2.35-8.76,8.4-24.49,8.4-24.49l-8.4-28.87-22.3-32.54h-39.48S1397.35,1411.34,1393.9,1412.92Z"/><path class="cls-12" d="M1485.2,1492.26c-4.67,0,8.75-22.82-4.4-22.82s-13.41,27.49-24.38,24.2c-4.24-1.27-10.14-25.5-7.66-37.83s22.87-22.63,12-33.45c-12.23-12.24-35.17,16.56-60.12,7.12-23.2-8.76,1.74-33.16,11.32-38.1s48.25-23.3,77.52,16.55S1491.78,1492.26,1485.2,1492.26Z"/><path class="cls-7" d="M1436.68,2236.05c-26.85,41.12-56.48,12.61-56.48,12.61s-37,30.16-63.6,40c-16.81,6.22-20.28,35.65-9,44.14,7.27,5.48,31.53,2.64,50.73-6.67s37.82-27.61,37.82-27.61,31,.84,42.78-10.4C1446.55,2280.82,1444,2240.06,1436.68,2236.05Z"/><path class="cls-7" d="M1585.28,2326s-17.54,33.06-46.61,9.62c-6.76,22.35-27.42,57-38.11,64.11s-10.68,27.69-6,32.63c9.31,9.87,44,12,58.94-3.84,16.72-17.82,24.67-45.22,24.67-45.22s10.34-8.49,13.92-17.8S1585.28,2326,1585.28,2326Z"/><path class="cls-11" d="M1531.36,1709.48l16.28,41.47s-7.4,42.94,0,74,20.73,103.65,20.73,103.65l40-3-2.85-181.06a50.87,50.87,0,0,0-2.09-13.7l-17.27-58.44Z"/><path class="cls-11" d="M1568.37,1928.63l-10.56,47.74a40.76,40.76,0,0,0,.71,20.34l.2.68a8.47,8.47,0,0,0,9,6l4.58-.48,1.88,8.45a10.62,10.62,0,0,0,11.55,8.25l23.33-2.63a10.6,10.6,0,0,0,8.86-7.1l7.6-22.13a14.52,14.52,0,0,0,.07-9.19l-17.26-52.9Z"/><path class="cls-7" d="M1525.51,1591.23c51.23-27.41,65.79,80,65.79,80s9.88,34.55,23,76.22c-15.9,41.3-71.28,24.67-77.3,22.48-13.14-46-30.71-98.14-30.71-98.14S1486.58,1612.08,1525.51,1591.23Z"/><ellipse class="cls-3" cx="1537.29" cy="1125.9" rx="55.96" ry="96.93" transform="translate(-358.26 931.41) rotate(-30.36)"/><ellipse class="cls-5" cx="1537.29" cy="1125.9" rx="41.8" ry="72.4" transform="matrix(0.86, -0.51, 0.51, 0.86, -358.26, 931.41)"/><path class="cls-6" d="M1573.67,1150.55c0,6.2-1.14,11.4-3.25,15.47l0,0a18.33,18.33,0,0,1-12.27,10,51.3,51.3,0,1,1-50.38-89.37,15.51,15.51,0,0,1,3-2.12,18.25,18.25,0,0,1,8.45-2.46h.06c5.24-.25,11.25,1.38,17.62,5C1557.2,1098.85,1573.67,1127.25,1573.67,1150.55Z"/><path class="cls-7" d="M1573.67,1150.55c0,6.2-1.14,11.4-3.25,15.47l0,0a18.33,18.33,0,0,1-12.27,10,51.32,51.32,0,0,1-57.73-4.32c14.12-.6,38.88-5.45,49.22-30.9,10.91-26.8-7-55.53-38.9-56.27a18.25,18.25,0,0,1,8.45-2.46h.06c5.24-.25,11.25,1.38,17.62,5C1557.2,1098.85,1573.67,1127.25,1573.67,1150.55Z"/></svg>