<?xml version="1.0" encoding="UTF-8" standalone="no"?><!DOCTYPE svg PUBLIC "-//W3C//DTD SVG 1.1//EN" "http://www.w3.org/Graphics/SVG/1.1/DTD/svg11.dtd"><svg width="4000px" height="2500px" version="1.1" xmlns="http://www.w3.org/2000/svg" xmlns:xlink="http://www.w3.org/1999/xlink" xml:space="preserve" xmlns:serif="http://www.serif.com/" style="fill-rule:evenodd;clip-rule:evenodd;stroke-linejoin:round;stroke-miterlimit:2;"><g id="c91"><g transform="matrix(1.0007,0,0,1.0007,1.66429,0.0723275)"><rect x="111.817" y="218.725" width="3805.79" height="2107.56" style="fill:rgb(174,211,240);"/></g><g transform="matrix(2.2689,0,0,2.2689,-4581.63,-2928.61)"><path d="M2377.3,2316.71C2379.64,2311.33 2382.13,2306.09 2384.8,2301C2430.93,2212.82 2550.23,2146.78 2640.74,2116.17C2732.03,2085.3 2857.92,2079.42 2951.22,2103.61C3019.15,2121.22 3088.91,2131.97 3156.35,2150.87C3301.94,2191.68 3485.19,2276.45 3639.2,2232.12C3674.81,2221.87 3715.54,2205.74 3747.92,2183.79L3747.92,2316.71L2377.3,2316.71ZM3747.92,1581.06C3697.84,1540.21 3635.46,1523.62 3572.34,1511.82C3276.96,1456.58 3070.39,1572.75 2786.14,1605.58C2563.89,1631.24 2347.66,1539.08 2189.12,1387.17L3747.92,1387.17L3747.92,1581.06Z" style="fill:rgb(195,220,243);"/></g><g transform="matrix(1.0007,0,0,1.0007,1.66429,0.0723275)"><rect x="111.817" y="218.725" width="3805.79" height="2107.56" style="fill:none;"/><clipPath id="_clip1"><rect x="111.817" y="218.725" width="3805.79" height="2107.56"/></clipPath><g clip-path="url(#_clip1)"><g transform="matrix(1.05524,0,0,1.05524,-280.961,28.4064)"><g transform="matrix(6.18535e-17,1.10232,-1.29862,1.5101e-16,2389.26,-1688.51)"><g transform="matrix(1,0,0,0.735448,0,146.031)"><rect x="1770.7" y="551.996" width="1785.02" height="13.393" style="fill:white;fill-opacity:0.45;"/></g><g transform="matrix(1,0,0,0.735448,0,237.418)"><rect x="1770.7" y="551.996" width="1785.02" height="13.393" style="fill:white;fill-opacity:0.45;"/></g><g transform="matrix(1,0,0,0.735448,0,328.805)"><rect x="1770.7" y="551.996" width="1785.02" height="13.393" style="fill:white;fill-opacity:0.45;"/></g><g transform="matrix(1,0,0,0.735448,0,420.192)"><rect x="1770.7" y="551.996" width="1785.02" height="13.393" style="fill:white;fill-opacity:0.45;"/></g><g transform="matrix(1,0,0,0.735448,0,511.579)"><rect x="1770.7" y="551.996" width="1785.02" height="13.393" style="fill:white;fill-opacity:0.45;"/></g><g transform="matrix(1,0,0,0.735448,0,602.966)"><rect x="1770.7" y="551.996" width="1785.02" height="13.393" style="fill:white;fill-opacity:0.45;"/></g><g transform="matrix(1,0,0,0.735448,0,694.353)"><rect x="1770.7" y="551.996" width="1785.02" height="13.393" style="fill:white;fill-opacity:0.45;"/></g><rect x="1888.91" y="451.812" width="9.909" height="763.69" style="fill:white;fill-opacity:0.55;"/><g transform="matrix(1,0,0,1,116.532,0)"><rect x="1888.91" y="451.812" width="9.909" height="763.69" style="fill:white;fill-opacity:0.55;"/></g><g transform="matrix(1,0,0,1,233.065,0)"><rect x="1888.91" y="451.812" width="9.909" height="763.69" style="fill:white;fill-opacity:0.55;"/></g><g transform="matrix(1,0,0,1,349.597,0)"><rect x="1888.91" y="451.812" width="9.909" height="763.69" style="fill:white;fill-opacity:0.55;"/></g><g transform="matrix(1,0,0,1,466.129,0)"><rect x="1888.91" y="451.812" width="9.909" height="763.69" style="fill:white;fill-opacity:0.55;"/></g><g transform="matrix(1,0,0,1,582.661,0)"><rect x="1888.91" y="451.812" width="9.909" height="763.69" style="fill:white;fill-opacity:0.55;"/></g><g transform="matrix(1,0,0,1,699.194,0)"><rect x="1888.91" y="451.812" width="9.909" height="763.69" style="fill:white;fill-opacity:0.55;"/></g><g transform="matrix(1,0,0,1,815.726,0)"><rect x="1888.91" y="451.812" width="9.909" height="763.69" style="fill:white;fill-opacity:0.55;"/></g><g transform="matrix(1,0,0,1,932.258,0)"><rect x="1888.91" y="451.812" width="9.909" height="763.69" style="fill:white;fill-opacity:0.55;"/></g><g transform="matrix(1,0,0,1,1048.79,0)"><rect x="1888.91" y="451.812" width="9.909" height="763.69" style="fill:white;fill-opacity:0.55;"/></g><g transform="matrix(1,0,0,1,1165.32,0)"><rect x="1888.91" y="451.812" width="9.909" height="763.69" style="fill:white;fill-opacity:0.55;"/></g><g transform="matrix(1,0,0,1,1281.85,0)"><rect x="1888.91" y="451.812" width="9.909" height="763.69" style="fill:white;fill-opacity:0.55;"/></g><g transform="matrix(1,0,0,1,1398.39,0)"><rect x="1888.91" y="451.812" width="9.909" height="763.69" style="fill:white;fill-opacity:0.55;"/></g><g transform="matrix(1,0,0,1,1514.92,0)"><rect x="1888.91" y="451.812" width="9.909" height="763.69" style="fill:white;fill-opacity:0.55;"/></g></g><g transform="matrix(1,0,0,1,61.1273,0)"><g transform="matrix(6.18535e-17,1.10232,-1.29862,1.5101e-16,3803.84,-1688.51)"><g transform="matrix(1,0,0,0.735448,0,146.031)"><rect x="1770.7" y="551.996" width="1785.02" height="13.393" style="fill:white;fill-opacity:0.45;"/></g><g transform="matrix(1,0,0,0.735448,0,237.418)"><rect x="1770.7" y="551.996" width="1785.02" height="13.393" style="fill:white;fill-opacity:0.45;"/></g><g transform="matrix(1,0,0,0.735448,0,328.805)"><rect x="1770.7" y="551.996" width="1785.02" height="13.393" style="fill:white;fill-opacity:0.45;"/></g><g transform="matrix(1,0,0,0.735448,0,420.192)"><rect x="1770.7" y="551.996" width="1785.02" height="13.393" style="fill:white;fill-opacity:0.45;"/></g><g transform="matrix(1,0,0,0.735448,0,511.579)"><rect x="1770.7" y="551.996" width="1785.02" height="13.393" style="fill:white;fill-opacity:0.45;"/></g><g transform="matrix(1,0,0,0.735448,0,602.966)"><rect x="1770.7" y="551.996" width="1785.02" height="13.393" style="fill:white;fill-opacity:0.45;"/></g><g transform="matrix(1,0,0,0.735448,0,694.353)"><rect x="1770.7" y="551.996" width="1785.02" height="13.393" style="fill:white;fill-opacity:0.45;"/></g><rect x="1888.91" y="451.812" width="9.909" height="763.69" style="fill:white;fill-opacity:0.55;"/><g transform="matrix(1,0,0,1,116.532,0)"><rect x="1888.91" y="451.812" width="9.909" height="763.69" style="fill:white;fill-opacity:0.55;"/></g><g transform="matrix(1,0,0,1,233.065,0)"><rect x="1888.91" y="451.812" width="9.909" height="763.69" style="fill:white;fill-opacity:0.55;"/></g><g transform="matrix(1,0,0,1,349.597,0)"><rect x="1888.91" y="451.812" width="9.909" height="763.69" style="fill:white;fill-opacity:0.55;"/></g><g transform="matrix(1,0,0,1,466.129,0)"><rect x="1888.91" y="451.812" width="9.909" height="763.69" style="fill:white;fill-opacity:0.55;"/></g><g transform="matrix(1,0,0,1,582.661,0)"><rect x="1888.91" y="451.812" width="9.909" height="763.69" style="fill:white;fill-opacity:0.55;"/></g><g transform="matrix(1,0,0,1,699.194,0)"><rect x="1888.91" y="451.812" width="9.909" height="763.69" style="fill:white;fill-opacity:0.55;"/></g><g transform="matrix(1,0,0,1,815.726,0)"><rect x="1888.91" y="451.812" width="9.909" height="763.69" style="fill:white;fill-opacity:0.55;"/></g><g transform="matrix(1,0,0,1,932.258,0)"><rect x="1888.91" y="451.812" width="9.909" height="763.69" style="fill:white;fill-opacity:0.55;"/></g><g transform="matrix(1,0,0,1,1048.79,0)"><rect x="1888.91" y="451.812" width="9.909" height="763.69" style="fill:white;fill-opacity:0.55;"/></g><g transform="matrix(1,0,0,1,1165.32,0)"><rect x="1888.91" y="451.812" width="9.909" height="763.69" style="fill:white;fill-opacity:0.55;"/></g><g transform="matrix(1,0,0,1,1281.85,0)"><rect x="1888.91" y="451.812" width="9.909" height="763.69" style="fill:white;fill-opacity:0.55;"/></g><g transform="matrix(1,0,0,1,1398.39,0)"><rect x="1888.91" y="451.812" width="9.909" height="763.69" style="fill:white;fill-opacity:0.55;"/></g><g transform="matrix(1,0,0,1,1514.92,0)"><rect x="1888.91" y="451.812" width="9.909" height="763.69" style="fill:white;fill-opacity:0.55;"/></g></g><g><g transform="matrix(1.02193,0,0,1.27537,-17.9974,-142.919)"><rect x="2917.39" y="420.039" width="149.669" height="1432.9" style="fill:rgb(216,234,248);"/></g><g transform="matrix(0.328544,0,0,1.27537,2108.67,-142.919)"><rect x="2917.39" y="420.039" width="149.669" height="1432.9" style="fill:rgb(144,195,235);"/></g><path d="M3017.76,2153.35L2988.55,2153.35L2988.55,2161.41L3017.76,2161.41L3017.76,2153.35ZM3017.76,2124.93L2988.55,2124.93L2988.55,2132.99L3017.76,2132.99L3017.76,2124.93ZM3017.76,2096.5L2988.55,2096.5L2988.55,2104.57L3017.76,2104.57L3017.76,2096.5ZM3017.76,2068.08L2988.55,2068.08L2988.55,2076.14L3017.76,2076.14L3017.76,2068.08ZM3044.27,2039.82L2988.55,2039.82L2988.55,2047.88L3044.27,2047.88L3044.27,2039.82ZM3017.76,2005.83L2988.55,2005.83L2988.55,2013.89L3017.76,2013.89L3017.76,2005.83ZM3017.76,1977.4L2988.55,1977.4L2988.55,1985.46L3017.76,1985.46L3017.76,1977.4ZM3017.76,1948.98L2988.55,1948.98L2988.55,1957.04L3017.76,1957.04L3017.76,1948.98ZM3017.76,1920.55L2988.55,1920.55L2988.55,1928.61L3017.76,1928.61L3017.76,1920.55ZM3044.27,1892.29L2988.55,1892.29L2988.55,1900.35L3044.27,1900.35L3044.27,1892.29ZM3017.76,1861.74L2988.55,1861.74L2988.55,1869.8L3017.76,1869.8L3017.76,1861.74ZM3017.76,1833.31L2988.55,1833.31L2988.55,1841.38L3017.76,1841.38L3017.76,1833.31ZM3017.76,1804.89L2988.55,1804.89L2988.55,1812.95L3017.76,1812.95L3017.76,1804.89ZM3017.76,1776.47L2988.55,1776.47L2988.55,1784.53L3017.76,1784.53L3017.76,1776.47ZM3044.27,1748.2L2988.55,1748.2L2988.55,1756.27L3044.27,1756.27L3044.27,1748.2ZM3017.76,1714.21L2988.55,1714.21L2988.55,1722.28L3017.76,1722.28L3017.76,1714.21ZM3017.76,1685.79L2988.55,1685.79L2988.55,1693.85L3017.76,1693.85L3017.76,1685.79ZM3017.76,1657.36L2988.55,1657.36L2988.55,1665.43L3017.76,1665.43L3017.76,1657.36ZM3017.76,1628.94L2988.55,1628.94L2988.55,1637L3017.76,1637L3017.76,1628.94ZM3044.27,1600.68L2988.55,1600.68L2988.55,1608.74L3044.27,1608.74L3044.27,1600.68ZM3017.76,1570.13L2988.55,1570.13L2988.55,1578.19L3017.76,1578.19L3017.76,1570.13ZM3017.76,1541.7L2988.55,1541.7L2988.55,1549.76L3017.76,1549.76L3017.76,1541.7ZM3017.76,1513.28L2988.55,1513.28L2988.55,1521.34L3017.76,1521.34L3017.76,1513.28ZM3017.76,1484.85L2988.55,1484.85L2988.55,1492.91L3017.76,1492.91L3017.76,1484.85ZM3044.27,1456.59L2988.55,1456.59L2988.55,1464.65L3044.27,1464.65L3044.27,1456.59ZM3017.76,1422.6L2988.55,1422.6L2988.55,1430.66L3017.76,1430.66L3017.76,1422.6ZM3017.76,1394.17L2988.55,1394.17L2988.55,1402.24L3017.76,1402.24L3017.76,1394.17ZM3017.76,1365.75L2988.55,1365.75L2988.55,1373.81L3017.76,1373.81L3017.76,1365.75ZM3017.76,1337.33L2988.55,1337.33L2988.55,1345.39L3017.76,1345.39L3017.76,1337.33ZM3044.27,1309.06L2988.55,1309.06L2988.55,1317.13L3044.27,1317.13L3044.27,1309.06ZM3017.76,1278.51L2988.55,1278.51L2988.55,1286.58L3017.76,1286.58L3017.76,1278.51ZM3017.76,1250.09L2988.55,1250.09L2988.55,1258.15L3017.76,1258.15L3017.76,1250.09ZM3017.76,1221.66L2988.55,1221.66L2988.55,1229.73L3017.76,1229.73L3017.76,1221.66ZM3017.76,1193.24L2988.55,1193.24L2988.55,1201.3L3017.76,1201.3L3017.76,1193.24ZM3044.27,1164.98L2988.55,1164.98L2988.55,1173.04L3044.27,1173.04L3044.27,1164.98ZM3017.76,1130.99L2988.55,1130.99L2988.55,1139.05L3017.76,1139.05L3017.76,1130.99ZM3017.76,1102.56L2988.55,1102.56L2988.55,1110.62L3017.76,1110.62L3017.76,1102.56ZM3017.76,1074.14L2988.55,1074.14L2988.55,1082.2L3017.76,1082.2L3017.76,1074.14ZM3017.76,1045.71L2988.55,1045.71L2988.55,1053.78L3017.76,1053.78L3017.76,1045.71ZM3044.27,1017.45L2988.55,1017.45L2988.55,1025.51L3044.27,1025.51L3044.27,1017.45ZM3017.76,986.9L2988.55,986.9L2988.55,994.962L3017.76,994.962L3017.76,986.9ZM3017.76,958.475L2988.55,958.475L2988.55,966.537L3017.76,966.537L3017.76,958.475ZM3017.76,930.05L2988.55,930.05L2988.55,938.113L3017.76,938.113L3017.76,930.05ZM3017.76,901.626L2988.55,901.626L2988.55,909.688L3017.76,909.688L3017.76,901.626ZM3044.27,873.363L2988.55,873.363L2988.55,881.425L3044.27,881.425L3044.27,873.363ZM3017.76,839.373L2988.55,839.373L2988.55,847.436L3017.76,847.436L3017.76,839.373ZM3017.76,810.949L2988.55,810.949L2988.55,819.011L3017.76,819.011L3017.76,810.949ZM3017.76,782.524L2988.55,782.524L2988.55,790.586L3017.76,790.586L3017.76,782.524ZM3017.76,754.1L2988.55,754.1L2988.55,762.162L3017.76,762.162L3017.76,754.1ZM3044.27,725.837L2988.55,725.837L2988.55,733.899L3044.27,733.899L3044.27,725.837ZM3017.76,695.286L2988.55,695.286L2988.55,703.349L3017.76,703.349L3017.76,695.286ZM3017.76,666.862L2988.55,666.862L2988.55,674.924L3017.76,674.924L3017.76,666.862ZM3017.76,638.437L2988.55,638.437L2988.55,646.499L3017.76,646.499L3017.76,638.437ZM3017.76,610.013L2988.55,610.013L2988.55,618.075L3017.76,618.075L3017.76,610.013ZM3044.27,581.75L2988.55,581.75L2988.55,589.812L3044.27,589.812L3044.27,581.75ZM3017.76,547.76L2988.55,547.76L2988.55,555.823L3017.76,555.823L3017.76,547.76ZM3017.76,519.336L2988.55,519.336L2988.55,527.398L3017.76,527.398L3017.76,519.336ZM3017.76,490.911L2988.55,490.911L2988.55,498.973L3017.76,498.973L3017.76,490.911ZM3017.76,462.486L2988.55,462.486L2988.55,470.549L3017.76,470.549L3017.76,462.486ZM3044.27,434.224L2988.55,434.224L2988.55,442.286L3044.27,442.286L3044.27,434.224Z" style="fill:rgb(34,78,119);"/></g><g transform="matrix(-1,0,0,1,3959.91,-3.55271e-15)"><g transform="matrix(0.905385,0,0,0.953551,145.606,30.7436)"><path d="M1538.93,661.881C1538.93,661.881 1571.63,663.827 1586.92,667.373C1602.21,670.92 1648.56,677.617 1660.48,725.009C1672.4,772.402 1676.72,841.502 1677.33,866.042C1677.95,890.583 1681.72,986.744 1680.99,995.748C1680.27,1004.75 1647.65,1323.81 1636.64,1387.72L1595.45,1348.09C1595.45,1348.09 1598.98,1250.47 1593.74,1168.95C1588.51,1087.43 1588.24,1063.52 1598.14,986.784L1587.99,842.162L1538.93,661.881Z" style="fill:rgb(255,199,135);"/></g><g transform="matrix(0.91789,0,0,1,126.361,0)"><path d="M1545.35,684.673C1546,679.497 1547.53,674.982 1550.95,677.514C1556.74,681.795 1565.27,725.296 1571.43,735.91C1583.91,757.382 1621.6,792.026 1625.91,814.233C1630.11,835.793 1610.79,863.697 1613.7,894.212C1616.75,926.178 1612.47,958.838 1616.03,990.702C1617.77,1006.24 1628.22,1017.21 1626.25,1033.85C1624.06,1052.36 1609.72,1068.98 1607.64,1088.78C1600.96,1152.48 1606.85,1219.63 1611.94,1283.32C1612.97,1296.3 1614.27,1308.51 1612.65,1320.46L1594.68,1316.21C1594.68,1316.21 1598.16,1223.13 1593,1145.4C1587.84,1067.66 1587.57,1044.87 1597.33,971.692L1587.32,833.788L1545.35,684.673Z" style="fill:rgb(255,171,101);"/></g><path d="M1299.76,704.719C1274.23,724.858 1247.51,734.818 1227.22,763.936C1206.92,793.054 1213.92,821.379 1216.84,855.928C1219.77,890.477 1226.52,1062.13 1226.52,1062.13C1226.52,1062.13 1195.58,1127.46 1190.94,1187.57C1186.3,1247.68 1220.07,1390.94 1217.63,1396.92C1215.2,1402.9 1312.46,1172.83 1312.46,1172.83L1330.7,854.081C1330.7,854.081 1325.29,684.58 1299.76,704.719Z" style="fill:rgb(255,199,135);"/><path d="M1293.95,729.133C1274.52,772.146 1243.79,825.058 1249.72,874.493C1254.13,911.183 1257.94,947.835 1263.51,984.446C1266.34,1003.05 1276.24,1024.21 1272.9,1043.39C1271.64,1050.67 1246.67,1053.16 1241.02,1055.5C1240.99,1055.51 1238.16,1056.42 1238.18,1056.69C1238.99,1070.28 1283.96,1053.7 1282.2,1066.57C1279.86,1083.59 1253.31,1119.19 1244.39,1136.27C1228.33,1167.02 1219,1202.32 1212.16,1236.14C1210.52,1244.29 1204.71,1294.59 1209.52,1296.37C1219.19,1299.97 1230.02,1281.08 1234.97,1275.56C1259.69,1248.01 1281.99,1214.16 1297.49,1180.35C1313.44,1145.55 1319.31,1105.82 1326.31,1068.54C1338.28,1004.83 1354.56,934.374 1344.57,869.188C1342.44,855.285 1337.18,842.399 1334.18,828.746C1331.22,815.25 1330.23,795.797 1323.24,783.578" style="fill:rgb(255,171,101);"/><path d="M1582.51,894.288C1582.51,894.288 1577.11,959.275 1577.02,996.283C1576.92,1033.29 1591.44,1077.81 1593.66,1092.05C1595.89,1106.3 1597.68,1141.82 1597.68,1141.82C1597.68,1141.82 1530.49,1185.44 1458.95,1175.58C1387.41,1165.72 1268.67,1132.43 1268.67,1132.43C1268.67,1132.43 1303.12,1041.8 1305.83,1025.1C1308.53,1008.4 1294.79,961.262 1293.6,937.113C1292.41,912.964 1582.51,894.288 1582.51,894.288Z" style="fill:rgb(255,199,135);"/><path d="M1310.91,698.631C1310.91,698.631 1351.31,677.782 1358.42,672.177C1365.54,666.573 1369.99,667.328 1370.2,661.436C1370.41,655.543 1370.79,596.499 1370.79,596.499L1457.17,585.969C1457.17,585.969 1457.7,639.178 1459.34,646.024C1460.98,652.871 1463.18,652.943 1470.85,654.024C1478.53,655.105 1523.94,661.077 1523.94,661.077L1538.57,754.905L1443.04,813.575L1308.34,788.133L1304.44,719.998L1310.91,698.631Z" style="fill:rgb(255,199,135);"/><path d="M1370.64,618.072C1370.73,606.169 1370.79,596.499 1370.79,596.499L1457.17,585.969C1457.17,585.969 1457.25,594.259 1457.45,604.714C1450.5,617.083 1442.96,629.212 1437.42,642.225C1435.59,646.541 1431.41,663.192 1425.2,664.309C1422.73,664.753 1416.87,659.456 1414.61,658.13C1401.7,650.555 1393.91,636.776 1383.82,626.284C1381.83,624.215 1376.2,614.557 1373.34,615.324C1372.22,615.623 1371.34,616.652 1370.64,618.072Z" style="fill:rgb(255,171,101);"/><path d="M1296.95,711.528C1305.43,719.705 1314.37,713.716 1322.73,709.798C1331.78,705.556 1343.66,702.108 1353.58,700.704C1364.65,699.135 1376.48,698.768 1387.68,698.764C1388.79,698.763 1397.55,699.201 1397.49,697.326C1397.31,691.097 1392.47,680.535 1390.18,674.681C1385.71,663.241 1375.2,641.918 1374.92,630.15C1374.77,624.25 1374.86,618.235 1377.13,612.686C1377.26,612.379 1378.74,607.525 1379.51,607.823C1382.87,609.122 1383.08,623.564 1383.95,626.618C1388.48,642.494 1393.11,654.047 1401.3,668.249C1407.24,678.554 1429.52,713.197 1426.93,713.822C1420.1,715.472 1403.3,716.539 1393.37,716.539C1383.99,716.538 1375.44,720.609 1366.35,720.777C1353.88,721.007 1342.39,719.089 1330.08,717.717C1320.67,716.666 1310.78,718.671 1301.3,718.672" style="fill:rgb(255,171,101);"/><path d="M1529.67,682.963C1526.19,683.342 1514,688.709 1509.24,690.017C1499.28,692.751 1489.16,691.948 1479.04,693.319C1470.15,694.523 1462.49,695.161 1454.1,698.463C1453.59,698.664 1447.89,699.92 1448.21,700.902C1450.11,706.676 1468.2,706.504 1473.01,707.242C1483.06,708.786 1494.78,712.083 1505,710.851C1514.63,709.69 1524.12,701.793 1532.46,697.325C1534.79,696.078 1538.34,696.529 1540.31,695.241" style="fill:rgb(255,171,101);"/><path d="M1436.68,686.021C1437.17,675.5 1441.56,665.398 1444.7,655.355C1444.85,654.877 1446.85,646.396 1447.47,646.433C1448.65,646.502 1448.85,648.87 1449,649.73C1449.89,654.877 1448.42,660.263 1447.89,665.356C1446.95,674.315 1449.16,697.417 1438.42,703.012C1434,705.312 1434.28,694.079 1435.81,689.484" style="fill:rgb(255,171,101);"/><path d="M1426.71,785.29C1424.69,777.184 1424.81,767.134 1418.02,760.797C1414.22,757.251 1401.42,754.786 1402.3,747.822C1402.54,745.917 1411.06,745.566 1412.57,745.699C1422.37,746.559 1433,742.626 1442.79,741.468C1444.63,741.25 1451.44,739.839 1452.92,741.663C1453.87,742.827 1444.73,753.353 1444.32,757.785C1442.96,772.223 1457.66,778.954 1468.46,784.473" style="fill:rgb(255,171,101);"/><g transform="matrix(-1,0,0,1,3464.13,0)"><path d="M2067.3,387.373C2057.37,376.06 2052.84,350.788 2073.02,345.553C2082.43,343.11 2097.07,347.883 2105.45,343.881C2109.76,341.821 2097.46,329.691 2102.54,326.695C2110.5,322.004 2126.22,329.34 2132.39,334.208C2143.36,342.859 2153.56,361.2 2154.55,361.022C2160.98,359.868 2156.45,349.692 2156.92,347.05C2156.95,346.875 2157.16,347.314 2157.28,347.444C2158.6,348.856 2162.62,359.083 2163.18,359.217C2175.4,362.128 2192.36,371.884 2195.77,385.383C2199.66,400.752 2169.43,396.701 2163.52,401.329C2162.1,402.447 2169.57,408.991 2170.21,409.786C2174.24,414.865 2182.34,425.991 2178.92,433.314C2177.08,437.263 2161.15,436.055 2157.45,436.746C2151.09,437.934 2147.06,444.208 2141.48,444.52C2128.83,445.228 2108.66,438.48 2099.01,429.745C2094.3,425.482 2091.97,419.315 2086.2,416.222" style="fill:rgb(32,23,0);"/></g><g transform="matrix(-1,0,0,1,3464.13,0)"><path d="M1980.78,396.867C1977.96,394.212 1991.58,377 1994.05,374.731C2009.99,360.041 2036.82,352.089 2058.13,355.503C2082.17,359.355 2104.44,376.178 2120.44,393.708C2143.77,419.256 2169.23,448.806 2161.91,486.447C2158.5,503.996 2150.12,520.593 2142.08,536.326C2135.57,549.066 2129.38,563.168 2118.11,572.513C2099.97,587.55 2074.53,583.326 2053.28,581.331C2033.39,579.464 2008.89,577.228 1991.15,567.04C1970.15,554.98 1945.35,521.916 1939.41,498.672C1933.08,473.901 1938.23,449.627 1948.88,427.265C1953.91,416.718 1961.28,406.908 1973.4,404.452" style="fill:rgb(57,41,0);"/></g><g transform="matrix(-1,0,0,1,3464.13,0)"><path d="M2008.88,431.633C2003.95,429.285 1992.27,433.083 1987.8,435.297C1966.27,445.944 1961.66,472.483 1959.58,495.12C1958.98,501.667 1959.02,509.11 1960.86,515.466C1962.67,521.691 1968.6,525.679 1972.43,530.584C1982.42,543.368 1993.02,561.168 2009.41,566.596C2023.03,571.103 2038.22,569.646 2052.34,571.057C2068.04,572.627 2084.91,577.887 2098.88,567.652C2118.59,553.215 2135.37,527.557 2142.31,504.293C2144.97,495.346 2147.32,482.991 2142.07,474.322C2139.54,470.155 2134.81,466.943 2131.2,463.762C2128.32,461.216 2125.14,452.534 2121.35,451.667C2120.97,451.581 2120.79,453.165 2120.77,453.298C2120.21,457.793 2121.14,462.44 2122.34,466.75C2125.1,476.609 2128.41,487.893 2126.15,498.195C2120.57,523.582 2092.44,539.489 2069.19,545.155C2049.64,549.919 2036.53,534.718 2024.41,521.435C2016.28,512.524 2009.5,509.524 2008.31,496.641" style="fill:rgb(32,23,0);"/></g><path d="M1343.93,505.62C1343.93,505.62 1346.32,558.19 1357.59,579.618C1368.86,601.047 1394.98,621.435 1407.33,624.865C1419.67,628.295 1457.44,608.855 1467.46,588.934C1477.48,569.012 1485.5,508.9 1484.62,494.402C1483.74,479.904 1481.58,448.193 1479.16,442.877C1476.75,437.56 1462.13,437.837 1455.08,416.158C1455.08,416.158 1434.61,426.418 1422.35,453.898C1410.1,481.377 1402.37,448.566 1377.9,459.395C1369.55,463.09 1372.38,482.271 1367.3,489.302C1357.49,502.883 1343.93,505.62 1343.93,505.62Z" style="fill:rgb(255,199,135);"/><path d="M1285.95,1085.81C1294.98,1060.86 1304.46,1033.54 1305.83,1025.1C1308.53,1008.4 1294.79,961.262 1293.6,937.113C1292.41,912.964 1582.51,894.288 1582.51,894.288C1582.51,894.288 1581.47,906.795 1580.3,923.956C1579.77,924.086 1579.27,924.223 1578.8,924.367C1542.32,935.588 1501.31,926.72 1463.91,932.388C1449.4,934.587 1437.31,954.17 1423.14,958.528C1399.14,965.908 1364.66,939.3 1339.8,945.158C1332.67,946.836 1324.23,945.124 1318.45,950.995C1312.73,956.814 1319.86,1001.06 1325.15,1008.48C1328.27,1012.85 1332.88,1024.25 1325.35,1032C1310.48,1047.28 1306.29,1060.02 1293.91,1077.54C1292.14,1080.04 1289.02,1082.83 1285.95,1085.81Z" style="fill:rgb(255,171,101);"/><g transform="matrix(-1,0,0,1,3959.91,0)"><path d="M2520.83,1017.27C2525.05,1034.67 2514.49,1051.86 2511.86,1068.26C2508.94,1086.49 2518.38,1104.78 2519.44,1122.73C2519.52,1124.09 2519.15,1120 2518.94,1118.65C2518.55,1116.19 2517.96,1113.7 2517.83,1111.22C2517.42,1103.01 2517.11,1094.74 2517.11,1086.51C2517.11,1082.24 2521.1,1077.65 2521.74,1072.96C2522.61,1066.5 2518.76,1060.55 2519.82,1054.36C2521.72,1043.2 2524.81,1028.94 2520.08,1017.75" style="fill:rgb(255,171,101);"/></g><g transform="matrix(-1,0,0,1,3959.91,0)"><path d="M2445.58,1074.86C2458.37,1081.06 2474.31,1074.44 2487.66,1076.02C2490.08,1076.31 2491.75,1078.75 2493.84,1079.75C2496.49,1081.01 2501.42,1080.8 2503.41,1083.34C2504.24,1084.4 2500.67,1085.61 2500.12,1085.88C2496.18,1087.79 2491.24,1087.43 2486.98,1086.86C2482.43,1086.26 2477.98,1087.3 2473.45,1086.85C2467.31,1086.24 2461.57,1082.9 2455.49,1081.6C2448.34,1080.08 2440.45,1079.68 2433.16,1078.5" style="fill:rgb(255,171,101);"/></g><g transform="matrix(-1,0,0,1,3959.91,0)"><path d="M2535.13,1082.02C2550.38,1080.16 2566.1,1078.27 2581.42,1079.98C2585.33,1080.41 2590,1081.45 2593.93,1081.09C2594.32,1081.05 2601.76,1080.56 2601.57,1081.11C2600.31,1084.65 2591.38,1084.8 2588.52,1085.12C2572.72,1086.88 2556.59,1083.13 2540.8,1083.13" style="fill:rgb(255,171,101);"/></g><g transform="matrix(-1,0,0,1,3959.91,0)"><path d="M2534.78,1038.29C2535.5,1037.71 2539.8,1038.44 2540.8,1038.45C2547.45,1038.49 2554.14,1038.24 2560.77,1038.72C2567.89,1039.23 2578.41,1040.41 2578.38,1040.57C2577.82,1042.87 2570.74,1044.76 2568.86,1045.36C2556.93,1049.14 2546.03,1045.71 2535.3,1040.12" style="fill:rgb(255,171,101);"/></g><path d="M1437.5,996.112C1435.19,992.985 1435.9,984.316 1436.86,980.75C1436.94,980.463 1438.09,976.19 1438.28,976.203C1439.97,976.307 1440.32,979.819 1440.55,981.023C1441.42,985.682 1440.43,990.617 1439.42,995.131" style="fill:rgb(255,171,101);"/><g transform="matrix(0.977365,-0.211561,0.211561,0.977365,-183.648,339.262)"><path d="M1460.71,1166.87C1466.47,1163.64 1469.78,1155.86 1474.32,1151.16C1487.21,1137.82 1501.01,1124.81 1515.91,1113.86C1520.77,1110.29 1525.65,1103.7 1531.54,1101.77C1534.08,1100.93 1529.96,1108.39 1529.85,1108.56C1525.97,1114.48 1521.13,1119.34 1516.71,1124.73C1505.92,1137.89 1492.99,1152.63 1479.65,1163.26" style="fill:rgb(255,171,101);"/></g><path d="M1418.53,1155.17C1409.73,1153.61 1405.81,1143.19 1400.24,1137.15C1393.35,1129.69 1379.78,1129.02 1376.21,1122.46C1327.31,1032.7 1356.57,1124.45 1339.56,1116.37C1326.99,1110.41 1310.91,1116.78 1297.63,1107.94C1291.46,1103.83 1300.08,1075.6 1301.62,1069.58C1302.43,1066.44 1302.39,1063.31 1302.64,1060.11C1302.81,1058.03 1305.34,1053.1 1303.42,1053.91C1301.39,1054.77 1299.62,1063.36 1298.8,1065.11C1294.93,1073.42 1292.83,1073.43 1288.29,1081.4C1282.28,1091.95 1262.94,1129.85 1268.65,1142.31C1274.24,1154.48 1296.33,1154.43 1306.79,1156.24C1333.06,1160.79 1358.56,1163.44 1384.47,1170.13C1392.03,1172.08 1402.44,1169.61 1409.29,1172.91" style="fill:rgb(255,171,101);"/><path d="M1380.32,2215.05L1337.26,2211.69C1336.42,2147.86 1303.09,2037.88 1291.27,1937.38C1279.46,1836.88 1299.32,1787.46 1299.32,1787.46C1299.32,1787.46 1290.87,1711.62 1269.55,1643.43C1248.23,1575.25 1197.75,1401.04 1196.23,1343.13C1194.7,1285.22 1220.11,1324.96 1220.11,1324.96L1377.41,1358.1L1378.31,1373.18C1360.27,1399.31 1315.84,1395.87 1304.73,1430.38C1290.76,1473.79 1316.41,1619.24 1324.82,1667C1328.14,1685.89 1337.42,1703.62 1339.98,1722.62C1342,1737.65 1348.84,1755.07 1346.15,1770.5C1344.69,1778.89 1323.72,1771.13 1330.23,1785.93C1336.18,1799.42 1373.46,1822.44 1387.39,1823.88C1393.24,1824.49 1410.07,1805.05 1412.11,1810.18C1418.31,1825.77 1368.86,1845.41 1362.94,1853.6C1352.26,1868.36 1359.57,1905.76 1359.57,1922.9C1359.57,1978.18 1355.13,2034.59 1359.55,2089.69C1362.76,2129.68 1373.91,2168.1 1379.35,2207.62C1379.56,2209.09 1379.92,2211.69 1380.32,2215.05Z" style="fill:rgb(255,171,101);"/><path d="M1528.18,1179.02C1536.86,1177.66 1545.36,1177.16 1554.15,1177.15C1563.44,1177.15 1570.48,1172.15 1579.35,1170.73C1579.67,1170.68 1586.84,1170.47 1586.83,1170.53C1586.55,1176.59 1575.28,1180.64 1571.29,1182.95C1556.71,1191.37 1521.3,1194.4 1510.02,1177.45" style="fill:rgb(187,76,120);"/><path d="M1552.98,1266.22C1551.3,1266.86 1558.35,1264.32 1559.06,1264.04C1562.9,1262.56 1567.4,1261.62 1571.01,1259.66C1572.84,1258.67 1574.62,1257.41 1576.38,1256.26C1577.1,1255.79 1578.55,1254.16 1578.64,1255.02C1579.09,1259.12 1557.15,1271.98 1551.9,1273.63" style="fill:rgb(187,76,120);"/><path d="M1333.07,1266.75C1325.19,1260.21 1319.09,1231.19 1308.09,1228.6C1307.28,1228.41 1303.21,1247.98 1305.25,1254.92C1308.52,1266 1327.11,1274.08 1336.46,1278.38" style="fill:rgb(187,76,120);"/><g transform="matrix(-1,0,0,1,3464.13,0)"><path d="M1786.15,1702.99C1817.95,1500.18 1829.06,1387.82 1839.46,1307.97C1843.11,1280.03 1844.62,1251.77 1848.6,1223.93C1853.11,1192.41 1866.5,1118.88 1866.5,1118.88C1866.5,1118.88 1959.85,1136.97 2027.65,1139.48C2095.45,1141.98 2192.24,1120.52 2192.24,1120.52C2192.24,1120.52 2217.1,1168.21 2241.95,1225.64C2266.81,1283.07 2269.19,1346.07 2269.19,1346.07C2269.19,1346.07 2268.69,1346.4 2267.74,1347.01C2264.23,1408.45 2215.44,1576.71 2194.58,1643.43C2173.26,1711.62 2164.81,1787.46 2164.81,1787.46C2164.81,1787.46 2184.67,1836.88 2172.85,1937.38C2161.04,2037.88 2127.71,2147.86 2126.86,2211.69L2044.6,2218.1C2044.6,2218.1 2036.67,1894.5 2036.54,1852.89C2036.4,1811.29 2035.5,1783.35 2035.95,1708.6C2036.31,1648.61 2042.74,1464.71 2045.26,1394.38C2044.45,1394.46 2044.02,1394.5 2044.02,1394.5C2042.58,1381.15 2044.24,1334.84 2044.24,1334.84C2044.24,1334.84 2038.2,1338.16 2036.14,1348.44C2034.08,1358.71 2027.19,1394.31 2027.19,1394.31C2027.19,1394.31 2027.12,1394.31 2026.99,1394.31C2026.26,1402.16 2024.77,1415.33 2022.02,1429.81C2017.62,1453.01 2002.18,1547.49 1976.14,1607.38C1950.1,1667.28 1922.48,1731.35 1916.78,1767.84C1916.78,1767.84 1953.21,1805.24 1979.64,1930.36C2006.06,2055.49 2018.39,2207.56 2018.39,2207.56L1947.34,2212.23C1947.34,2212.23 1810.44,1852.52 1796.78,1815.22C1783.12,1777.92 1781.75,1731.11 1786.15,1702.99Z" style="fill:rgb(68,174,158);"/></g><g transform="matrix(-1,0,0,1,3464.13,0)"><path d="M1999.98,2208.77C1991.35,2171.71 1985.36,2133.89 1980.21,2096.38C1972.3,2038.81 1975.5,1979.22 1949.97,1924.82C1933.78,1890.31 1920.97,1839.18 1893.93,1811.61C1879.68,1797.09 1833.87,1780.59 1833.72,1776.32C1833.49,1769.49 1889.76,1759.83 1896.87,1738.58C1902.43,1721.97 1875.69,1707.02 1881.4,1687.17C1890.25,1656.46 1922.97,1636 1938.17,1608.62C1956.45,1575.72 1954.99,1536.47 1964.63,1500.91C1969.55,1482.74 1978.63,1464.75 1982.25,1446.36C1991.85,1397.51 1959.23,1342.98 1946.63,1296.79C1942.97,1283.36 1938.07,1271.14 1931.25,1258.97C1928.56,1254.17 1917.06,1246.74 1922.31,1245.11C1930.25,1242.64 1996.84,1301.34 2016.63,1306.14C2037.13,1311.12 2131.8,1289.04 2136.42,1299.09C2140.87,1308.75 2108.77,1317.35 2102.69,1319.23C2091.93,1322.55 2089.1,1340.32 2081.86,1341.91C2074.99,1343.41 2057.52,1324.64 2054.19,1331.79C2044.05,1353.58 2052.62,1406.03 2050.26,1430.6C2048.88,1444.97 2046.01,1459.32 2042.49,1473.64C2043.57,1441.89 2044.57,1413.8 2045.26,1394.38C2044.45,1394.46 2044.02,1394.5 2044.02,1394.5C2042.58,1381.15 2044.24,1334.84 2044.24,1334.84C2044.24,1334.84 2038.2,1338.16 2036.14,1348.44C2034.08,1358.71 2027.19,1394.31 2027.19,1394.31C2027.19,1394.31 2027.12,1394.31 2026.99,1394.31C2026.26,1402.16 2024.77,1415.33 2022.02,1429.81C2017.62,1453.01 2002.18,1547.49 1976.14,1607.38C1950.1,1667.28 1922.48,1731.35 1916.78,1767.84C1916.78,1767.84 1953.21,1805.24 1979.64,1930.36C2006.06,2055.49 2018.39,2207.56 2018.39,2207.56L1999.98,2208.77Z" style="fill:rgb(43,109,99);"/></g><g transform="matrix(-1,0,0,1,3464.13,0)"><path d="M2045.9,1290.92C2046.61,1285.91 2055.96,1282.72 2059.84,1279.92C2072.93,1270.48 2085.88,1260.86 2099.41,1252.07C2109.76,1245.35 2119.7,1237.95 2130.16,1231.42C2130.63,1231.13 2137,1226.1 2137.65,1226.94C2139.74,1229.62 2119.04,1246.15 2115.52,1248.98C2095.34,1265.19 2066.83,1285.67 2041.94,1293.9" style="fill:rgb(43,109,99);"/></g><g transform="matrix(-1,0,0,1,3464.13,0)"><path d="M2202.96,1141.74C2212.52,1161.04 2227.24,1191.63 2241.95,1225.64C2266.81,1283.07 2269.19,1346.07 2269.19,1346.07C2269.19,1346.07 2268.69,1346.4 2267.74,1347.01C2264.23,1408.45 2215.44,1576.71 2194.58,1643.43C2173.26,1711.62 2164.81,1787.46 2164.81,1787.46C2164.81,1787.46 2184.67,1836.88 2172.85,1937.38C2161.04,2037.88 2127.71,2147.86 2126.86,2211.69L2113.98,2212.7C2121.69,2135.84 2127.73,2057.19 2128.39,2051.81C2134.53,2001.87 2139.24,1953.87 2127.01,1904.2C2120.58,1878.07 2125.18,1825.62 2115.86,1807.93C2105.9,1789.02 2068.86,1789.8 2066.12,1780.94C2063.06,1771.03 2075.24,1771.79 2078.43,1765.61C2083.68,1755.43 2084.49,1739.41 2087,1728.2C2096.68,1684.98 2092.05,1643.43 2096.74,1600.06C2101.7,1554.26 2151.22,1463.6 2176.89,1423.54C2189.06,1404.55 2203.56,1387.58 2210.4,1365.7C2217.65,1342.54 2201.18,1306.85 2198.55,1283.74C2195.26,1254.76 2194.42,1206.25 2167.22,1189.71C2113.68,1157.15 2048.25,1178.52 1990.22,1178.29C1979.95,1178.25 1929.45,1177.98 1925.15,1167.07C1924.04,1164.25 1931.22,1166.95 1934.26,1166.95C1942.91,1166.95 1951.56,1166.95 1960.21,1166.95C1984.92,1166.94 2009.35,1163.93 2034.02,1163.67C2057.44,1163.43 2079.86,1157.25 2102.95,1154.61C2127.18,1151.84 2151.69,1152.92 2175.93,1150.47C2185.36,1149.51 2194.12,1144.62 2202.96,1141.74Z" style="fill:rgb(43,109,99);"/></g><path d="M1297.02,705.104L1313.5,695.234C1313.5,695.234 1302.44,763.387 1336.77,778.283C1371.1,793.179 1471.77,796.323 1508.7,763.505C1545.63,730.688 1520.27,691.718 1520.24,659.741L1544.95,661.15C1544.95,661.15 1567.61,733.932 1572.66,752.813C1577.73,771.695 1592.7,794.294 1595.6,825.273C1598.5,856.252 1585.1,878.891 1585.1,878.891L1583.35,903.344C1583.35,903.344 1560.96,924.66 1516.26,925.715C1470,926.806 1444.29,918.49 1426.01,921.363C1407.74,924.236 1303.84,935.833 1303.84,935.833C1303.84,935.833 1291.1,937.269 1288.78,929.787C1286.46,922.305 1289.29,915.113 1286.68,906.242C1284.07,897.371 1258.13,870.494 1263.84,821.27C1269.54,772.045 1297.02,705.104 1297.02,705.104Z" style="fill:rgb(68,174,158);"/><g transform="matrix(-1,0,0,1,3464.13,0)"><path d="M2176.86,731.021C2177.26,737.651 2176.68,744.383 2177.01,750.974C2178.21,774.932 2185,827.852 2164.26,845.358C2150.44,857.019 2126.66,859.186 2109.93,862.481C2094.95,865.43 2084.69,859.231 2070.35,857.754C2061.92,856.886 2053.08,855.005 2044.53,855.956C2035.43,856.969 2026.28,858.922 2017.04,858.039C2006.95,857.076 1996.76,854.646 1986.62,854.329C1968.25,853.753 1949.91,854.986 1931.62,853.171C1920.73,852.089 1908.32,850.059 1897.46,852.076C1895.21,852.496 1887.78,851.873 1887.65,855.141C1887,871.065 1925.25,876.508 1935.81,879.142C1952.72,883.358 1969.14,888.802 1986.63,890.421C2008.36,892.431 2030.24,886.071 2052.03,887.619C2067.39,888.709 2080.52,893.852 2094.58,899.396C2110.3,905.591 2127.18,902.455 2143.29,906.595C2144.61,906.935 2158.62,908.546 2155.57,913.478C2152.46,918.526 2142.24,918.281 2137.42,919.139C2118.69,922.472 2101.69,915.249 2083.26,912.764C2065.58,910.379 2046.16,907.513 2028.29,908.455C2014.56,909.178 1999.99,913.918 1986.2,915.824C1970.7,917.967 1952.27,917.256 1936.63,916.363C1917.39,915.264 1901.41,910.258 1883.05,905.253C1889.78,910.509 1911.4,924.854 1947.87,925.715C1994.13,926.806 2019.84,918.49 2038.11,921.363C2056.39,924.236 2160.29,935.833 2160.29,935.833C2160.29,935.833 2173.03,937.269 2175.35,929.787C2177.67,922.305 2174.84,915.113 2177.45,906.242C2180.05,897.371 2205.99,870.494 2200.29,821.27C2196.83,791.405 2185.35,755.02 2176.86,731.021Z" style="fill:rgb(43,109,99);"/></g></g><g transform="matrix(1,0,0,1,-21.9526,24.6526)"><path d="M3468.77,387.135C3468.77,378.09 3461.44,370.758 3452.39,370.758C3395.85,370.758 3210.26,370.758 3173.4,370.758C3169.29,370.758 3165.33,372.306 3162.3,375.094C3151.98,384.611 3127.02,407.618 3111.51,421.916C3108.13,425.032 3106.22,429.425 3106.24,434.023C3106.25,438.62 3108.2,442.998 3111.61,446.087C3127.14,460.172 3152.03,482.758 3162.32,492.092C3165.34,494.825 3169.26,496.339 3173.33,496.339C3210.01,496.339 3395.81,496.339 3452.39,496.339C3461.44,496.339 3468.77,489.007 3468.77,479.962C3468.77,455.889 3468.77,411.208 3468.77,387.135Z" style="fill:rgb(88,165,224);"/></g><g transform="matrix(0.318473,0,0,0.318473,2226.5,267.727)"><path d="M2863,563.506L2863,544.175C2871.97,543.776 2878.24,543.178 2881.83,542.381C2887.54,541.119 2892.19,538.594 2895.78,534.808C2898.24,532.217 2900.1,528.763 2901.36,524.445C2902.09,521.854 2902.46,519.927 2902.46,518.665L2926.07,518.665L2926.07,663.153L2896.98,663.153L2896.98,563.506L2863,563.506Z" style="fill:rgb(199,225,245);fill-rule:nonzero;"/><path d="M3018.05,643.622C3024.56,643.622 3029.66,641.662 3033.34,637.743C3037.03,633.824 3038.87,628.31 3038.87,621.202C3038.87,613.828 3037,608.231 3033.24,604.411C3029.49,600.591 3024.43,598.682 3018.05,598.682C3011.67,598.682 3006.61,600.591 3002.85,604.411C2999.1,608.231 2997.22,613.828 2997.22,621.202C2997.22,628.31 2999.07,633.824 3002.75,637.743C3006.44,641.662 3011.54,643.622 3018.05,643.622ZM2989.45,586.226C2982.47,581.575 2977.94,576.543 2975.85,571.129C2973.76,565.715 2972.71,560.65 2972.71,555.933C2972.71,545.437 2976.66,536.485 2984.57,529.078C2992.47,521.671 3003.63,517.968 3018.05,517.968C3032.46,517.968 3043.62,521.671 3051.53,529.078C3059.43,536.485 3063.39,545.437 3063.39,555.933C3063.39,560.65 3062.34,565.715 3060.25,571.129C3058.16,576.543 3053.62,581.243 3046.65,585.229C3053.76,589.215 3059.1,594.496 3062.69,601.073C3066.28,607.65 3068.07,614.99 3068.07,623.095C3068.07,635.252 3063.57,645.599 3054.57,654.135C3045.57,662.671 3032.99,666.94 3016.85,666.94C3000.71,666.94 2988.49,662.671 2980.18,654.135C2971.88,645.599 2967.73,635.252 2967.73,623.095C2967.73,614.99 2969.57,607.65 2973.26,601.073C2976.94,594.496 2982.34,589.547 2989.45,586.226ZM3018.05,576.959C3023.83,576.959 3028.3,575.298 3031.45,571.976C3034.61,568.655 3036.18,564.37 3036.18,559.122C3036.18,553.409 3034.61,548.941 3031.45,545.719C3028.3,542.497 3023.83,540.886 3018.05,540.886C3012.34,540.886 3007.87,542.497 3004.64,545.719C3001.42,548.941 2999.81,553.409 2999.81,559.122C2999.81,564.37 3001.42,568.655 3004.64,571.976C3007.87,575.298 3012.34,576.959 3018.05,576.959Z" style="fill:rgb(199,225,245);fill-rule:nonzero;"/><path d="M3088.9,634.754C3092.95,625.121 3102.51,614.924 3117.6,604.162C3130.68,594.795 3139.15,588.086 3143.01,584.033C3148.92,577.722 3151.87,570.814 3151.87,563.307C3151.87,557.195 3150.18,552.113 3146.79,548.061C3143.4,544.009 3138.55,541.982 3132.24,541.982C3123.61,541.982 3117.73,545.204 3114.61,551.648C3112.81,555.368 3111.75,561.281 3111.42,569.385L3083.82,569.385C3084.28,557.096 3086.51,547.164 3090.49,539.591C3098.06,525.175 3111.52,517.968 3130.85,517.968C3146.13,517.968 3158.28,522.203 3167.32,530.673C3176.35,539.143 3180.87,550.353 3180.87,564.303C3180.87,574.999 3177.68,584.498 3171.31,592.802C3167.12,598.316 3160.24,604.461 3150.68,611.237L3139.32,619.308C3132.21,624.357 3127.34,628.011 3124.72,630.27C3122.1,632.528 3119.89,635.152 3118.09,638.142L3181.17,638.142L3181.17,663.153L3082.22,663.153C3082.49,652.79 3084.71,643.323 3088.9,634.754Z" style="fill:rgb(199,225,245);fill-rule:nonzero;"/><rect x="3202.1" y="633.458" width="30.193" height="29.695" style="fill:rgb(199,225,245);fill-rule:nonzero;"/><path d="M3301.74,643.622C3308.25,643.622 3313.35,641.662 3317.04,637.743C3320.72,633.824 3322.57,628.31 3322.57,621.202C3322.57,613.828 3320.69,608.231 3316.94,604.411C3313.18,600.591 3308.12,598.682 3301.74,598.682C3295.37,598.682 3290.3,600.591 3286.55,604.411C3282.79,608.231 3280.92,613.828 3280.92,621.202C3280.92,628.31 3282.76,633.824 3286.45,637.743C3290.13,641.662 3295.23,643.622 3301.74,643.622ZM3273.14,586.226C3266.17,581.575 3261.64,576.543 3259.54,571.129C3257.45,565.715 3256.4,560.65 3256.4,555.933C3256.4,545.437 3260.36,536.485 3268.26,529.078C3276.17,521.671 3287.33,517.968 3301.74,517.968C3316.16,517.968 3327.32,521.671 3335.22,529.078C3343.13,536.485 3347.08,545.437 3347.08,555.933C3347.08,560.65 3346.03,565.715 3343.94,571.129C3341.85,576.543 3337.32,581.243 3330.34,585.229C3337.45,589.215 3342.8,594.496 3346.38,601.073C3349.97,607.65 3351.76,614.99 3351.76,623.095C3351.76,635.252 3347.26,645.599 3338.26,654.135C3329.26,662.671 3316.69,666.94 3300.55,666.94C3284.4,666.94 3272.18,662.671 3263.88,654.135C3255.57,645.599 3251.42,635.252 3251.42,623.095C3251.42,614.99 3253.26,607.65 3256.95,601.073C3260.64,594.496 3266.04,589.547 3273.14,586.226ZM3301.74,576.959C3307.52,576.959 3311.99,575.298 3315.14,571.976C3318.3,568.655 3319.88,564.37 3319.88,559.122C3319.88,553.409 3318.3,548.941 3315.14,545.719C3311.99,542.497 3307.52,540.886 3301.74,540.886C3296.03,540.886 3291.56,542.497 3288.34,545.719C3285.12,548.941 3283.51,553.409 3283.51,559.122C3283.51,564.37 3285.12,568.655 3288.34,571.976C3291.56,575.298 3296.03,576.959 3301.74,576.959Z" style="fill:rgb(199,225,245);fill-rule:nonzero;"/><path d="M3415.24,643.622C3421.75,643.622 3426.85,641.662 3430.54,637.743C3434.22,633.824 3436.07,628.31 3436.07,621.202C3436.07,613.828 3434.19,608.231 3430.44,604.411C3426.68,600.591 3421.62,598.682 3415.24,598.682C3408.86,598.682 3403.8,600.591 3400.04,604.411C3396.29,608.231 3394.41,613.828 3394.41,621.202C3394.41,628.31 3396.26,633.824 3399.94,637.743C3403.63,641.662 3408.73,643.622 3415.24,643.622ZM3386.64,586.226C3379.67,581.575 3375.13,576.543 3373.04,571.129C3370.95,565.715 3369.9,560.65 3369.9,555.933C3369.9,545.437 3373.85,536.485 3381.76,529.078C3389.66,521.671 3400.82,517.968 3415.24,517.968C3429.66,517.968 3440.82,521.671 3448.72,529.078C3456.63,536.485 3460.58,545.437 3460.58,555.933C3460.58,560.65 3459.53,565.715 3457.44,571.129C3455.35,576.543 3450.81,581.243 3443.84,585.229C3450.95,589.215 3456.29,594.496 3459.88,601.073C3463.47,607.65 3465.26,614.99 3465.26,623.095C3465.26,635.252 3460.76,645.599 3451.76,654.135C3442.76,662.671 3430.19,666.94 3414.04,666.94C3397.9,666.94 3385.68,662.671 3377.37,654.135C3369.07,645.599 3364.92,635.252 3364.92,623.095C3364.92,614.99 3366.76,607.65 3370.45,601.073C3374.14,594.496 3379.53,589.547 3386.64,586.226ZM3415.24,576.959C3421.02,576.959 3425.49,575.298 3428.64,571.976C3431.8,568.655 3433.38,564.37 3433.38,559.122C3433.38,553.409 3431.8,548.941 3428.64,545.719C3425.49,542.497 3421.02,540.886 3415.24,540.886C3409.53,540.886 3405.06,542.497 3401.84,545.719C3398.62,548.941 3397.01,553.409 3397.01,559.122C3397.01,564.37 3398.62,568.655 3401.84,571.976C3405.06,575.298 3409.53,576.959 3415.24,576.959Z" style="fill:rgb(199,225,245);fill-rule:nonzero;"/><path d="M3551.16,593.5C3550.63,589.448 3549.26,585.794 3547.07,582.539C3543.88,578.154 3538.93,575.962 3532.22,575.962C3522.66,575.962 3516.12,580.712 3512.6,590.212C3510.74,595.26 3509.81,601.97 3509.81,610.34C3509.81,618.312 3510.74,624.723 3512.6,629.572C3515.98,638.607 3522.36,643.124 3531.73,643.124C3538.37,643.124 3543.09,641.33 3545.88,637.743C3548.67,634.156 3550.36,629.506 3550.96,623.792L3579.96,623.792C3579.29,632.429 3576.17,640.6 3570.59,648.306C3561.69,660.728 3548.5,666.94 3531.03,666.94C3513.56,666.94 3500.7,661.758 3492.47,651.395C3484.23,641.031 3480.11,627.579 3480.11,611.038C3480.11,592.371 3484.66,577.855 3493.76,567.492C3502.86,557.129 3515.42,551.947 3531.43,551.947C3545.05,551.947 3556.19,555.003 3564.86,561.115C3573.53,567.226 3578.66,578.021 3580.26,593.5L3551.16,593.5Z" style="fill:rgb(199,225,245);fill-rule:nonzero;"/><path d="M3747.96,564.702C3751.02,568.489 3753.08,573.139 3754.14,578.652C3754.8,582.306 3755.14,587.654 3755.14,594.696L3754.94,663.153L3725.84,663.153L3725.84,593.998C3725.84,589.879 3725.18,586.491 3723.85,583.834C3721.32,578.785 3716.67,576.261 3709.9,576.261C3702.06,576.261 3696.64,579.516 3693.65,586.026C3692.12,589.481 3691.36,593.633 3691.36,598.482L3691.36,663.153L3662.76,663.153L3662.76,598.482C3662.76,592.038 3662.1,587.355 3660.77,584.432C3658.38,579.184 3653.7,576.56 3646.72,576.56C3638.62,576.56 3633.17,579.184 3630.38,584.432C3628.85,587.421 3628.09,591.872 3628.09,597.785L3628.09,663.153L3599.29,663.153L3599.29,554.737L3626.89,554.737L3626.89,570.581C3630.41,564.934 3633.73,560.915 3636.85,558.524C3642.37,554.272 3649.51,552.146 3658.28,552.146C3666.58,552.146 3673.29,553.973 3678.41,557.627C3682.53,561.015 3685.65,565.366 3687.77,570.681C3691.49,564.303 3696.11,559.62 3701.62,556.631C3707.47,553.641 3713.98,552.146 3721.16,552.146C3725.94,552.146 3730.66,553.076 3735.31,554.937C3739.96,556.797 3744.17,560.052 3747.96,564.702Z" style="fill:rgb(199,225,245);fill-rule:nonzero;"/></g></g><g transform="matrix(1,0,0,1,58.891,0)"><path d="M1448.74,382.084C1439.14,353.19 1361.33,368.517 1348.08,386.454C1326.72,415.383 1309.07,474.832 1296.02,509.316C1284.53,539.635 1264.37,568.332 1256.66,599.779C1250.08,626.612 1252.18,654.657 1255.1,681.784C1257.76,706.583 1264.28,729.494 1269.55,753.74C1271.27,761.706 1271.37,773.924 1280.08,777.901C1301.16,787.533 1381.35,772.618 1405.27,769.62C1449.12,764.125 1499.06,758.519 1540.76,742.88C1556.68,736.909 1576.15,730.664 1585.07,714.78C1588.13,709.348 1591.71,700.423 1591.19,694.137C1590.36,684.179 1583.45,671.358 1579.95,661.994C1571.79,640.166 1564.7,617.322 1557.4,595.158C1534.05,524.35 1558.32,388.637 1456.38,375.113" style="fill:rgb(81,30,18);"/><path d="M1340.88,502.261C1341.22,527.289 1333.5,550.031 1326.41,573.833C1306.4,641.01 1280.99,707.154 1304.24,776.385C1308.13,787.954 1309.64,801.623 1317.61,811.432C1331.74,828.818 1366.68,831.233 1386.87,833.748C1399.85,835.365 1412.54,842.726 1425.69,842.252C1434.39,841.938 1442.28,836.246 1450.92,836.572C1493.85,838.192 1494.27,835.456 1529.45,810.692C1545.29,799.538 1573.14,789.395 1575.56,767.225C1578.22,742.87 1568.29,722.257 1562.53,699.268C1548.19,642.071 1523.17,588.454 1506.39,532.279C1497.94,503.976 1495.84,475.031 1488.06,446.933C1486.12,439.922 1466.24,432.006 1461.06,435.892C1452.94,441.982 1450.56,454.121 1448.08,463.195C1445.4,473.009 1444.05,482.858 1442.67,492.908C1440.65,507.601 1438.31,522.335 1435.6,536.915C1430.83,562.609 1422.9,587.018 1421.24,613.252" style="fill:rgb(48,9,0);"/><path d="M1315.16,530.488C1309.25,545.979 1304.96,562.786 1297.73,577.673C1280.84,612.394 1261.87,646.878 1261.84,686.677C1261.83,700.224 1261.69,724.543 1271.66,736.023C1272.52,737.008 1271.49,733.416 1271.4,732.114C1271.2,729.269 1271.47,729.462 1271.31,726.818C1270.92,720.239 1270.11,713.71 1269.81,707.126C1268.97,688.411 1267.18,667.61 1271.14,649.169C1275.88,627.138 1296.25,614.575 1303.57,594.212C1308.02,581.829 1307.65,568.397 1310.55,555.639C1316.02,531.521 1325.04,504.48 1338.31,483.584" style="fill:rgb(48,9,0);"/><path d="M1295.4,623.641C1290.73,631.258 1290.52,639.08 1288.86,647.685C1285.18,666.84 1283.11,685.809 1282.29,705.233C1281.9,714.543 1281.83,723.972 1281.16,733.256C1280.9,736.807 1280.78,740.288 1280.78,743.859C1280.78,745.121 1280.78,746.383 1280.78,747.646C1280.78,748.151 1280.78,749.665 1280.78,749.16C1280.77,707.34 1292.76,666.573 1292.89,624.952" style="fill:rgb(48,9,0);"/><path d="M1482.11,411.109C1483.34,426.654 1492.26,438.523 1495.99,453.451C1503.13,482.006 1500.97,512.423 1507.85,540.896C1513.51,564.319 1526.71,586.078 1536.46,607.976C1545.14,627.491 1553.31,648.149 1559.63,668.537C1561.81,675.546 1563.45,682.639 1566.4,689.384C1567.41,691.697 1568.68,693.936 1569.79,696.206C1570.41,697.475 1571.48,701.382 1571.7,699.988C1572.44,695.314 1569.76,688.166 1568.79,683.618C1566.73,673.987 1565.91,664.25 1562.72,654.84C1558.23,641.581 1549.93,629.45 1545.02,616.181C1538.69,599.093 1534.66,580.693 1529.37,563.204C1525.65,550.885 1519.54,539.434 1516.17,526.834C1511.65,509.909 1511.39,491.064 1505.9,474.591C1500.76,459.193 1498.98,442.305 1493.07,427.241C1490.39,420.404 1484.55,412.132 1484.17,404.934" style="fill:rgb(48,9,0);"/><path d="M1514.46,473.131C1515.54,483.331 1518.58,493.151 1519.27,503.398C1520.65,523.904 1518.61,545.776 1524.74,565.555C1526.7,571.876 1530.21,577.607 1532.65,583.748C1532.79,584.084 1534.44,589.519 1534.88,589.451C1535.69,589.326 1534.55,587.842 1534.33,587.054C1533.57,584.405 1532.79,581.844 1532.35,579.12C1531.11,571.459 1530.05,563.8 1529.97,556.031C1529.78,539.532 1529.21,523.496 1524.43,507.543C1521.88,499.033 1517.6,490.171 1516.12,481.407C1514.59,472.32 1514.03,463.157 1512.3,454.151" style="fill:rgb(48,9,0);"/><path d="M1299.76,704.719C1274.23,724.858 1247.51,734.818 1227.22,763.936C1206.92,793.054 1213.92,821.379 1216.84,855.928C1219.77,890.477 1226.52,1062.13 1226.52,1062.13C1226.52,1062.13 1195.58,1127.46 1190.94,1187.57C1186.3,1247.68 1220.07,1390.94 1217.63,1396.92C1215.2,1402.9 1312.46,1172.83 1312.46,1172.83L1330.7,854.081C1330.7,854.081 1325.29,684.58 1299.76,704.719Z" style="fill:rgb(255,199,135);"/><path d="M1293.95,729.133C1274.52,772.146 1243.79,825.058 1249.72,874.493C1254.13,911.183 1257.94,947.835 1263.51,984.446C1266.34,1003.05 1276.24,1024.21 1272.9,1043.39C1271.64,1050.67 1246.67,1053.16 1241.02,1055.5C1240.99,1055.51 1238.16,1056.42 1238.18,1056.69C1238.99,1070.28 1283.96,1053.7 1282.2,1066.57C1279.86,1083.59 1253.31,1119.19 1244.39,1136.27C1228.33,1167.02 1219,1202.32 1212.16,1236.14C1210.52,1244.29 1204.71,1294.59 1209.52,1296.37C1219.19,1299.97 1230.02,1281.08 1234.97,1275.56C1259.69,1248.01 1281.99,1214.16 1297.49,1180.35C1313.44,1145.55 1319.31,1105.82 1326.31,1068.54C1338.28,1004.83 1354.56,934.374 1344.57,869.188C1342.44,855.285 1337.18,842.399 1334.18,828.746C1331.22,815.25 1330.23,795.797 1323.24,783.578" style="fill:rgb(255,171,101);"/><path d="M1582.51,894.288C1582.51,894.288 1577.11,959.275 1577.02,996.283C1576.92,1033.29 1591.44,1077.81 1593.66,1092.05C1595.89,1106.3 1597.68,1141.82 1597.68,1141.82C1597.68,1141.82 1530.49,1185.44 1458.95,1175.58C1387.41,1165.72 1268.67,1132.43 1268.67,1132.43C1268.67,1132.43 1303.12,1041.8 1305.83,1025.1C1308.53,1008.4 1294.79,961.262 1293.6,937.113C1292.41,912.964 1582.51,894.288 1582.51,894.288Z" style="fill:rgb(255,199,135);"/><path d="M1310.91,698.631C1310.91,698.631 1351.31,677.782 1358.42,672.177C1365.54,666.573 1369.99,667.328 1370.2,661.436C1370.41,655.543 1370.79,596.499 1370.79,596.499L1457.17,585.969C1457.17,585.969 1457.7,639.178 1459.34,646.024C1460.98,652.871 1463.18,652.943 1470.85,654.024C1478.53,655.105 1523.94,661.077 1523.94,661.077L1522.84,758.552L1443.04,813.575L1326.7,770.695L1304.44,719.998L1310.91,698.631Z" style="fill:rgb(255,199,135);"/><path d="M1370.64,618.072C1370.73,606.169 1370.79,596.499 1370.79,596.499L1457.17,585.969C1457.17,585.969 1457.25,594.259 1457.45,604.714C1450.5,617.083 1442.96,629.212 1437.42,642.225C1435.59,646.541 1431.41,663.192 1425.2,664.309C1422.73,664.753 1416.87,659.456 1414.61,658.13C1401.7,650.555 1393.91,636.776 1383.82,626.284C1381.83,624.215 1376.2,614.557 1373.34,615.324C1372.22,615.623 1371.34,616.652 1370.64,618.072Z" style="fill:rgb(255,171,101);"/><path d="M1296.95,711.528C1305.43,719.705 1314.37,713.716 1322.73,709.798C1331.78,705.556 1343.66,702.108 1353.58,700.704C1364.65,699.135 1376.48,698.768 1387.68,698.764C1388.79,698.763 1397.55,699.201 1397.49,697.326C1397.31,691.097 1392.47,680.535 1390.18,674.681C1385.71,663.241 1375.2,641.918 1374.92,630.15C1374.77,624.25 1374.86,618.235 1377.13,612.686C1377.26,612.379 1378.74,607.525 1379.51,607.823C1382.87,609.122 1383.08,623.564 1383.95,626.618C1388.48,642.494 1393.11,654.047 1401.3,668.249C1407.24,678.554 1429.52,713.197 1426.93,713.822C1420.1,715.472 1403.3,716.539 1393.37,716.539C1383.99,716.538 1375.44,720.609 1366.35,720.777C1353.88,721.007 1342.39,719.089 1330.08,717.717C1320.67,716.666 1310.78,718.671 1301.3,718.672" style="fill:rgb(255,171,101);"/><path d="M1529.67,682.963C1526.19,683.342 1514,688.709 1509.24,690.017C1499.28,692.751 1489.16,691.948 1479.04,693.319C1470.15,694.523 1462.49,695.161 1454.1,698.463C1453.59,698.664 1447.89,699.92 1448.21,700.902C1450.11,706.676 1468.2,706.504 1473.01,707.242C1483.06,708.786 1494.78,712.083 1505,710.851C1514.63,709.69 1524.12,701.793 1532.46,697.325C1534.79,696.078 1538.34,696.529 1540.31,695.241" style="fill:rgb(255,171,101);"/><path d="M1436.68,686.021C1437.17,675.5 1441.56,665.398 1444.7,655.355C1444.85,654.877 1446.85,646.396 1447.47,646.433C1448.65,646.502 1448.85,648.87 1449,649.73C1449.89,654.877 1448.42,660.263 1447.89,665.356C1446.95,674.315 1449.16,697.417 1438.42,703.012C1434,705.312 1434.28,694.079 1435.81,689.484" style="fill:rgb(255,171,101);"/><path d="M1426.71,785.29C1424.69,777.184 1424.81,767.134 1418.02,760.797C1414.22,757.251 1401.42,754.786 1402.3,747.822C1402.54,745.917 1411.06,745.566 1412.57,745.699C1422.37,746.559 1433,742.626 1442.79,741.468C1444.63,741.25 1451.44,739.839 1452.92,741.663C1453.87,742.827 1444.73,753.353 1444.32,757.785C1442.96,772.223 1457.66,778.954 1468.46,784.473" style="fill:rgb(255,171,101);"/><path d="M1343.93,505.62C1343.93,505.62 1346.32,558.19 1357.59,579.618C1368.86,601.047 1394.98,621.435 1407.33,624.865C1419.67,628.295 1457.44,608.855 1467.46,588.934C1477.48,569.012 1485.5,508.9 1484.62,494.402C1483.74,479.904 1481.58,448.193 1479.16,442.877C1476.75,437.56 1462.13,437.837 1455.08,416.158C1455.08,416.158 1434.61,426.418 1422.35,453.898C1410.1,481.377 1411.18,490.648 1386.7,501.478C1362.23,512.307 1343.93,505.62 1343.93,505.62Z" style="fill:rgb(255,199,135);"/><path d="M1343.93,505.62C1343.93,505.62 1346.32,558.19 1357.59,579.618C1368.86,601.047 1394.98,621.435 1407.33,624.865C1419.67,628.295 1457.44,608.855 1467.46,588.934C1477.48,569.012 1485.5,508.9 1484.62,494.402C1483.74,479.904 1481.58,448.193 1479.16,442.877C1476.75,437.56 1462.13,437.837 1455.08,416.158C1455.08,416.158 1434.61,426.418 1422.35,453.898C1410.1,481.377 1411.18,490.648 1386.7,501.478C1362.23,512.307 1343.93,505.62 1343.93,505.62Z" style="fill:rgb(255,199,135);"/><path d="M1351.56,562.603C1356.03,575.703 1364.66,586.737 1371.5,598.768C1366,592.8 1361.08,586.259 1357.59,579.618C1355.2,575.08 1353.21,569.144 1351.56,562.603ZM1440.11,427.775C1439.4,430.16 1438.87,432.163 1438.55,433.169C1431.53,455.727 1431.4,480.949 1419.66,501.584C1412.06,514.943 1393.53,526.038 1378.44,527.747C1370.09,528.694 1352.39,525.685 1348.58,536.045C1347.75,538.288 1347.66,541.176 1347.88,544.123C1344.79,524.425 1343.93,505.62 1343.93,505.62C1343.93,505.62 1362.23,512.307 1386.7,501.478C1411.18,490.648 1410.1,481.377 1422.35,453.898C1427.53,442.296 1434.16,433.763 1440.11,427.775ZM1451.79,418.124C1452.31,419.15 1452.82,420.189 1453.33,421.232L1461.68,428.99C1464.01,431.945 1466.49,434.03 1468.83,435.634L1480.06,446.068C1480.26,446.998 1480.44,448.069 1480.63,449.257C1470.08,446.51 1461.19,436.791 1456.34,427.374C1455.3,425.355 1454.32,423.285 1453.33,421.232L1450.74,418.829C1451.11,418.575 1451.46,418.34 1451.79,418.124Z" style="fill:rgb(255,171,101);"/><path d="M1285.95,1085.81C1294.98,1060.86 1304.46,1033.54 1305.83,1025.1C1308.53,1008.4 1294.79,961.262 1293.6,937.113C1292.41,912.964 1582.51,894.288 1582.51,894.288C1582.51,894.288 1581.47,906.795 1580.3,923.956C1579.77,924.086 1579.27,924.223 1578.8,924.367C1542.32,935.588 1503.45,937.884 1466.05,943.552C1451.54,945.751 1442.65,963.83 1428.49,968.188C1404.49,975.567 1378.18,966.605 1353.32,972.463C1346.19,974.141 1337.75,972.429 1331.97,978.299C1326.25,984.119 1319.86,1001.06 1325.15,1008.48C1328.27,1012.85 1339.83,1018.08 1332.29,1025.82C1317.42,1041.1 1306.29,1060.02 1293.91,1077.54C1292.14,1080.04 1289.02,1082.83 1285.95,1085.81Z" style="fill:rgb(255,171,101);"/><path d="M1436.76,1010.86C1436.92,1017.59 1435.5,1025.54 1437.2,1032.04C1439.45,1040.6 1444.55,1049.04 1445.83,1057.63C1447.48,1068.59 1444.86,1078.05 1442.96,1088.45C1442.1,1093.22 1441.25,1098.19 1441.24,1103.05C1441.23,1104.73 1441.12,1106.34 1441.02,1108.01C1440.96,1108.97 1441.9,1111.14 1440.98,1110.88C1440.37,1110.71 1440.47,1106.8 1440.46,1106.44C1440.4,1100.97 1440.98,1095.5 1440.98,1089.99C1440.98,1085.41 1441.53,1078.92 1440.32,1074.57C1439.38,1071.2 1436.63,1068.62 1436.34,1064.92C1435.93,1059.73 1439.72,1056.58 1439.81,1053.16C1439.85,1051.45 1438.42,1049.9 1438.2,1048.21C1437.45,1042.29 1436.58,1035.87 1436.54,1029.94" style="fill:rgb(255,171,101);"/><path d="M1437.5,996.112C1435.19,992.985 1435.9,984.316 1436.86,980.75C1436.94,980.463 1438.09,976.19 1438.28,976.203C1439.97,976.307 1440.32,979.819 1440.55,981.023C1441.42,985.682 1440.43,990.617 1439.42,995.131" style="fill:rgb(255,171,101);"/><g transform="matrix(1,0,0,1,0.354062,41.8748)"><path d="M1392.17,1030.13C1399.49,1033.67 1407.9,1030.56 1415.05,1027.93C1418.34,1026.72 1422.6,1024.3 1426.26,1025.34C1427.82,1025.79 1429.15,1029.31 1427.43,1030.29C1425.09,1031.61 1421.8,1031.82 1419.18,1032.57C1413.08,1034.3 1402.99,1037.56 1396.49,1035.85C1395.04,1035.47 1393.84,1034.47 1392.31,1034.33" style="fill:rgb(255,171,101);"/></g><g transform="matrix(1,0,0,1,-4.45038,36.2307)"><path d="M1466.88,1026.72C1472,1032.96 1492.23,1024.96 1498.86,1022.73C1500.79,1022.08 1507.29,1018.26 1509.05,1021.06C1511.07,1024.27 1506.16,1026.46 1504.14,1027.58C1497.53,1031.2 1488.09,1036.87 1480.18,1033.58" style="fill:rgb(255,171,101);"/></g><path d="M1460.71,1166.87C1466.47,1163.64 1469.78,1155.86 1474.32,1151.16C1487.21,1137.82 1501.01,1124.81 1515.91,1113.86C1520.77,1110.29 1525.65,1103.7 1531.54,1101.77C1534.08,1100.93 1529.96,1108.39 1529.85,1108.56C1525.97,1114.48 1521.13,1119.34 1516.71,1124.73C1505.92,1137.89 1492.99,1152.63 1479.65,1163.26" style="fill:rgb(255,171,101);"/><path d="M1418.53,1155.17C1409.73,1153.61 1405.92,1143.08 1400.24,1137.15C1386.1,1122.41 1370.62,1106.59 1352.05,1097.77C1339.49,1091.8 1310.91,1116.78 1297.63,1107.94C1291.46,1103.83 1300.08,1075.6 1301.62,1069.58C1302.43,1066.44 1302.39,1063.31 1302.64,1060.11C1302.81,1058.03 1305.34,1053.1 1303.42,1053.91C1301.39,1054.77 1299.62,1063.36 1298.8,1065.11C1294.93,1073.42 1292.83,1073.43 1288.29,1081.4C1282.28,1091.95 1262.94,1129.85 1268.65,1142.31C1274.24,1154.48 1296.33,1154.43 1306.79,1156.24C1333.06,1160.79 1358.56,1163.44 1384.47,1170.13C1392.03,1172.08 1402.44,1169.61 1409.29,1172.91" style="fill:rgb(255,171,101);"/><path d="M1196.23,1343.13C1197.75,1401.04 1248.23,1575.25 1269.55,1643.43C1290.87,1711.62 1299.32,1787.46 1299.32,1787.46C1299.32,1787.46 1279.46,1836.88 1291.27,1937.38C1303.09,2037.88 1336.42,2147.86 1337.26,2211.69L1419.52,2218.1C1419.52,2218.1 1427.45,1894.5 1427.59,1852.89C1427.73,1811.29 1428.63,1783.35 1428.18,1708.6C1427.73,1633.84 1417.86,1366.62 1417.86,1366.62L1220.11,1324.96C1220.11,1324.96 1194.7,1285.22 1196.23,1343.13Z" style="fill:rgb(255,199,135);"/><path d="M1380.32,2215.05L1337.26,2211.69C1336.42,2147.86 1303.09,2037.88 1291.27,1937.38C1279.46,1836.88 1299.32,1787.46 1299.32,1787.46C1299.32,1787.46 1290.87,1711.62 1269.55,1643.43C1248.23,1575.25 1197.75,1401.04 1196.23,1343.13C1194.7,1285.22 1220.11,1324.96 1220.11,1324.96L1377.41,1358.1L1378.31,1373.18C1360.27,1399.31 1315.84,1395.87 1304.73,1430.38C1290.76,1473.79 1316.41,1619.24 1324.82,1667C1328.14,1685.89 1337.42,1703.62 1339.98,1722.62C1342,1737.65 1348.84,1755.07 1346.15,1770.5C1344.69,1778.89 1323.72,1771.13 1330.23,1785.93C1336.18,1799.42 1373.46,1822.44 1387.39,1823.88C1393.24,1824.49 1410.07,1805.05 1412.11,1810.18C1418.31,1825.77 1368.86,1845.41 1362.94,1853.6C1352.26,1868.36 1359.57,1905.76 1359.57,1922.9C1359.57,1978.18 1355.13,2034.59 1359.55,2089.69C1362.76,2129.68 1373.91,2168.1 1379.35,2207.62C1379.56,2209.09 1379.92,2211.69 1380.32,2215.05Z" style="fill:rgb(255,171,101);"/><path d="M1271.88,1120.52C1271.88,1120.52 1373.75,1149.47 1441.55,1146.96C1509.35,1144.46 1610.04,1128.39 1610.04,1128.39L1643.85,1301.54C1643.85,1301.54 1576.11,1364.36 1539.49,1379.37C1502.87,1394.37 1436.94,1394.31 1436.94,1394.31C1436.94,1394.31 1430.04,1358.71 1427.99,1348.44C1425.93,1338.16 1419.89,1334.84 1419.89,1334.84C1419.89,1334.84 1421.55,1381.15 1420.11,1394.5C1420.11,1394.5 1356.05,1387.9 1301.81,1384.65C1247.56,1381.41 1194.93,1346.07 1194.93,1346.07C1194.93,1346.07 1197.32,1283.07 1222.17,1225.64C1247.02,1168.21 1271.88,1120.52 1271.88,1120.52Z" style="fill:rgb(236,97,152);"/><path d="M1264.11,1135.84C1266.8,1137.2 1269.38,1138.5 1271.65,1139.79C1298.91,1155.36 1328.66,1169.72 1360.59,1173.83C1394.38,1178.17 1432.3,1173.97 1465.01,1183.85C1467.14,1184.5 1461.24,1186.32 1459.13,1187.03C1450.29,1190.03 1438.8,1189.2 1429.54,1189.54C1404.69,1190.45 1379.62,1180.15 1355.74,1181.99C1345.51,1182.78 1327.95,1184.57 1319.96,1191.46C1303.83,1205.36 1244.75,1291.51 1248.42,1314.25C1255.25,1356.63 1368.07,1387.55 1388.93,1361.65C1393.06,1356.51 1397.61,1328.82 1393.02,1321.71C1386.87,1312.2 1371.55,1310.81 1364.46,1301.47C1363.07,1299.64 1343.25,1278.86 1345.13,1277.53C1348.98,1274.83 1367.45,1291.97 1371.37,1294.06C1386.58,1302.18 1402.22,1301.43 1419.04,1297.37C1455.3,1288.64 1492.84,1282.27 1529.3,1274.48C1529.65,1274.41 1534.64,1272.84 1535,1273.26C1535.73,1274.12 1526.88,1280.15 1526.08,1280.66C1508,1292.08 1470.83,1298.9 1465.51,1322.94C1463.11,1333.76 1473.45,1342.05 1476.59,1351.84C1480.31,1363.43 1482.98,1377.13 1484.1,1391.51C1458.66,1394.33 1436.94,1394.31 1436.94,1394.31C1436.94,1394.31 1430.04,1358.71 1427.99,1348.44C1425.93,1338.16 1419.89,1334.84 1419.89,1334.84C1419.89,1334.84 1421.55,1381.15 1420.11,1394.5C1420.11,1394.5 1356.05,1387.9 1301.81,1384.65C1247.56,1381.41 1194.93,1346.07 1194.93,1346.07C1194.93,1346.07 1197.32,1283.07 1222.17,1225.64C1238.5,1187.92 1254.82,1154.4 1264.11,1135.84Z" style="fill:rgb(187,76,120);"/><path d="M1528.18,1179.02C1536.86,1177.66 1545.36,1177.16 1554.15,1177.15C1563.44,1177.15 1570.48,1172.15 1579.35,1170.73C1579.67,1170.68 1586.84,1170.47 1586.83,1170.53C1586.55,1176.59 1575.28,1180.64 1571.29,1182.95C1556.71,1191.37 1521.3,1194.4 1510.02,1177.45" style="fill:rgb(187,76,120);"/><path d="M1552.98,1266.22C1551.3,1266.86 1558.35,1264.32 1559.06,1264.04C1562.9,1262.56 1567.4,1261.62 1571.01,1259.66C1572.84,1258.67 1574.62,1257.41 1576.38,1256.26C1577.1,1255.79 1578.55,1254.16 1578.64,1255.02C1579.09,1259.12 1557.15,1271.98 1551.9,1273.63" style="fill:rgb(187,76,120);"/><path d="M1333.07,1266.75C1325.19,1260.21 1319.09,1231.19 1308.09,1228.6C1307.28,1228.41 1303.21,1247.98 1305.25,1254.92C1308.52,1266 1327.11,1274.08 1336.46,1278.38" style="fill:rgb(187,76,120);"/><path d="M1436.54,1386.77C1436.54,1386.77 1437.7,1406.62 1442.1,1429.81C1446.5,1453.01 1461.94,1547.49 1487.99,1607.38C1514.03,1667.28 1541.65,1731.35 1547.35,1767.84C1547.35,1767.84 1510.91,1805.24 1484.49,1930.36C1458.07,2055.49 1445.74,2207.56 1445.74,2207.56L1516.79,2212.23C1516.79,2212.23 1653.69,1852.52 1667.35,1815.22C1681.01,1777.92 1681.99,1731.16 1677.98,1702.99C1673.96,1674.82 1610.16,1307.85 1610.16,1307.85L1436.54,1386.77Z" style="fill:rgb(255,199,135);"/><path d="M1542.86,1338.44C1510.98,1388.23 1490.11,1463.99 1499.28,1511.72C1510.08,1567.9 1536.74,1619.98 1554.43,1673.82C1561.34,1694.84 1570.51,1722.29 1572.15,1744.63C1572.78,1753.21 1563.38,1763.05 1567.71,1770.69C1571.7,1777.72 1615.83,1810.97 1626.05,1809.68C1629.24,1809.28 1663.97,1793 1663.95,1795.47C1663.9,1802.77 1654.78,1806.72 1650.43,1811.35C1638.58,1823.93 1627.46,1840.55 1611.4,1848.12C1592.37,1857.09 1569.96,1853.64 1551.85,1869.03C1497.83,1914.93 1495.01,1989.55 1480.66,2053.29C1473.46,2085.27 1460.12,2115.01 1453.78,2147.22C1450.95,2161.64 1449.96,2186.09 1446.88,2207.64L1445.74,2207.56C1445.74,2207.56 1458.07,2055.49 1484.49,1930.36C1510.91,1805.24 1547.35,1767.84 1547.35,1767.84C1541.65,1731.35 1514.03,1667.28 1487.99,1607.38C1461.94,1547.49 1446.5,1453.01 1442.1,1429.81C1437.7,1406.62 1436.54,1386.77 1436.54,1386.77L1542.86,1338.44Z" style="fill:rgb(255,171,101);"/><g transform="matrix(0.986376,0,0,0.953551,20.9666,30.7436)"><path d="M1538.93,661.881C1538.93,661.881 1571.63,663.827 1586.92,667.373C1602.21,670.92 1648.56,677.617 1660.48,725.009C1672.4,772.402 1676.72,841.502 1677.33,866.042C1677.95,890.583 1681.72,986.744 1680.99,995.748C1680.27,1004.75 1660.61,1297.4 1649.6,1361.31L1595.45,1348.09C1595.45,1348.09 1598.98,1250.47 1593.74,1168.95C1588.51,1087.43 1588.24,1063.52 1598.14,986.784L1587.99,842.162L1538.93,661.881Z" style="fill:rgb(255,199,135);"/></g><path d="M1545.35,684.673C1546,679.497 1547.53,674.982 1550.95,677.514C1556.74,681.795 1565.27,725.296 1571.43,735.91C1583.91,757.382 1621.6,792.026 1625.91,814.233C1630.11,835.793 1610.79,863.697 1613.7,894.212C1616.75,926.178 1612.47,958.838 1616.03,990.702C1617.77,1006.24 1628.22,1017.21 1626.25,1033.85C1624.06,1052.36 1609.72,1068.98 1607.64,1088.78C1600.96,1152.48 1606.85,1219.63 1611.94,1283.32C1612.97,1296.3 1614.27,1308.51 1612.65,1320.46L1594.68,1316.21C1594.68,1316.21 1598.16,1223.13 1593,1145.4C1587.84,1067.66 1587.57,1044.87 1597.33,971.692L1587.32,833.788L1545.35,684.673Z" style="fill:rgb(255,171,101);"/><g transform="matrix(1.05042,0,0,1.07689,-80.4463,-118.231)"><path d="M1598.5,1322.48C1593.31,1325.88 1590.59,1336.75 1587.13,1342.03C1562.09,1380.22 1568.78,1391.39 1568.8,1431.64C1568.8,1437.8 1566.19,1462.29 1570.37,1466.31C1574.16,1469.94 1579.35,1464.28 1580.77,1461.34C1582.88,1456.95 1587.97,1429.36 1592.67,1431.34C1598.65,1433.86 1599.7,1447.99 1600.65,1453.34C1603.42,1469.1 1608.93,1485.05 1612.77,1500.6C1613.91,1505.22 1612.9,1515.85 1617.09,1519.11C1630.49,1529.57 1635.76,1495.43 1639.6,1486.06C1642.7,1478.47 1649.99,1473.4 1652.72,1465.62C1654.22,1461.34 1654.07,1456.13 1654.67,1451.64C1659.15,1417.83 1660.6,1405.12 1654.08,1371.22C1649.55,1347.62 1649.28,1311.66 1637.7,1291.17" style="fill:rgb(255,199,135);"/></g><path d="M1609.87,1296.75L1598.65,1305.94C1593.2,1309.59 1590.35,1321.3 1586.7,1326.99C1560.4,1368.12 1567.44,1380.15 1567.45,1423.5C1567.45,1430.12 1564.71,1456.5 1569.1,1460.82C1573.08,1464.73 1578.53,1458.64 1580.02,1455.47C1582.25,1450.75 1587.59,1421.04 1592.53,1423.17C1598.81,1425.88 1599.91,1441.09 1600.9,1446.86C1603.82,1463.83 1609.61,1481.01 1613.64,1497.75C1614.84,1502.73 1613.78,1514.17 1618.18,1517.69C1632.25,1528.94 1637.79,1492.19 1641.82,1482.09C1645.08,1473.92 1652.74,1468.46 1655.6,1460.08C1657.18,1455.47 1657.03,1449.87 1657.65,1445.02C1658.13,1441.33 1658.58,1437.87 1658.98,1434.59C1656.27,1437.51 1653.35,1440.23 1650.38,1442.1C1647.88,1443.68 1643.83,1439.33 1641.56,1441.98C1637.1,1447.21 1633.03,1467.56 1625.21,1466.84C1623.01,1466.63 1622,1463.64 1622,1461.83C1621.98,1443.91 1616.83,1411.93 1601.73,1400.81C1592.99,1394.37 1579.14,1415.6 1576.11,1418.95C1575.78,1419.31 1574.54,1420.57 1573.79,1420.32C1571.2,1419.46 1575.3,1415.08 1575.98,1412.43C1580.24,1395.99 1596.39,1387.22 1599.67,1371.68C1603.78,1352.17 1606.82,1334.13 1609.77,1314.39C1610.04,1312.62 1610.03,1304.28 1609.87,1296.75Z" style="fill:rgb(255,171,101);"/><path d="M1297.02,705.104L1313.5,695.234C1313.5,695.234 1317.83,746.476 1352.16,761.372C1386.49,776.268 1452.53,784.495 1489.46,751.678C1526.39,718.86 1520.27,691.718 1520.24,659.741L1544.95,661.15C1544.95,661.15 1567.61,733.932 1572.66,752.813C1577.73,771.695 1592.7,794.294 1595.6,825.273C1598.5,856.252 1585.1,878.891 1585.1,878.891L1583.35,903.344C1583.35,903.344 1560.44,918.804 1516.26,925.715C1472.07,932.625 1439.63,932.014 1421.36,934.887C1403.08,937.76 1295.07,948.936 1295.07,948.936C1295.07,948.936 1291.1,937.269 1288.78,929.787C1286.46,922.305 1289.29,915.113 1286.68,906.242C1284.07,897.371 1258.13,870.494 1263.84,821.27C1269.54,772.045 1297.02,705.104 1297.02,705.104Z" style="fill:rgb(236,97,152);"/><path d="M1264.55,815.762C1265.06,827.867 1265.81,841.285 1272,851.125C1287.5,875.758 1372.61,881.216 1398.97,876.419C1410.93,874.241 1420.45,861.127 1431.98,859.453C1447.05,857.263 1462.92,869.254 1481.49,864.489C1506.43,858.091 1535.96,854.845 1561.75,853.816C1564.62,853.702 1587.15,846.885 1585.48,855.417C1585.4,855.794 1552.65,874.193 1549.51,876.328C1524.2,893.519 1501.95,882.967 1473.76,885.66C1445.99,888.312 1419.27,893.009 1391.81,897.652C1372.39,900.936 1353.52,915.675 1352.31,936.257C1352.2,938.157 1352.24,940.413 1352.32,942.885C1322.66,946.081 1295.07,948.936 1295.07,948.936C1295.07,948.936 1291.1,937.269 1288.78,929.787C1286.46,922.305 1289.29,915.113 1286.68,906.242C1284.07,897.371 1258.13,870.494 1263.84,821.27C1264.05,819.458 1264.29,817.623 1264.55,815.762Z" style="fill:rgb(187,76,120);"/><path d="M1430.06,807.468C1427.47,805.73 1426.25,802.236 1424.74,799.612C1423.61,797.651 1417.97,792.243 1418.63,789.706C1419.41,786.677 1448.74,775.99 1447.65,787.631C1446.91,795.529 1435.03,799.735 1434.02,808.051" style="fill:rgb(187,76,120);"/></g><g transform="matrix(0.770753,0,0,0.770753,257.47,467.468)"><g transform="matrix(0.958582,0,0,0.958582,34.9138,15.243)"><path d="M1127.87,397.578C1127.87,381.267 1114.63,368.024 1098.32,368.024L872.508,368.024C856.197,368.024 842.955,381.267 842.955,397.578L842.955,658.988C842.955,675.299 856.197,688.542 872.508,688.542L1098.32,688.542C1114.63,688.542 1127.87,675.299 1127.87,658.988L1127.87,397.578Z" style="fill:rgb(144,195,235);"/><g transform="matrix(0.904312,0,0,0.904312,94.292,50.5503)"><path d="M1127.87,397.578C1127.87,381.267 1114.63,368.024 1098.32,368.024L872.508,368.024C856.197,368.024 842.955,381.267 842.955,397.578L842.955,658.988C842.955,675.299 856.197,688.542 872.508,688.542L1098.32,688.542C1114.63,688.542 1127.87,675.299 1127.87,658.988L1127.87,397.578Z" style="fill:rgb(91,167,226);"/></g><g transform="matrix(0.871336,0,0,0.871336,126.787,67.9709)"><path d="M1127.87,397.578C1127.87,381.267 1114.63,368.024 1098.32,368.024L872.508,368.024C856.197,368.024 842.955,381.267 842.955,397.578L842.955,658.988C842.955,675.299 856.197,688.542 872.508,688.542L1098.32,688.542C1114.63,688.542 1127.87,675.299 1127.87,658.988L1127.87,397.578Z" style="fill:rgb(174,211,240);"/></g><g transform="matrix(-0.536559,-1.80784e-16,0,0.422115,2374.25,-17.5806)"><path d="M2610.33,1110.17C2566.53,1100.22 2536.64,1111.82 2522.64,1123.5C2494.1,1147.34 2483.56,1169.63 2486.13,1206.11C2489.3,1251.05 2537.62,1276.41 2545.88,1313.15C2552.79,1343.86 2549.42,1378.27 2538.18,1407.61C2519.11,1457.37 2456.36,1528.72 2553.44,1548.92C2615.39,1561.8 2663.03,1475.4 2676.48,1433.88C2698.41,1366.14 2729.16,1201.35 2672.47,1143.29C2656.14,1126.57 2633.73,1115.49 2610.33,1110.17ZM2710.02,1083.73C2717.04,1086.48 2719.69,1096.48 2715.94,1106.06C2712.19,1115.64 2703.45,1121.18 2696.44,1118.44C2689.42,1115.69 2686.77,1105.69 2690.52,1096.11C2694.27,1086.53 2703.01,1080.99 2710.02,1083.73ZM2479.01,1037.16C2491.79,1033.83 2506.05,1046.06 2510.85,1064.46C2515.64,1082.85 2509.16,1100.49 2496.39,1103.82C2483.62,1107.15 2469.35,1094.92 2464.56,1076.53C2459.76,1058.13 2466.24,1040.5 2479.01,1037.16ZM2675.31,1049.13C2684.53,1052.1 2688.77,1064.56 2684.78,1076.93C2680.79,1089.3 2670.07,1096.94 2660.86,1093.97C2651.65,1091 2647.4,1078.54 2651.39,1066.17C2655.38,1053.79 2666.1,1046.16 2675.31,1049.13ZM2615.37,1037.28C2625.05,1037.31 2632.87,1047.89 2632.82,1060.89C2632.78,1073.89 2624.88,1084.42 2615.2,1084.39C2605.52,1084.36 2597.7,1073.77 2597.74,1060.77C2597.79,1047.77 2605.68,1037.25 2615.37,1037.28ZM2556.28,1034.22C2565.96,1034.25 2573.78,1044.83 2573.74,1057.83C2573.69,1070.83 2565.8,1081.36 2556.12,1081.33C2546.44,1081.3 2538.61,1070.71 2538.66,1057.71C2538.7,1044.71 2546.6,1034.19 2556.28,1034.22Z" style="fill:white;"/></g></g><g transform="matrix(0.958582,0,0,0.958582,34.9138,-386.59)"><path d="M1127.87,397.578C1127.87,381.267 1114.63,368.024 1098.32,368.024L872.508,368.024C856.197,368.024 842.955,381.267 842.955,397.578L842.955,658.988C842.955,675.299 856.197,688.542 872.508,688.542L1098.32,688.542C1114.63,688.542 1127.87,675.299 1127.87,658.988L1127.87,397.578Z" style="fill:rgb(144,195,235);"/><g transform="matrix(0.904312,0,0,0.904312,94.292,50.5503)"><path d="M1127.87,397.578C1127.87,381.267 1114.63,368.024 1098.32,368.024L872.508,368.024C856.197,368.024 842.955,381.267 842.955,397.578L842.955,658.988C842.955,675.299 856.197,688.542 872.508,688.542L1098.32,688.542C1114.63,688.542 1127.87,675.299 1127.87,658.988L1127.87,397.578Z" style="fill:rgb(91,167,226);"/></g><g transform="matrix(0.871336,0,0,0.871336,126.787,67.9709)"><path d="M1127.87,397.578C1127.87,381.267 1114.63,368.024 1098.32,368.024L872.508,368.024C856.197,368.024 842.955,381.267 842.955,397.578L842.955,658.988C842.955,675.299 856.197,688.542 872.508,688.542L1098.32,688.542C1114.63,688.542 1127.87,675.299 1127.87,658.988L1127.87,397.578Z" style="fill:rgb(174,211,240);"/></g><g transform="matrix(-0.536559,-1.80784e-16,0,0.422115,2374.25,-17.5806)"><path d="M2610.33,1110.17C2566.53,1100.22 2536.64,1111.82 2522.64,1123.5C2494.1,1147.34 2483.56,1169.63 2486.13,1206.11C2489.3,1251.05 2537.62,1276.41 2545.88,1313.15C2552.79,1343.86 2549.42,1378.27 2538.18,1407.61C2519.11,1457.37 2456.36,1528.72 2553.44,1548.92C2615.39,1561.8 2663.03,1475.4 2676.48,1433.88C2698.41,1366.14 2729.16,1201.35 2672.47,1143.29C2656.14,1126.57 2633.73,1115.49 2610.33,1110.17ZM2710.02,1083.73C2717.04,1086.48 2719.69,1096.48 2715.94,1106.06C2712.19,1115.64 2703.45,1121.18 2696.44,1118.44C2689.42,1115.69 2686.77,1105.69 2690.52,1096.11C2694.27,1086.53 2703.01,1080.99 2710.02,1083.73ZM2479.01,1037.16C2491.79,1033.83 2506.05,1046.06 2510.85,1064.46C2515.64,1082.85 2509.16,1100.49 2496.39,1103.82C2483.62,1107.15 2469.35,1094.92 2464.56,1076.53C2459.76,1058.13 2466.24,1040.5 2479.01,1037.16ZM2675.31,1049.13C2684.53,1052.1 2688.77,1064.56 2684.78,1076.93C2680.79,1089.3 2670.07,1096.94 2660.86,1093.97C2651.65,1091 2647.4,1078.54 2651.39,1066.17C2655.38,1053.79 2666.1,1046.16 2675.31,1049.13ZM2615.37,1037.28C2625.05,1037.31 2632.87,1047.89 2632.82,1060.89C2632.78,1073.89 2624.88,1084.42 2615.2,1084.39C2605.52,1084.36 2597.7,1073.77 2597.74,1060.77C2597.79,1047.77 2605.68,1037.25 2615.37,1037.28ZM2556.28,1034.22C2565.96,1034.25 2573.78,1044.83 2573.74,1057.83C2573.69,1070.83 2565.8,1081.36 2556.12,1081.33C2546.44,1081.3 2538.61,1070.71 2538.66,1057.71C2538.7,1044.71 2546.6,1034.19 2556.28,1034.22Z" style="fill:white;"/></g></g><g transform="matrix(0.958582,0,0,0.958582,34.9138,388.382)"><path d="M1127.87,397.578C1127.87,381.267 1114.63,368.024 1098.32,368.024L872.508,368.024C856.197,368.024 842.955,381.267 842.955,397.578L842.955,658.988C842.955,675.299 856.197,688.542 872.508,688.542L1098.32,688.542C1114.63,688.542 1127.87,675.299 1127.87,658.988L1127.87,397.578Z" style="fill:rgb(144,195,235);"/><g transform="matrix(0.904312,0,0,0.904312,94.292,50.5503)"><path d="M1127.87,397.578C1127.87,381.267 1114.63,368.024 1098.32,368.024L872.508,368.024C856.197,368.024 842.955,381.267 842.955,397.578L842.955,658.988C842.955,675.299 856.197,688.542 872.508,688.542L1098.32,688.542C1114.63,688.542 1127.87,675.299 1127.87,658.988L1127.87,397.578Z" style="fill:rgb(91,167,226);"/></g><g transform="matrix(0.871336,0,0,0.871336,126.787,67.9709)"><path d="M1127.87,397.578C1127.87,381.267 1114.63,368.024 1098.32,368.024L872.508,368.024C856.197,368.024 842.955,381.267 842.955,397.578L842.955,658.988C842.955,675.299 856.197,688.542 872.508,688.542L1098.32,688.542C1114.63,688.542 1127.87,675.299 1127.87,658.988L1127.87,397.578Z" style="fill:rgb(174,211,240);"/></g><g transform="matrix(-0.536559,-1.80784e-16,0,0.422115,2374.25,-17.5806)"><path d="M2610.33,1110.17C2566.53,1100.22 2536.64,1111.82 2522.64,1123.5C2494.1,1147.34 2483.56,1169.63 2486.13,1206.11C2489.3,1251.05 2537.62,1276.41 2545.88,1313.15C2552.79,1343.86 2549.42,1378.27 2538.18,1407.61C2519.11,1457.37 2456.36,1528.72 2553.44,1548.92C2615.39,1561.8 2663.03,1475.4 2676.48,1433.88C2698.41,1366.14 2729.16,1201.35 2672.47,1143.29C2656.14,1126.57 2633.73,1115.49 2610.33,1110.17ZM2710.02,1083.73C2717.04,1086.48 2719.69,1096.48 2715.94,1106.06C2712.19,1115.64 2703.45,1121.18 2696.44,1118.44C2689.42,1115.69 2686.77,1105.69 2690.52,1096.11C2694.27,1086.53 2703.01,1080.99 2710.02,1083.73ZM2479.01,1037.16C2491.79,1033.83 2506.05,1046.06 2510.85,1064.46C2515.64,1082.85 2509.16,1100.49 2496.39,1103.82C2483.62,1107.15 2469.35,1094.92 2464.56,1076.53C2459.76,1058.13 2466.24,1040.5 2479.01,1037.16ZM2675.31,1049.13C2684.53,1052.1 2688.77,1064.56 2684.78,1076.93C2680.79,1089.3 2670.07,1096.94 2660.86,1093.97C2651.65,1091 2647.4,1078.54 2651.39,1066.17C2655.38,1053.79 2666.1,1046.16 2675.31,1049.13ZM2615.37,1037.28C2625.05,1037.31 2632.87,1047.89 2632.82,1060.89C2632.78,1073.89 2624.88,1084.42 2615.2,1084.39C2605.52,1084.36 2597.7,1073.77 2597.74,1060.77C2597.79,1047.77 2605.68,1037.25 2615.37,1037.28ZM2556.28,1034.22C2565.96,1034.25 2573.78,1044.83 2573.74,1057.83C2573.69,1070.83 2565.8,1081.36 2556.12,1081.33C2546.44,1081.3 2538.61,1070.71 2538.66,1057.71C2538.7,1044.71 2546.6,1034.19 2556.28,1034.22Z" style="fill:white;"/></g></g><g transform="matrix(0.958582,0,0,0.958582,34.9138,761.52)"><path d="M1127.87,397.578C1127.87,381.267 1114.63,368.024 1098.32,368.024L872.508,368.024C856.197,368.024 842.955,381.267 842.955,397.578L842.955,658.988C842.955,675.299 856.197,688.542 872.508,688.542L1098.32,688.542C1114.63,688.542 1127.87,675.299 1127.87,658.988L1127.87,397.578Z" style="fill:rgb(144,195,235);"/><g transform="matrix(0.904312,0,0,0.904312,94.292,50.5503)"><path d="M1127.87,397.578C1127.87,381.267 1114.63,368.024 1098.32,368.024L872.508,368.024C856.197,368.024 842.955,381.267 842.955,397.578L842.955,658.988C842.955,675.299 856.197,688.542 872.508,688.542L1098.32,688.542C1114.63,688.542 1127.87,675.299 1127.87,658.988L1127.87,397.578Z" style="fill:rgb(91,167,226);"/></g><g transform="matrix(0.871336,0,0,0.871336,126.787,67.9709)"><path d="M1127.87,397.578C1127.87,381.267 1114.63,368.024 1098.32,368.024L872.508,368.024C856.197,368.024 842.955,381.267 842.955,397.578L842.955,658.988C842.955,675.299 856.197,688.542 872.508,688.542L1098.32,688.542C1114.63,688.542 1127.87,675.299 1127.87,658.988L1127.87,397.578Z" style="fill:rgb(174,211,240);"/></g><g transform="matrix(-0.536559,-1.80784e-16,0,0.422115,2374.25,-17.5806)"><path d="M2610.33,1110.17C2566.53,1100.22 2536.64,1111.82 2522.64,1123.5C2494.1,1147.34 2483.56,1169.63 2486.13,1206.11C2489.3,1251.05 2537.62,1276.41 2545.88,1313.15C2552.79,1343.86 2549.42,1378.27 2538.18,1407.61C2519.11,1457.37 2456.36,1528.72 2553.44,1548.92C2615.39,1561.8 2663.03,1475.4 2676.48,1433.88C2698.41,1366.14 2729.16,1201.35 2672.47,1143.29C2656.14,1126.57 2633.73,1115.49 2610.33,1110.17ZM2710.02,1083.73C2717.04,1086.48 2719.69,1096.48 2715.94,1106.06C2712.19,1115.64 2703.45,1121.18 2696.44,1118.44C2689.42,1115.69 2686.77,1105.69 2690.52,1096.11C2694.27,1086.53 2703.01,1080.99 2710.02,1083.73ZM2479.01,1037.16C2491.79,1033.83 2506.05,1046.06 2510.85,1064.46C2515.64,1082.85 2509.16,1100.49 2496.39,1103.82C2483.62,1107.15 2469.35,1094.92 2464.56,1076.53C2459.76,1058.13 2466.24,1040.5 2479.01,1037.16ZM2675.31,1049.13C2684.53,1052.1 2688.77,1064.56 2684.78,1076.93C2680.79,1089.3 2670.07,1096.94 2660.86,1093.97C2651.65,1091 2647.4,1078.54 2651.39,1066.17C2655.38,1053.79 2666.1,1046.16 2675.31,1049.13ZM2615.37,1037.28C2625.05,1037.31 2632.87,1047.89 2632.82,1060.89C2632.78,1073.89 2624.88,1084.42 2615.2,1084.39C2605.52,1084.36 2597.7,1073.77 2597.74,1060.77C2597.79,1047.77 2605.68,1037.25 2615.37,1037.28ZM2556.28,1034.22C2565.96,1034.25 2573.78,1044.83 2573.74,1057.83C2573.69,1070.83 2565.8,1081.36 2556.12,1081.33C2546.44,1081.3 2538.61,1070.71 2538.66,1057.71C2538.7,1044.71 2546.6,1034.19 2556.28,1034.22Z" style="fill:white;"/></g></g><g transform="matrix(0.958582,0,0,0.958582,34.9138,1134.66)"><path d="M1127.87,397.578C1127.87,381.267 1114.63,368.024 1098.32,368.024L872.508,368.024C856.197,368.024 842.955,381.267 842.955,397.578L842.955,658.988C842.955,675.299 856.197,688.542 872.508,688.542L1098.32,688.542C1114.63,688.542 1127.87,675.299 1127.87,658.988L1127.87,397.578Z" style="fill:rgb(144,195,235);"/><g transform="matrix(0.904312,0,0,0.904312,94.292,50.5503)"><path d="M1127.87,397.578C1127.87,381.267 1114.63,368.024 1098.32,368.024L872.508,368.024C856.197,368.024 842.955,381.267 842.955,397.578L842.955,658.988C842.955,675.299 856.197,688.542 872.508,688.542L1098.32,688.542C1114.63,688.542 1127.87,675.299 1127.87,658.988L1127.87,397.578Z" style="fill:rgb(91,167,226);"/></g><g transform="matrix(0.871336,0,0,0.871336,126.787,67.9709)"><path d="M1127.87,397.578C1127.87,381.267 1114.63,368.024 1098.32,368.024L872.508,368.024C856.197,368.024 842.955,381.267 842.955,397.578L842.955,658.988C842.955,675.299 856.197,688.542 872.508,688.542L1098.32,688.542C1114.63,688.542 1127.87,675.299 1127.87,658.988L1127.87,397.578Z" style="fill:rgb(174,211,240);"/></g><g transform="matrix(-0.536559,-1.80784e-16,0,0.422115,2374.25,-17.5806)"><path d="M2610.33,1110.17C2566.53,1100.22 2536.64,1111.82 2522.64,1123.5C2494.1,1147.34 2483.56,1169.63 2486.13,1206.11C2489.3,1251.05 2537.62,1276.41 2545.88,1313.15C2552.79,1343.86 2549.42,1378.27 2538.18,1407.61C2519.11,1457.37 2456.36,1528.72 2553.44,1548.92C2615.39,1561.8 2663.03,1475.4 2676.48,1433.88C2698.41,1366.14 2729.16,1201.35 2672.47,1143.29C2656.14,1126.57 2633.73,1115.49 2610.33,1110.17ZM2710.02,1083.73C2717.04,1086.48 2719.69,1096.48 2715.94,1106.06C2712.19,1115.64 2703.45,1121.18 2696.44,1118.44C2689.42,1115.69 2686.77,1105.69 2690.52,1096.11C2694.27,1086.53 2703.01,1080.99 2710.02,1083.73ZM2479.01,1037.16C2491.79,1033.83 2506.05,1046.06 2510.85,1064.46C2515.64,1082.85 2509.16,1100.49 2496.39,1103.82C2483.62,1107.15 2469.35,1094.92 2464.56,1076.53C2459.76,1058.13 2466.24,1040.5 2479.01,1037.16ZM2675.31,1049.13C2684.53,1052.1 2688.77,1064.56 2684.78,1076.93C2680.79,1089.3 2670.07,1096.94 2660.86,1093.97C2651.65,1091 2647.4,1078.54 2651.39,1066.17C2655.38,1053.79 2666.1,1046.16 2675.31,1049.13ZM2615.37,1037.28C2625.05,1037.31 2632.87,1047.89 2632.82,1060.89C2632.78,1073.89 2624.88,1084.42 2615.2,1084.39C2605.52,1084.36 2597.7,1073.77 2597.74,1060.77C2597.79,1047.77 2605.68,1037.25 2615.37,1037.28ZM2556.28,1034.22C2565.96,1034.25 2573.78,1044.83 2573.74,1057.83C2573.69,1070.83 2565.8,1081.36 2556.12,1081.33C2546.44,1081.3 2538.61,1070.71 2538.66,1057.71C2538.7,1044.71 2546.6,1034.19 2556.28,1034.22Z" style="fill:white;"/></g></g><g transform="matrix(0.958582,0,0,0.958582,34.9138,1507.8)"><path d="M1127.87,397.578C1127.87,381.267 1114.63,368.024 1098.32,368.024L872.508,368.024C856.197,368.024 842.955,381.267 842.955,397.578L842.955,658.988C842.955,675.299 856.197,688.542 872.508,688.542L1098.32,688.542C1114.63,688.542 1127.87,675.299 1127.87,658.988L1127.87,397.578Z" style="fill:rgb(144,195,235);"/><g transform="matrix(0.904312,0,0,0.904312,94.292,50.5503)"><path d="M1127.87,397.578C1127.87,381.267 1114.63,368.024 1098.32,368.024L872.508,368.024C856.197,368.024 842.955,381.267 842.955,397.578L842.955,658.988C842.955,675.299 856.197,688.542 872.508,688.542L1098.32,688.542C1114.63,688.542 1127.87,675.299 1127.87,658.988L1127.87,397.578Z" style="fill:rgb(91,167,226);"/></g><g transform="matrix(0.871336,0,0,0.871336,126.787,67.9709)"><path d="M1127.87,397.578C1127.87,381.267 1114.63,368.024 1098.32,368.024L872.508,368.024C856.197,368.024 842.955,381.267 842.955,397.578L842.955,658.988C842.955,675.299 856.197,688.542 872.508,688.542L1098.32,688.542C1114.63,688.542 1127.87,675.299 1127.87,658.988L1127.87,397.578Z" style="fill:rgb(174,211,240);"/></g><g transform="matrix(-0.536559,-1.80784e-16,0,0.422115,2374.25,-17.5806)"><path d="M2610.33,1110.17C2566.53,1100.22 2536.64,1111.82 2522.64,1123.5C2494.1,1147.34 2483.56,1169.63 2486.13,1206.11C2489.3,1251.05 2537.62,1276.41 2545.88,1313.15C2552.79,1343.86 2549.42,1378.27 2538.18,1407.61C2519.11,1457.37 2456.36,1528.72 2553.44,1548.92C2615.39,1561.8 2663.03,1475.4 2676.48,1433.88C2698.41,1366.14 2729.16,1201.35 2672.47,1143.29C2656.14,1126.57 2633.73,1115.49 2610.33,1110.17ZM2710.02,1083.73C2717.04,1086.48 2719.69,1096.48 2715.94,1106.06C2712.19,1115.64 2703.45,1121.18 2696.44,1118.44C2689.42,1115.69 2686.77,1105.69 2690.52,1096.11C2694.27,1086.53 2703.01,1080.99 2710.02,1083.73ZM2479.01,1037.16C2491.79,1033.83 2506.05,1046.06 2510.85,1064.46C2515.64,1082.85 2509.16,1100.49 2496.39,1103.82C2483.62,1107.15 2469.35,1094.92 2464.56,1076.53C2459.76,1058.13 2466.24,1040.5 2479.01,1037.16ZM2675.31,1049.13C2684.53,1052.1 2688.77,1064.56 2684.78,1076.93C2680.79,1089.3 2670.07,1096.94 2660.86,1093.97C2651.65,1091 2647.4,1078.54 2651.39,1066.17C2655.38,1053.79 2666.1,1046.16 2675.31,1049.13ZM2615.37,1037.28C2625.05,1037.31 2632.87,1047.89 2632.82,1060.89C2632.78,1073.89 2624.88,1084.42 2615.2,1084.39C2605.52,1084.36 2597.7,1073.77 2597.74,1060.77C2597.79,1047.77 2605.68,1037.25 2615.37,1037.28ZM2556.28,1034.22C2565.96,1034.25 2573.78,1044.83 2573.74,1057.83C2573.69,1070.83 2565.8,1081.36 2556.12,1081.33C2546.44,1081.3 2538.61,1070.71 2538.66,1057.71C2538.7,1044.71 2546.6,1034.19 2556.28,1034.22Z" style="fill:white;"/></g></g></g><g transform="matrix(-1,0,0,1,3991.7,24.6526)"><path d="M3468.77,387.135C3468.77,378.09 3461.44,370.758 3452.39,370.758C3395.85,370.758 3210.26,370.758 3173.4,370.758C3169.29,370.758 3165.33,372.306 3162.3,375.094C3151.98,384.611 3127.02,407.618 3111.51,421.916C3108.13,425.032 3106.22,429.425 3106.24,434.023C3106.25,438.62 3108.2,442.998 3111.61,446.087C3127.14,460.172 3152.03,482.758 3162.32,492.092C3165.34,494.825 3169.26,496.339 3173.33,496.339C3210.01,496.339 3395.81,496.339 3452.39,496.339C3461.44,496.339 3468.77,489.007 3468.77,479.962C3468.77,455.889 3468.77,411.208 3468.77,387.135Z" style="fill:rgb(88,165,224);"/></g><g transform="matrix(2.34467,0,0,2.34467,-449.538,-1139.66)"><g transform="matrix(1,0,0,1,8.66166,0)"><path d="M432.902,688.705C433.768,688.705 434.449,688.379 434.946,687.727C435.442,687.075 435.691,686.23 435.691,685.191C435.691,684.033 435.408,683.147 434.843,682.532C434.278,681.916 433.585,681.609 432.765,681.609C432.1,681.609 431.512,681.809 431.001,682.21C430.236,682.803 429.853,683.76 429.853,685.082C429.853,686.148 430.14,687.018 430.714,687.693C431.288,688.367 432.018,688.705 432.902,688.705ZM435.335,676.523C435.335,676.204 435.212,675.853 434.966,675.47C434.547,674.85 433.913,674.54 433.066,674.54C431.799,674.54 430.897,675.251 430.359,676.673C430.067,677.457 429.867,678.615 429.757,680.146C430.24,679.572 430.801,679.152 431.439,678.888C432.077,678.624 432.806,678.492 433.626,678.492C435.385,678.492 436.828,679.089 437.954,680.283C439.079,681.477 439.642,683.003 439.642,684.863C439.642,686.713 439.091,688.345 437.988,689.757C436.885,691.17 435.171,691.876 432.847,691.876C430.35,691.876 428.509,690.833 427.324,688.746C426.403,687.114 425.943,685.009 425.943,682.429C425.943,680.916 426.007,679.686 426.134,678.738C426.362,677.052 426.804,675.648 427.46,674.527C428.025,673.57 428.766,672.8 429.682,672.216C430.598,671.633 431.694,671.341 432.97,671.341C434.811,671.341 436.279,671.813 437.372,672.756C438.466,673.7 439.081,674.955 439.218,676.523L435.335,676.523Z" style="fill:rgb(199,225,245);fill-rule:nonzero;"/></g><g transform="matrix(1,0,0,1,8.66166,0)"><path d="M450.552,671.232L464.839,671.232L464.839,674.773L454.736,674.773L454.736,679.408L463.581,679.408L463.581,682.908L454.736,682.908L454.736,691.357L450.552,691.357L450.552,671.232Z" style="fill:rgb(199,225,245);fill-rule:nonzero;"/></g><g transform="matrix(1,0,0,1,8.66166,0)"><path d="M482.558,674.773L471.894,674.773L471.894,679.052L481.683,679.052L481.683,682.552L471.894,682.552L471.894,687.734L483.05,687.734L483.05,691.357L467.779,691.357L467.779,671.205L482.558,671.205L482.558,674.773Z" style="fill:rgb(199,225,245);fill-rule:nonzero;"/></g><g transform="matrix(1,0,0,1,8.66166,0)"><path d="M501.234,674.773L490.57,674.773L490.57,679.052L500.359,679.052L500.359,682.552L490.57,682.552L490.57,687.734L501.726,687.734L501.726,691.357L486.455,691.357L486.455,671.205L501.234,671.205L501.234,674.773Z" style="fill:rgb(199,225,245);fill-rule:nonzero;"/></g><g transform="matrix(1,0,0,1,8.66166,0)"><path d="M519.65,671.205L519.65,674.773L513.621,674.773L513.621,691.357L509.382,691.357L509.382,674.773L503.326,674.773L503.326,671.205L519.65,671.205Z" style="fill:rgb(199,225,245);fill-rule:nonzero;"/></g></g></g></g></g></g></svg>