<svg xmlns="http://www.w3.org/2000/svg" viewBox="0 0 1600 900"><g id="BG"><rect width="1600" height="900" style="fill:#61dea6"/><path d="M1600,533.57s-14.8-176.46-237.64-229c-223.64-52.7-284.09,83.05-576.2,99.44-205.55,11.54-272-118-498.84-112.62C167.06,294.28,59.14,367.09,0,530.14V900H1598.15Z" style="fill:#33d69f"/></g><g id="Layer_1" data-name="Layer 1"><polygon points="1026.98 598.07 1028.14 597.48 1068.92 618.05 1067.76 618.64 1026.98 598.07" style="fill:#61dea6"/><g style="isolation:isolate"><polygon points="690.53 386.11 691.69 385.52 733.05 406.39 731.89 406.98 690.53 386.11" style="fill:#61dea6"/><polygon points="733.06 407.57 734.22 406.98 775.01 427.56 773.85 428.15 733.06 407.57" style="fill:#61dea6"/><polygon points="648.85 407.28 650.01 406.69 691.37 427.56 690.21 428.15 648.85 407.28" style="fill:#61dea6"/><polygon points="775.02 428.74 776.18 428.15 816.96 448.72 815.79 449.31 775.02 428.74" style="fill:#61dea6"/><polygon points="691.38 428.74 692.54 428.15 733.33 448.73 732.17 449.32 691.38 428.74" style="fill:#61dea6"/><polygon points="607.17 428.44 608.33 427.85 649.7 448.73 648.54 449.31 607.17 428.44" style="fill:#61dea6"/><polygon points="816.96 449.9 818.12 449.31 858.9 469.89 857.74 470.48 816.96 449.9" style="fill:#61dea6"/><polygon points="733.34 449.91 734.5 449.32 775.27 469.89 774.11 470.48 733.34 449.91" style="fill:#61dea6"/><polygon points="649.71 449.9 650.87 449.31 691.65 469.89 690.5 470.48 649.71 449.9" style="fill:#61dea6"/><polygon points="565.49 449.61 566.65 449.02 608.02 469.89 606.86 470.48 565.49 449.61" style="fill:#61dea6"/><polygon points="858.92 471.07 860.08 470.48 900.85 491.06 899.69 491.64 858.92 471.07" style="fill:#61dea6"/><polygon points="775.28 471.07 776.44 470.48 817.22 491.06 816.06 491.64 775.28 471.07" style="fill:#61dea6"/><polygon points="691.66 471.07 692.82 470.48 733.6 491.06 732.44 491.65 691.66 471.07" style="fill:#61dea6"/><polygon points="608.02 471.07 609.19 470.48 649.97 491.06 648.81 491.65 608.02 471.07" style="fill:#61dea6"/><polygon points="523.82 470.77 524.98 470.19 566.35 491.06 565.18 491.65 523.82 470.77" style="fill:#61dea6"/><polygon points="900.86 492.23 902.02 491.64 942.8 512.22 941.64 512.81 900.86 492.23" style="fill:#61dea6"/><polygon points="817.24 492.24 818.4 491.65 859.17 512.22 858.01 512.81 817.24 492.24" style="fill:#61dea6"/><polygon points="733.61 492.24 734.77 491.65 775.54 512.22 774.38 512.81 733.61 492.24" style="fill:#61dea6"/><polygon points="649.98 492.24 651.14 491.65 691.92 512.23 690.76 512.81 649.98 492.24" style="fill:#61dea6"/><polygon points="566.35 492.24 567.51 491.65 608.3 512.23 607.14 512.82 566.35 492.24" style="fill:#61dea6"/><polygon points="482.14 491.94 483.3 491.35 524.66 512.23 523.5 512.82 482.14 491.94" style="fill:#61dea6"/><polygon points="942.81 513.4 943.97 512.81 984.75 533.39 983.59 533.98 942.81 513.4" style="fill:#61dea6"/><polygon points="859.18 513.4 860.34 512.81 901.12 533.39 899.96 533.98 859.18 513.4" style="fill:#61dea6"/><polygon points="775.56 513.4 776.72 512.81 817.5 533.39 816.34 533.98 775.56 513.4" style="fill:#61dea6"/><polygon points="691.92 513.4 693.09 512.81 733.86 533.39 732.7 533.98 691.92 513.4" style="fill:#61dea6"/><polygon points="608.31 513.4 609.47 512.81 650.25 533.39 649.09 533.98 608.31 513.4" style="fill:#61dea6"/><polygon points="524.67 513.4 525.83 512.82 566.62 533.39 565.46 533.98 524.67 513.4" style="fill:#61dea6"/><polygon points="440.46 513.11 441.63 512.52 482.99 533.39 481.83 533.98 440.46 513.11" style="fill:#61dea6"/><polygon points="984.76 534.57 985.92 533.98 1026.7 554.55 1025.54 555.14 984.76 534.57" style="fill:#61dea6"/><polygon points="901.12 534.57 902.28 533.98 943.07 554.55 941.91 555.14 901.12 534.57" style="fill:#61dea6"/><polygon points="817.51 534.57 818.67 533.98 859.45 554.55 858.28 555.14 817.51 534.57" style="fill:#61dea6"/><polygon points="733.88 534.57 735.04 533.98 775.82 554.56 774.66 555.14 733.88 534.57" style="fill:#61dea6"/><polygon points="650.25 534.57 651.41 533.98 692.19 554.55 691.03 555.14 650.25 534.57" style="fill:#61dea6"/><polygon points="566.63 534.57 567.79 533.98 608.56 554.56 607.4 555.15 566.63 534.57" style="fill:#61dea6"/><polygon points="483 534.57 484.16 533.98 524.95 554.56 523.79 555.15 483 534.57" style="fill:#61dea6"/><polygon points="398.78 534.28 399.95 533.68 441.32 554.55 440.15 555.15 398.78 534.28" style="fill:#61dea6"/><polygon points="1026.71 555.73 1027.87 555.14 1068.65 575.72 1067.49 576.31 1026.71 555.73" style="fill:#61dea6"/><polygon points="943.08 555.73 944.24 555.14 985.02 575.72 983.86 576.31 943.08 555.73" style="fill:#61dea6"/><polygon points="859.45 555.73 860.61 555.14 901.4 575.72 900.24 576.31 859.45 555.73" style="fill:#61dea6"/><polygon points="775.83 555.74 776.99 555.14 817.76 575.72 816.6 576.31 775.83 555.74" style="fill:#61dea6"/><polygon points="692.21 555.74 693.37 555.15 734.14 575.72 732.98 576.31 692.21 555.74" style="fill:#61dea6"/><polygon points="608.57 555.74 609.73 555.15 650.51 575.72 649.35 576.31 608.57 555.74" style="fill:#61dea6"/><polygon points="524.95 555.74 526.11 555.15 566.89 575.72 565.73 576.31 524.95 555.74" style="fill:#61dea6"/><polygon points="441.32 555.74 442.49 555.14 483.27 575.72 482.1 576.32 441.32 555.74" style="fill:#61dea6"/><polygon points="357.11 555.44 358.27 554.85 399.64 575.72 398.48 576.31 357.11 555.44" style="fill:#61dea6"/><polygon points="1068.66 576.9 1069.82 576.31 1110.6 596.88 1109.44 597.47 1068.66 576.9" style="fill:#61dea6"/><polygon points="985.02 576.9 986.18 576.31 1026.97 596.89 1025.81 597.48 985.02 576.9" style="fill:#61dea6"/><polygon points="901.41 576.9 902.57 576.31 943.34 596.88 942.18 597.47 901.41 576.9" style="fill:#61dea6"/><polygon points="817.77 576.9 818.93 576.31 859.72 596.89 858.56 597.48 817.77 576.9" style="fill:#61dea6"/><polygon points="734.15 576.9 735.31 576.31 776.09 596.88 774.93 597.47 734.15 576.9" style="fill:#61dea6"/><polygon points="650.53 576.9 651.69 576.31 692.46 596.89 691.3 597.48 650.53 576.9" style="fill:#61dea6"/><polygon points="566.9 576.9 568.06 576.31 608.84 596.88 607.67 597.47 566.9 576.9" style="fill:#61dea6"/><polygon points="483.27 576.9 484.44 576.31 525.22 596.88 524.05 597.48 483.27 576.9" style="fill:#61dea6"/><polygon points="399.64 576.9 400.81 576.31 441.59 596.89 440.43 597.48 399.64 576.9" style="fill:#61dea6"/><polygon points="315.43 576.61 316.6 576.01 357.96 596.88 356.79 597.48 315.43 576.61" style="fill:#61dea6"/><polygon points="1111.77 597.47 1153.13 618.34 1151.97 618.93 1110.61 598.06 1111.77 597.47" style="fill:#61dea6"/><polygon points="943.35 598.06 944.51 597.47 985.3 618.05 984.14 618.64 943.35 598.06" style="fill:#61dea6"/><polygon points="859.72 598.07 860.88 597.48 901.66 618.05 900.5 618.64 859.72 598.07" style="fill:#61dea6"/><polygon points="776.1 598.06 777.26 597.47 818.04 618.05 816.88 618.64 776.1 598.06" style="fill:#61dea6"/><polygon points="692.47 598.07 693.63 597.48 734.41 618.05 733.25 618.64 692.47 598.07" style="fill:#61dea6"/><polygon points="608.85 598.07 610.01 597.48 650.79 618.05 649.63 618.64 608.85 598.07" style="fill:#61dea6"/><polygon points="525.22 598.07 526.39 597.47 567.16 618.05 565.99 618.64 525.22 598.07" style="fill:#61dea6"/><polygon points="441.6 598.07 442.76 597.48 483.54 618.05 482.38 618.64 441.6 598.07" style="fill:#61dea6"/><polygon points="357.96 598.07 359.13 597.47 399.92 618.05 398.75 618.65 357.96 598.07" style="fill:#61dea6"/><polygon points="775.32 386.11 734.22 406.98 733.06 407.57 692.54 428.15 691.38 428.74 650.87 449.31 649.71 449.9 609.19 470.48 608.02 471.07 567.51 491.65 566.35 492.24 525.83 512.82 524.67 513.4 484.16 533.98 483 534.57 442.49 555.14 441.32 555.74 400.81 576.31 399.64 576.9 359.13 597.47 357.96 598.07 316.88 618.93 315.71 618.34 356.79 597.48 357.96 596.88 398.48 576.31 399.64 575.72 440.15 555.15 441.32 554.55 481.83 533.98 482.99 533.39 523.5 512.82 524.66 512.23 565.18 491.65 566.35 491.06 606.86 470.48 608.02 469.89 648.54 449.31 649.7 448.73 690.21 428.15 691.37 427.56 731.89 406.98 733.05 406.39 774.15 385.52 775.32 386.11" style="fill:#61dea6"/><polygon points="985.31 619.23 986.47 618.64 1027.24 639.21 1026.08 639.8 985.31 619.23" style="fill:#61dea6"/><polygon points="1070.08 618.64 1111.45 639.51 1110.29 640.1 1068.92 619.23 1070.08 618.64" style="fill:#61dea6"/><polygon points="901.67 619.23 902.83 618.64 943.62 639.22 942.46 639.81 901.67 619.23" style="fill:#61dea6"/><polygon points="818.05 619.23 819.21 618.64 859.99 639.21 858.83 639.8 818.05 619.23" style="fill:#61dea6"/><polygon points="734.41 619.23 735.58 618.64 776.36 639.22 775.2 639.81 734.41 619.23" style="fill:#61dea6"/><polygon points="650.8 619.23 651.96 618.64 692.74 639.21 691.58 639.8 650.8 619.23" style="fill:#61dea6"/><polygon points="567.17 619.24 568.34 618.64 609.12 639.21 607.95 639.81 567.17 619.24" style="fill:#61dea6"/><polygon points="483.55 619.23 484.7 618.64 525.48 639.21 524.32 639.8 483.55 619.23" style="fill:#61dea6"/><polygon points="399.92 619.24 401.09 618.64 441.87 639.22 440.69 639.81 399.92 619.24" style="fill:#61dea6"/><polygon points="817.27 407.28 776.18 428.15 775.02 428.74 734.5 449.32 733.34 449.91 692.82 470.48 691.66 471.07 651.14 491.65 649.98 492.24 609.47 512.82 608.31 513.4 567.79 533.98 566.63 534.57 526.12 555.15 524.95 555.74 484.44 576.31 483.27 576.9 442.76 597.48 441.6 598.07 401.09 618.64 399.92 619.24 358.83 640.1 357.66 639.51 398.75 618.65 399.92 618.05 440.43 597.48 441.59 596.89 482.1 576.32 483.27 575.72 523.79 555.15 524.95 554.56 565.46 533.98 566.62 533.39 607.14 512.82 608.3 512.23 648.81 491.65 649.97 491.06 690.5 470.48 691.65 469.89 732.17 449.32 733.33 448.73 773.85 428.15 775.01 427.56 816.11 406.69 817.27 407.28" style="fill:#61dea6"/><polygon points="943.63 640.4 944.79 639.81 985.56 660.38 984.4 660.97 943.63 640.4" style="fill:#61dea6"/><polygon points="1028.41 639.8 1069.78 660.67 1068.62 661.26 1027.25 640.39 1028.41 639.8" style="fill:#61dea6"/><polygon points="860 640.39 861.16 639.8 901.95 660.38 900.78 660.97 860 640.39" style="fill:#61dea6"/><polygon points="776.37 640.4 777.53 639.81 818.31 660.38 817.15 660.97 776.37 640.4" style="fill:#61dea6"/><polygon points="692.74 640.39 693.9 639.8 734.69 660.38 733.53 660.97 692.74 640.39" style="fill:#61dea6"/><polygon points="609.12 640.4 610.29 639.8 651.06 660.38 649.89 660.97 609.12 640.4" style="fill:#61dea6"/><polygon points="525.5 640.4 526.66 639.81 567.44 660.38 566.28 660.97 525.5 640.4" style="fill:#61dea6"/><polygon points="441.86 640.4 443.03 639.8 483.81 660.38 482.64 660.97 441.86 640.4" style="fill:#61dea6"/><polygon points="859.22 428.44 818.12 449.31 816.96 449.9 776.44 470.48 775.28 471.07 734.77 491.65 733.61 492.24 693.09 512.81 691.92 513.4 651.41 533.98 650.25 534.57 609.73 555.15 608.57 555.74 568.06 576.31 566.9 576.9 526.39 597.47 525.22 598.07 484.7 618.64 483.54 619.23 443.03 639.8 441.86 640.4 400.77 661.26 399.61 660.68 440.69 639.81 441.87 639.22 482.38 618.64 483.54 618.05 524.05 597.48 525.22 596.88 565.73 576.31 566.89 575.72 607.4 555.15 608.56 554.56 649.09 533.98 650.25 533.39 690.76 512.81 691.92 512.23 732.44 491.65 733.6 491.06 774.11 470.48 775.27 469.89 815.79 449.31 816.95 448.73 858.05 427.85 859.22 428.44" style="fill:#61dea6"/><polygon points="901.95 661.56 903.11 660.97 943.89 681.54 942.73 682.13 901.95 661.56" style="fill:#61dea6"/><polygon points="986.73 660.97 1028.1 681.84 1026.93 682.43 985.57 661.56 986.73 660.97" style="fill:#61dea6"/><polygon points="818.32 661.56 819.48 660.97 860.26 681.55 859.1 682.14 818.32 661.56" style="fill:#61dea6"/><polygon points="734.7 661.56 735.86 660.97 776.63 681.54 775.48 682.13 734.7 661.56" style="fill:#61dea6"/><polygon points="651.06 661.56 652.23 660.97 693.02 681.54 691.85 682.14 651.06 661.56" style="fill:#61dea6"/><polygon points="567.44 661.56 568.61 660.97 609.38 681.54 608.22 682.13 567.44 661.56" style="fill:#61dea6"/><polygon points="483.82 661.57 484.99 660.97 525.76 681.55 524.59 682.14 483.82 661.57" style="fill:#61dea6"/><polygon points="901.17 449.61 860.08 470.48 858.92 471.07 818.4 491.65 817.24 492.24 776.72 512.81 775.56 513.4 735.04 533.98 733.88 534.57 693.37 555.15 692.21 555.74 651.69 576.31 650.53 576.9 610.01 597.48 608.85 598.07 568.34 618.64 567.17 619.24 526.66 639.81 525.5 640.4 484.99 660.97 483.82 661.57 442.73 682.43 441.55 681.84 482.64 660.97 483.81 660.38 524.32 639.8 525.48 639.22 565.99 618.64 567.16 618.05 607.67 597.47 608.84 596.88 649.35 576.31 650.51 575.72 691.03 555.14 692.19 554.55 732.7 533.98 733.86 533.39 774.38 512.81 775.54 512.22 816.06 491.65 817.22 491.06 857.74 470.48 858.9 469.89 900 449.02 901.17 449.61" style="fill:#61dea6"/><polygon points="860.27 682.73 861.43 682.14 902.21 702.71 901.05 703.3 860.27 682.73" style="fill:#61dea6"/><polygon points="945.06 682.13 986.42 703 985.26 703.59 943.9 682.72 945.06 682.13" style="fill:#61dea6"/><polygon points="776.64 682.72 777.8 682.13 818.59 702.71 817.43 703.3 776.64 682.72" style="fill:#61dea6"/><polygon points="693.02 682.73 694.19 682.13 734.96 702.71 733.79 703.3 693.02 682.73" style="fill:#61dea6"/><polygon points="609.39 682.72 610.55 682.13 651.34 702.71 650.18 703.3 609.39 682.72" style="fill:#61dea6"/><polygon points="525.76 682.73 526.93 682.13 567.71 702.71 566.54 703.3 525.76 682.73" style="fill:#61dea6"/><polygon points="943.12 470.77 902.02 491.64 900.86 492.24 860.34 512.81 859.18 513.4 818.67 533.98 817.51 534.57 776.99 555.14 775.83 555.74 735.31 576.31 734.15 576.9 693.63 597.48 692.47 598.07 651.96 618.64 650.8 619.23 610.29 639.8 609.12 640.4 568.61 660.97 567.44 661.56 526.93 682.14 525.76 682.73 484.68 703.6 483.51 703.01 524.59 682.14 525.76 681.55 566.28 660.97 567.44 660.38 607.95 639.81 609.12 639.21 649.63 618.64 650.79 618.05 691.3 597.48 692.46 596.89 732.99 576.31 734.14 575.72 774.66 555.14 775.82 554.56 816.34 533.98 817.5 533.39 858.01 512.81 859.17 512.22 899.69 491.64 900.85 491.06 941.95 470.19 943.12 470.77" style="fill:#61dea6"/><polygon points="818.6 703.89 819.76 703.3 860.53 723.88 859.37 724.47 818.6 703.89" style="fill:#61dea6"/><polygon points="903.38 703.3 944.74 724.17 943.58 724.76 902.22 703.89 903.38 703.3" style="fill:#61dea6"/><polygon points="734.96 703.89 736.13 703.3 776.92 723.88 775.75 724.47 734.96 703.89" style="fill:#61dea6"/><polygon points="651.34 703.89 652.5 703.3 693.28 723.88 692.12 724.47 651.34 703.89" style="fill:#61dea6"/><polygon points="567.71 703.89 568.88 703.3 609.66 723.88 608.49 724.47 567.71 703.89" style="fill:#61dea6"/><polygon points="985.06 491.94 943.97 512.81 942.81 513.4 902.28 533.98 901.12 534.57 860.61 555.14 859.45 555.73 818.93 576.31 817.77 576.9 777.26 597.47 776.1 598.06 735.58 618.64 734.41 619.23 693.9 639.8 692.74 640.39 652.23 660.97 651.06 661.56 610.55 682.13 609.39 682.73 568.88 703.3 567.71 703.89 526.62 724.76 525.45 724.17 566.54 703.3 567.71 702.71 608.22 682.13 609.38 681.55 649.89 660.97 651.06 660.38 691.58 639.8 692.74 639.21 733.25 618.64 734.41 618.05 774.93 597.47 776.09 596.88 816.6 576.31 817.76 575.72 858.28 555.14 859.45 554.55 899.96 533.98 901.12 533.39 941.64 512.81 942.8 512.22 983.9 491.35 985.06 491.94" style="fill:#61dea6"/><polygon points="776.92 725.06 778.09 724.47 818.86 745.04 817.69 745.63 776.92 725.06" style="fill:#61dea6"/><polygon points="861.7 724.47 903.07 745.34 901.91 745.93 860.54 725.05 861.7 724.47" style="fill:#61dea6"/><polygon points="693.29 725.05 694.45 724.47 735.24 745.04 734.08 745.63 693.29 725.05" style="fill:#61dea6"/><polygon points="609.66 725.06 610.83 724.47 651.61 745.04 650.44 745.63 609.66 725.06" style="fill:#61dea6"/><polygon points="1027.02 513.11 985.92 533.98 984.76 534.57 944.24 555.14 943.08 555.73 902.57 576.31 901.41 576.9 860.88 597.48 859.73 598.07 819.21 618.64 818.05 619.23 777.53 639.81 776.37 640.4 735.86 660.97 734.7 661.56 694.19 682.13 693.02 682.73 652.5 703.3 651.34 703.89 610.83 724.47 609.66 725.06 568.58 745.93 567.41 745.34 608.49 724.47 609.66 723.88 650.17 703.3 651.34 702.71 691.85 682.14 693.02 681.54 733.53 660.97 734.69 660.38 775.2 639.81 776.36 639.22 816.88 618.64 818.04 618.05 858.56 597.48 859.72 596.89 900.24 576.31 901.4 575.72 941.91 555.14 943.07 554.55 983.59 533.98 984.75 533.39 1025.85 512.52 1027.02 513.11" style="fill:#61dea6"/><polygon points="735.24 746.22 736.4 745.63 777.18 766.21 776.02 766.8 735.24 746.22" style="fill:#61dea6"/><polygon points="820.03 745.63 861.4 766.5 860.23 767.09 818.86 746.22 820.03 745.63" style="fill:#61dea6"/><polygon points="651.61 746.22 652.78 745.63 693.56 766.21 692.39 766.8 651.61 746.22" style="fill:#61dea6"/><polygon points="1068.96 534.27 1027.87 555.14 1026.71 555.73 986.18 576.31 985.02 576.9 944.51 597.47 943.35 598.06 902.83 618.64 901.67 619.23 861.16 639.8 860 640.39 819.48 660.97 818.32 661.56 777.8 682.13 776.64 682.72 736.13 703.3 734.96 703.89 694.45 724.47 693.29 725.06 652.78 745.63 651.61 746.22 610.52 767.09 609.35 766.5 650.44 745.63 651.61 745.04 692.12 724.47 693.28 723.88 733.79 703.3 734.96 702.71 775.48 682.13 776.63 681.54 817.15 660.97 818.31 660.38 858.83 639.8 859.99 639.21 900.5 618.64 901.66 618.05 942.18 597.47 943.34 596.88 983.86 576.31 985.02 575.72 1025.54 555.14 1026.7 554.55 1067.8 533.68 1068.96 534.27" style="fill:#61dea6"/><polygon points="693.56 767.39 694.73 766.8 735.51 787.37 734.34 787.97 693.56 767.39" style="fill:#61dea6"/><polygon points="778.35 766.8 819.72 787.67 818.55 788.26 777.19 767.39 778.35 766.8" style="fill:#61dea6"/><polygon points="1110.92 555.44 1069.82 576.31 1068.66 576.9 1028.14 597.48 1026.98 598.07 986.47 618.64 985.31 619.23 944.78 639.81 943.63 640.4 903.11 660.97 901.95 661.56 861.43 682.14 860.27 682.73 819.76 703.3 818.6 703.89 778.09 724.47 776.92 725.06 736.4 745.63 735.24 746.22 694.73 766.8 693.56 767.39 652.48 788.26 651.31 787.67 692.39 766.8 693.56 766.21 734.08 745.63 735.24 745.04 775.75 724.47 776.92 723.88 817.43 703.3 818.59 702.71 859.1 682.14 860.26 681.55 900.78 660.97 901.95 660.38 942.46 639.81 943.62 639.22 984.14 618.64 985.3 618.05 1025.81 597.48 1026.97 596.89 1067.49 576.31 1068.65 575.72 1109.75 554.85 1110.92 555.44" style="fill:#61dea6"/><polygon points="736.68 787.96 778.04 808.83 776.87 809.43 735.51 788.55 736.68 787.96" style="fill:#61dea6"/><polygon points="1152.86 576.6 1111.77 597.47 1110.61 598.06 1070.09 618.64 1068.92 619.23 1028.41 639.8 1027.25 640.39 986.73 660.97 985.57 661.56 945.06 682.13 943.9 682.72 903.38 703.3 902.22 703.89 861.7 724.47 860.54 725.05 820.03 745.63 818.86 746.22 778.35 766.8 777.19 767.39 736.68 787.96 735.51 788.55 694.42 809.42 693.25 808.83 734.34 787.97 735.51 787.37 776.02 766.8 777.18 766.21 817.69 745.63 818.86 745.04 859.37 724.47 860.53 723.88 901.05 703.3 902.21 702.71 942.73 682.13 943.89 681.54 984.4 660.97 985.56 660.38 1026.08 639.8 1027.24 639.21 1067.76 618.64 1068.92 618.05 1109.44 597.47 1110.6 596.88 1151.69 576.01 1152.86 576.6" style="fill:#61dea6"/></g><polygon points="290.85 491.38 350.33 449.66 350.33 390.18 290.85 431.9 290.85 491.38" style="fill:#84bf18"/><polygon points="290.86 491.38 283.79 486.37 283.79 426.9 290.86 431.9 290.86 491.38" style="fill:#71a314"/><polygon points="343.25 385.15 350.33 390.18 290.83 431.89 283.79 426.9 343.25 385.15" style="fill:#9ce01c"/><path d="M301.53,448.1a56.75,56.75,0,0,1,7.22-16.36A57.62,57.62,0,0,1,319,420a44.48,44.48,0,0,1,5.47-4,27.81,27.81,0,0,1,5.17-2.52c3.29-1.14,6.16-1.08,8.34.35-2.65-.37-5.72.59-8.81,2.43a32.51,32.51,0,0,0-4.61,3.37,40.36,40.36,0,0,0-4.3,4.36,45,45,0,0,0-6.8,10.93,47.74,47.74,0,0,0-2.26,6.39l5-3.5c-3.61,8.31-7.11,16.66-10.79,24.94a113.45,113.45,0,0,1-10.42-10Z" style="fill:#fff"/><path d="M320.75,459.41a44.27,44.27,0,0,0,4.15-4.82A44.89,44.89,0,0,0,331,443.12a46.92,46.92,0,0,0,1.75-6.45c-1.91,1.67-2.88,2.51-4.84,4.2,3-8.36,5.87-16.75,8.92-25.09a57.38,57.38,0,0,1,11.25,7.46c-2.33,2.08-3.55,3.15-6.07,5.36a57.62,57.62,0,0,1-5.83,16.83,54.57,54.57,0,0,1-9.46,12.69,49.6,49.6,0,0,1-5.42,4.57,38.18,38.18,0,0,1-5.36,3.27c-3.49,1.72-6.68,2.38-9.22,1.69a21.48,21.48,0,0,0,9.43-4.26A41.13,41.13,0,0,0,320.75,459.41Z" style="fill:#fff"/><polygon points="1032 350.08 980.75 314.13 980.75 262.89 1032 298.83 1032 350.08" style="fill:#00bcf1"/><polygon points="1031.99 350.08 1038.08 345.76 1038.08 294.52 1031.99 298.83 1031.99 350.08" style="fill:#0088af"/><polygon points="986.85 258.56 980.75 262.89 1032.01 298.82 1038.08 294.52 986.85 258.56" style="fill:#5bcaf4"/><path d="M1022.8,312.79a48.8,48.8,0,0,0-6.23-14.09,49.51,49.51,0,0,0-8.86-10.15,37.62,37.62,0,0,0-4.7-3.44,23.33,23.33,0,0,0-4.46-2.17c-2.84-1-5.31-.93-7.19.3,2.29-.32,4.94.51,7.59,2.09a27.6,27.6,0,0,1,4,2.9,34.75,34.75,0,0,1,3.71,3.76,38.41,38.41,0,0,1,5.86,9.42,42,42,0,0,1,2,5.5l-4.29-3c3.1,7.16,6.12,14.35,9.29,21.49a97.81,97.81,0,0,0,9-8.65Z" style="fill:#fff"/><path d="M1006.24,322.54a37.06,37.06,0,0,1-3.58-4.16,38.52,38.52,0,0,1-5.23-9.88,39.57,39.57,0,0,1-1.51-5.55l4.17,3.61c-2.54-7.2-5.06-14.43-7.68-21.61a49.45,49.45,0,0,0-9.7,6.42c2,1.79,3.07,2.72,5.23,4.62a49.49,49.49,0,0,0,5,14.5,46.68,46.68,0,0,0,8.15,10.93,41.55,41.55,0,0,0,4.67,3.94,32.68,32.68,0,0,0,4.61,2.82c3,1.48,5.76,2.05,8,1.45a18.3,18.3,0,0,1-8.12-3.67A34,34,0,0,1,1006.24,322.54Z" style="fill:#fff"/><polygon points="793.62 631.13 912.28 699.64 977.52 661.96 858.87 593.46 793.62 623.68 793.62 631.13" style="fill:#b3b8dc"/><polygon points="793.62 623.68 912.28 692.19 977.52 654.51 858.87 586 793.62 623.68" style="fill:#dbdff1"/><polygon points="977.52 654.51 977.52 661.96 912.28 699.64 912.28 692.19 977.52 654.51" style="fill:#8c8fb4"/><polygon points="920.54 633.63 901.24 621.7 901.24 97.76 920.54 109.7 920.54 633.63" style="fill:#b3b8dc"/><polygon points="920.54 633.63 930.61 627.45 930.61 103.52 920.54 109.7 920.54 633.63" style="fill:#8c8fb4"/><polygon points="901.24 97.76 911.31 91.58 930.61 103.52 920.54 109.7 901.24 97.76" style="fill:#dbdff1"/><polygon points="916.93 120.97 904.84 113.89 904.84 110.14 916.93 117.22 916.93 120.97" style="fill:#314d51"/><polygon points="916.93 139.38 904.84 132.3 904.84 128.56 916.93 135.63 916.93 139.38" style="fill:#314d51"/><polygon points="916.93 157.79 904.84 150.71 904.84 146.97 916.93 154.05 916.93 157.79" style="fill:#314d51"/><polygon points="916.93 176.21 904.84 169.13 904.84 165.38 916.93 172.46 916.93 176.21" style="fill:#314d51"/><polygon points="916.93 194.62 904.84 187.54 904.84 183.79 916.93 190.87 916.93 194.62" style="fill:#314d51"/><polygon points="916.93 213.03 904.84 205.95 904.84 202.21 916.93 209.28 916.93 213.03" style="fill:#314d51"/><polygon points="916.93 231.44 904.84 224.37 904.84 220.62 916.93 227.7 916.93 231.44" style="fill:#314d51"/><polygon points="916.93 249.86 904.84 242.78 904.84 239.03 916.93 246.11 916.93 249.86" style="fill:#314d51"/><polygon points="916.93 268.27 904.84 261.19 904.84 257.44 916.93 264.52 916.93 268.27" style="fill:#314d51"/><polygon points="916.93 286.68 904.84 279.6 904.84 275.86 916.93 282.94 916.93 286.68" style="fill:#314d51"/><polygon points="916.93 305.09 904.84 298.01 904.84 294.27 916.93 301.35 916.93 305.09" style="fill:#314d51"/><polygon points="916.93 323.51 904.84 316.43 904.84 312.68 916.93 319.76 916.93 323.51" style="fill:#314d51"/><polygon points="916.93 341.92 904.84 334.84 904.84 331.09 916.93 338.17 916.93 341.92" style="fill:#314d51"/><polygon points="916.93 360.33 904.84 353.25 904.84 349.51 916.93 356.59 916.93 360.33" style="fill:#314d51"/><polygon points="916.93 378.75 904.84 371.67 904.84 367.92 916.93 375 916.93 378.75" style="fill:#314d51"/><polygon points="916.93 397.16 904.84 390.08 904.84 386.33 916.93 393.41 916.93 397.16" style="fill:#314d51"/><polygon points="916.93 415.57 904.84 408.49 904.84 404.75 916.93 411.82 916.93 415.57" style="fill:#314d51"/><polygon points="916.93 433.98 904.84 426.9 904.84 423.16 916.93 430.24 916.93 433.98" style="fill:#314d51"/><polygon points="916.93 452.39 904.84 445.32 904.84 441.57 916.93 448.65 916.93 452.39" style="fill:#314d51"/><polygon points="916.93 470.81 904.84 463.73 904.84 459.98 916.93 467.06 916.93 470.81" style="fill:#314d51"/><polygon points="916.93 489.22 904.84 482.14 904.84 478.39 916.93 485.47 916.93 489.22" style="fill:#314d51"/><polygon points="916.93 507.63 904.84 500.55 904.84 496.81 916.93 503.89 916.93 507.63" style="fill:#314d51"/><polygon points="916.93 526.04 904.84 518.97 904.84 515.22 916.93 522.3 916.93 526.04" style="fill:#314d51"/><polygon points="916.93 544.46 904.84 537.38 904.84 533.63 916.93 540.71 916.93 544.46" style="fill:#314d51"/><polygon points="916.93 562.87 904.84 555.79 904.84 552.04 916.93 559.13 916.93 562.87" style="fill:#314d51"/><polygon points="916.93 581.28 904.84 574.2 904.84 570.46 916.93 577.54 916.93 581.28" style="fill:#314d51"/><polygon points="916.93 599.7 904.84 592.62 904.84 588.87 916.93 595.95 916.93 599.7" style="fill:#314d51"/><polygon points="916.93 618.11 904.84 611.03 904.84 607.28 916.93 614.36 916.93 618.11" style="fill:#314d51"/><path d="M711.28,174a2,2,0,0,1,.65.18.48.48,0,0,1,.64.11c3.8,4.23,11.42,8.14,11.64,14.4.1,2.59-6,6.86-6.9,9.48-1.14,3.34,2.59,5.23,3.86,6.68,1.89,2.19,6.55,6.67-4.75,13.67-7.64,4.72.94,11.6-8.64,13.36-16,2.93-24.84-7.71-25.74-23.41C681.21,194.09,695.82,172.91,711.28,174Z" style="fill:#6d362f"/><path d="M705.83,472.23c0,20.26,3.63,70.94,2.17,88.79,5.21.45,14.15-5.41,19.45-6.41-.07-4.6,1.66-33.08,2.13-37.78,1.44-14.22,8.13-37.27,12.62-57s5.72-25,2.27-33.67-22.94-82.7-22.94-82.7c-36.1,53-12.4,88.23-11.81,100C709.78,444.72,705.82,458.25,705.83,472.23Z" style="fill:#f9b1a0"/><path d="M649.12,501.89c-.29,18.5,4.08,50.83,5.44,70,3.93.36,15.41.17,17.68,0,2.14-14.38,12.28-78.81,15.06-87.83,3.88-12.62,2.41-65.92,2.41-65.92s-31.55-11.68-36.32-3c-2.78,5.06.34,20.34,2.4,42.46C657.25,473.36,649.52,477.07,649.12,501.89Z" style="fill:#ffc4b2"/><path d="M711.61,223.17s16.36-3.12,23.11,9.29c2.5,4.58,19,33.94,25.52,45.39,3.8,6.61,4,10.3,2.67,16.26a45.43,45.43,0,0,1-7.06,16.35c-5.06,7-16.26,14.18-18.14,22.19-1.31,5.61,3.42,16.55-1.29,22.89-3.27,4.42,1.33,4.18,4.71,7.07s2.66,7.46-4.71,4-23.28-9-23.28-9,5.07-16.84,8.07-27.47,17.71-27.33,23.65-37.85c-6.32-14.39-35.65-44.47-35.65-44.47Z" style="fill:#ffc4b2"/><path d="M695.68,433.52C684,443.4,662,440,646.92,435.87c-2.32-13.83-7.59-36.5-4.18-50.91,5.21-22.08,12.92-35.42,12.92-35.42,25.94,17.51,74.08-3,74.08-3l19.13,65.43c-9.67,14.88-34.94,17.35-47.7,14.35-2.41-9.77-4.86-14.35-4.86-14.35Z" style="fill:#5b5353"/><path d="M700,399.28s7.93-11.69,4.74-31.53-4.9-22.75-4.9-22.75h5.66s6.28,10.9,6.1,21S713.28,394.91,700,399.28Z" style="fill:#3a3535"/><path d="M641.62,393.24s37-2.83,40.38-30.08-26.34-13.62-26.34-13.62A125.11,125.11,0,0,0,641.62,393.24Z" style="fill:#3a3535"/><path d="M724,356.88s8.25,19.89,13.25,15.26l-7.5-25.63Z" style="fill:#3a3535"/><path d="M691.83,249.22c-10.47-3.67-17.83-20.33-20.63-27.69a5.06,5.06,0,0,0,.39-.77c3.38-9.22,1.1-22.57,1.1-22.57l23.21,6.34c.26,5.26.34,10.38,3.11,13.47a11.31,11.31,0,0,0,3.73,2.36c2.13,4.23,6.52,13.46,8.69,21.68C713.21,248.78,702,252.78,691.83,249.22Z" style="fill:#f9b1a0"/><path d="M726.65,248.5c3,6.2,6.1,14-1,26.38-3.07,13.34-1.41,17.92-1.21,33.91.2,15.59,8.32,43.43,8.32,43.43s-5.72,11.07-28,15.53c-30.08,6-54.67-12.47-54.67-12.47s17.86-36.33,14.56-49.69c-6.86-27.8-9.18-33.87-10.77-38.36a66.65,66.65,0,0,1-3-32.73s16.83-6.54,20.28-13c2.8,7.36,11.9,22.24,22.37,25.9,10.17,3.56,16.85-1.92,15.07-8.65-2.17-8.23-7.5-16.55-9.63-20.78,4,1.74,13.12,5.21,15.35,5.38C716.14,226.47,720.75,236.13,726.65,248.5Z" style="fill:#fe733e"/><path d="M707.85,159.57c11,11.48,6.58,51.18-9.64,53.79-10.52,1.68-25.3-7.67-30.63-26.05C663.11,171.91,687,137.84,707.85,159.57Z" style="fill:#ffc4b2"/><path d="M646.52,196.89c1.82-2.88.39-6.85-.42-9.45-2.35-7.62-1.86-11.28,5.51-16.12,3.78-2.48,5.37-17.52,6.85-20.07,3.95-6.82,7.15-14,17.91-8.08,2.57-6.36,11.77-9.43,26.74-2.49,4.17,1.93,7.09,7.73,8.5,11.85,2.75,7.95,5.51,10.32,13.6,12.35-1.32,2.83-5.92,9-12.23,6-7.7-3.66-22.53,4.09-31,2.78-2.36,2.35-3.07,5.89-4.4,9.42-9-5.75-10,4.27-5,9.72,4.84,27.6-1.46,35.49-17.62,40-5.12,1.43-9.11,1.34-9.48-5.78-.31-6,8.6-9.53,3.79-16.08-2.12-2.88-4.88-1.15-6.31-5.45S646,197.66,646.52,196.89Z" style="fill:#6d362f"/><path d="M678.59,577.62c2.77,7.56,6.41,17.6,8.42,23.53,2.6,7.65,2.22,11,2.22,11s-9.34,9.56-15.79,8.59-12.64-5.23-15-8.88a30.32,30.32,0,0,1-2.75-6c1.23-9.09,3.52-21.76,7.11-25.95C666,576.11,673,576.51,678.59,577.62Z" style="fill:#fe733e"/><path d="M650.65,569.63s14.42-10.65,24.24-2.07c0,0,1.6,4.32,3.7,10.06-5.61-1.11-12.6-1.51-15.82,2.24-3.59,4.19-5.88,16.86-7.11,25.95-2.25-6.13-4.18-14.06-5-16.78C648.1,580.59,650.65,569.63,650.65,569.63Z" style="fill:#e04c1e"/><path d="M658.24,610.34c-1.48-8.11,4-21.88,4-21.88a217.72,217.72,0,0,1,.14,25.15A7.75,7.75,0,0,0,658.24,610.34Z" style="fill:#fff"/><path d="M652.17,600.06C648,586.73,658,578.41,658,578.41a85.59,85.59,0,0,0-4.15,25A7.53,7.53,0,0,0,652.17,600.06Z" style="fill:#fff"/><path d="M670.38,565s3.72,13.69,5,19.27-4.45,11.91-8.09.93-6.71-20.2-6.71-20.2S665.48,561.31,670.38,565Z" style="fill:#fff"/><path d="M689.23,612.1s-5.61-3.63-10.7-1.69-7.52,9.21-14.06,2.91S653.85,600.49,653,597.64s-3.52-15.37-3.52-15.37a33.6,33.6,0,0,0,0,10.24c.89,5.29,6,16.54,10.1,20.56s10.91,10.91,24.73,5.34C692.47,615.13,689.23,612.1,689.23,612.1Z" style="fill:#442739"/><path d="M732.4,552.16a14.67,14.67,0,0,1,2.75-.12c3.16,3.3,8.18,8.43,13,12.91,5.37,5,8.35,9.81,14,13.89,4.88,3.53-2.12,7.92-10.08,10.36-4,1.22-9.85.5-13.91-.63-5.75-1.6-6.73-4.81-14-11.69,0-3,0-6,0-8.77C724.29,556.75,732.4,552.16,732.4,552.16Z" style="fill:#fe733e"/><path d="M709,567.9c-4.77-2.83-7.79-8.59-7.79-8.59s.51-15.23,5.61-15.73c3.42-.34,1.13,10.5,6.43,10,6.32-.61,14.23-6.29,18.62-4.94,0,0,1.26,1.35,3.24,3.41a14.67,14.67,0,0,0-2.75.12s-8.11,4.59-8.25,16c0,2.78,0,5.8,0,8.77-.15-.13-.26-.25-.42-.4C720,573.08,713.35,570.47,709,567.9Z" style="fill:#e04c1e"/><path d="M729.56,562.37a40.88,40.88,0,0,0,0,13.58,31.43,31.43,0,0,0,3.78,10.21l-6.44-6.52S724,566.73,729.56,562.37Z" style="fill:#fff"/><path d="M724.1,556.13a33.32,33.32,0,0,0-3.67,17.18c.65,9.66-4.32-2.38-4.32-2.38S717.17,558.61,724.1,556.13Z" style="fill:#fff"/><path d="M729.55,548.48c4.88,4,8.13,9.3,11.63,13.46s-.46,6.74-4.65,2.59c-4.7-4.65-12.38-14.49-12.38-14.49S728.2,548.09,729.55,548.48Z" style="fill:#fff"/><path d="M763.71,581.07s-4.81-.69-8,2.79-6.84,4.82-13.59,4.21-10.91-7.39-18.13-12.48-14-7.2-16.89-9.26c-3.71-2.7-5.37-12-5.37-12s-1.88,4.83-1.66,6.7c.38,3.34,2.94,6.26,4.47,7.56a21.15,21.15,0,0,0,9,5.14A44.49,44.49,0,0,1,724,579.46c2.37,1.91,7.09,10.3,15.13,11.89s17,.52,21.62-3.82S763.71,581.07,763.71,581.07Z" style="fill:#442739"/><path d="M638.76,312.21S649,300.56,655.7,289.36c4.56-7.61,10-15.67,11.33-25.47,2-14.71-8.9-31.78-12.72-31.12-10,1.73-14.84,6.58-20.49,31.32-2.4,10.54-12.23,31.46-17.27,41.59-3.18,6.38-1.61,5.11,3.52,16.94s23.57,28.81,23.86,31.44c.58,5.25-1.3,7.05-2.31,11.14-2.22,9,4.35,11.74,4.35,11.74s-12.15,4.13-9.32,7.78c3.37,4.35,11.33-.23,17.39-5.38,9.42-8,6.17-29-.28-43.77S638.76,312.21,638.76,312.21Z" style="fill:#ffc4b2"/><path d="M646,430.5c0,.19,14.09,6.67,29.55,4.55s20.25-4.55,20.25-4.55l-.52,9.47s-5,5.35-22.8,6S646,440,646,440Z" style="fill:#3a3535"/><path d="M699.85,421.44l1.69,9.06a45.47,45.47,0,0,0,30.46,0c11.92-4.15,16.87-10,18.6-13.8l-3-9.12s-6.63,9.19-17,13S699.85,421.44,699.85,421.44Z" style="fill:#3a3535"/><path d="M718,256.4A101,101,0,0,0,706.38,216c-.43.16-.84.34-1.26.53a99.66,99.66,0,0,1,11.54,40c1.4,22.38-4.82,43.57-7.12,50.48a107.49,107.49,0,0,0-19.7-41.66c-11.91-15.09-22.28-30.6-27.07-38-.31.34-.64.66-1,1,4.87,7.48,15.17,22.84,27,37.8a104.67,104.67,0,0,1,19.92,43.52l.4,2.55.91-2.41C710.1,309.54,719.74,283.87,718,256.4Z" style="fill:#6d362f"/><path d="M716.31,331.24l-11.12,6.42c-1.53.88-2.79-.07-2.79-2.12v-32a6.74,6.74,0,0,1,2.79-5.34l11.12-6.41c1.53-.89,2.79.06,2.79,2.11v32A6.74,6.74,0,0,1,716.31,331.24Z" style="fill:#c9b1b1"/><polygon points="720.31 292.9 718.1 291.61 716.72 292.7 719.18 294.88 720.31 292.9" style="fill:#c9b1b1"/><polygon points="703.3 337.75 705.5 339.04 706.21 337.6 703.87 336.19 703.3 337.75" style="fill:#c9b1b1"/><path d="M718.49,332.52l-11.12,6.42c-1.54.89-2.79-.06-2.79-2.11v-32a6.69,6.69,0,0,1,2.79-5.34L718.49,293c1.53-.89,2.79.06,2.79,2.11v32A6.74,6.74,0,0,1,718.49,332.52Z" style="fill:#ddd4d3"/><polygon points="719.65 325.31 706.21 333.07 706.21 304.09 719.65 296.33 719.65 325.31" style="fill:#fff"/><path d="M715.3,332.11l-4.74,2.74c-.46.26-.83,0-.83-.63h0a2,2,0,0,1,.83-1.59l4.74-2.73c.46-.27.83,0,.83.62h0A2,2,0,0,1,715.3,332.11Z" style="fill:#fff"/><path d="M850.84,626c.13-.14,14.38-10.8,14.54-10.94,6.18-4.71,7-16.42,7-16.42l-9.29-66.92-1.62-20.64s-10.2-63.65-5.32-63.35l40.4,2.36c-.09,3.87-2.42,9.93-3.11,12-1,2.89,6.46,5.84,6.55,13.25l-5.6,130.19-.09,3.49-.15,8.16c.06,2.82-2.41,7.88-6,8.88-3.07.86-5.81,1.71-5.81,1.71s-29.39,7-32.13,5.87C844.13,631.06,850.21,626.67,850.84,626Z" style="fill:#e89682"/><polygon points="885.38 635.45 878.87 630.76 884.81 626.01 888.81 626.85 885.38 635.45" style="fill:#5b5454"/><path d="M893.45,626.8l-2.8,6.88s-.41,1.26-3.42,1.65c-.78.1-1.85.12-1.85.12l.88-8.29Z" style="fill:#7c7676"/><path d="M842,637.3c-1.7-1.72-.86-4.67.19-5.2,4.29-2.2,6.56-3.24,6.56-3.24-2.12,1.91,2.25,2.35,5.9,3.23a26.57,26.57,0,0,0,15-.58c4-1.33,11.18-5,14.11-6.37,9.79-4.75,11.75-10.32,11.75-10.32A27.88,27.88,0,0,1,895,621c-1,5.45-3.43,6-3.43,6s.56.46-4.66,1.63c-5.88,1.29-17.37,9.72-25.14,11.87C855.35,642.21,846.17,641.45,842,637.3Z" style="fill:#7c7676"/><path d="M842.6,635.6c-2.37-2.52-.23-3.93,1.74-5.28l6.5-4.32c-2.11,1.92-2.47,3.84,3.48,5.09a23.76,23.76,0,0,0,15.41-2.57c4.91-2.56,12.18-7.64,14.13-8.89,9.19-5.88,11.76-10.3,11.76-10.3s1.63,6.59.94,10.31c-1,5.45-3.7,8-3.7,8l-7.88.41c-5.73,1.45-13.62,8.2-22.88,10.47C852.61,640.87,845.5,638.67,842.6,635.6Z" style="fill:#2563ea"/><path d="M878,328.5s-17.92-5.62-24.51-38.67c-5.57-27.94,6.24-42.69,19.33-47.9,12.14-4.83,28.17-2.12,33.57,4.62,5.09,6.36,3.27,14.6-4.44,25-9.54,12.81-25.12,13.65-29.73,21.75-1.71,3-1.8,6.81-1.59,10.48C871.64,321.07,874.24,324.63,878,328.5Z" style="fill:#22201e"/><path d="M846.49,447.17l16.08,2.68,11.07-58.23L876.87,352c1.7-10.51,2.21-27.76-8.9-28.82-14.48-1.39-15.15,20.27-15.15,20.27l.55,46.16Z" style="fill:#3b76f7"/><path d="M854.4,456.6c1,3.71-3.11,7.36-6.28,8.18-1.1.29,0,7.41-.91,10.43a2.88,2.88,0,0,1-4.7,1.51c-.51-.54-.22-11.44-.24-14.19-.09-9.17,3.09-10.33,6.25-11.15S853.43,452.91,854.4,456.6Z" style="fill:#e89682"/><path d="M858.55,450.5l-9.41-1.12-4.6,11.43-.16,1.94.06,15.61s-.53,7.51,7,8.41c4.89.58.53.06.53.06,6.71.8,8.55-8.76,8.55-8.76L863,461.63C863.46,457.42,862.86,451,858.55,450.5Z" style="fill:#f9b1a0"/><path d="M855.61,444.59c7.56.67,8.82-3.25,8.75-2.53a3.38,3.38,0,0,1,.75,3.43c-.2.68-2.37,8.43-4.43,9.52,0,0-1.94,2-11.33,0-7.27-1.56-5.6-6.17-5.63-6.92l1.62-7.62a2.42,2.42,0,0,1,1.92-1.78S847.19,443.85,855.61,444.59Z" style="fill:#fff"/><path d="M871.54,644.87c.14-.13,6.81-9.43,8.67-12.11,7.24-10.37,4.79-23.5,4.79-23.5l-.22-1.51-4.37-63.29s-1.46-10.84.94-33.2c.17-1.66-19.07-58.1-19.12-59.36l57.29-.46.22,1c2.59,12.07,1,21,.31,28.57-.4,4.43-10,122.42-10.85,133.71l0,11.53c.06,2.81-.5,3.84-2.32,7.14-2,3.68-15.9,15.45-15.9,15.45s-8.84,8.23-17.75,4.68c-4.61-1.84-4.4-5.64-2.11-8.17A5.22,5.22,0,0,1,871.54,644.87Z" style="fill:#f9b1a0"/><path d="M853,467.82c1.3,13.53,2.71,51.87,2.71,51.87.06,2.71,17.89,14.17,30,15.54,14.76,1.65,29.36-3.8,29.36-3.8a3.65,3.65,0,0,0,3.73-3.7c.71-22.23,2.47-46.62,2.52-48.32a199.61,199.61,0,0,0-2.52-37.73l-60.92-20.21C857.93,422.62,850.25,439,853,467.82Z" style="fill:#5b5353"/><path d="M920,450.18c.26,2.25.5,4.49.67,6.68-6.06,2.49-20.44,7.05-39.57,4.21a52.33,52.33,0,0,1-24-10.46c-2.93-2.13-2.69-4-4.14-6.2a96.38,96.38,0,0,1,2.48-14.52c.54-1,1-1.82,1.4-2.41l57.12,13,4.86,1.22c.41,2.33.73,4.67,1,7Z" style="fill:#3a3535"/><path d="M863.28,323.91l-12.12,41.24s-2.58,8.18-2.11,12.9c.68,6.64,5.11,12.56,5.42,13.05a26,26,0,0,1,3.16,18.59l-3.8,27.8s-.17,4.93,14.06,12.59c22.6,12.16,50.36-.24,50.36-.24,1.13-1.06-1.49-13.53-1.76-14.8l-4.11-20.3a36,36,0,0,1-.85-9.65l7.21-27.15s6.62-24.93-.47-32.87a144.64,144.64,0,0,0-23.81-20.25,37.55,37.55,0,0,0-8.73-3.48S871.43,318.35,863.28,323.91Z" style="fill:#2563ea"/><path d="M871.51,337.33c10.6,9.75,15.83-1.12,21.88-9.33l-.16-30.32-23.47,2.86Z" style="fill:#e89682"/><path d="M893.24,318.39s.24,3.85.12,4.53c-1.9,11.65-15.53,16.52-15.53,16.52-1.71,1-1.55,3.08-1.23,5.84l1.21,8.16c.32,2.66,1.67,2.37,2.67,1.26,0,0,10.2-9.4,13-12.54,6.7-7.4,6.07-9.06,3.18-18.24C895,318.38,893.24,318.39,893.24,318.39Z" style="fill:#fff"/><path d="M900,467.38l16.19,1.7,7.7-58.84,1-39.75c.55-10.26-1.3-27.42-12.67-28.07-13.6-.79-12.22,18.19-12.22,18.19l3.61,48.86Z" style="fill:#3b76f7"/><path d="M907.92,476.19c-.13,3.81-5,6.09-8.33,5.94-1.14-.06-2.05,7.07-3.81,9.67a2.88,2.88,0,0,1-4.94.05c-.33-.66,3-11,3.75-13.6,2.49-8.77,5.87-8.93,9.15-8.78S908,472.38,907.92,476.19Z" style="fill:#f9b1a0"/><path d="M912.22,470l-9.44-.56-3.93,11.7-.06,1.95,1,15.6s-.1,7.52,7.43,8l.53,0c6.75.4,8-9.27,8-9.27l1.5-16.57C917.52,476.59,916.55,470.23,912.22,470Z" style="fill:#f9b1a0"/><path d="M909,464.25c7.58.21,8.61-3.78,8.57-3.06a3.39,3.39,0,0,1,1,3.38c-.16.7-1.88,8.57-3.87,9.78,0,0-1.82,2.12-11.3.68-7.35-1.11-5.94-5.82-6-6.57l1.19-7.71c-.08-.68,1.14-1.93,1.81-1.89C900.29,458.86,900.52,464,909,464.25Z" style="fill:#fff"/><path d="M875.69,337.69c1.16,1.46,1.35,2.32.61,3.43l-6,7.1c-2.06,2.69-2.38.53-2.47-1.64l-.27-15.1c.65-9.84,3.19-10.33,3.19-10.33s0,.75.11,2.78C871,327.36,872.15,333.26,875.69,337.69Z" style="fill:#fff"/><path d="M875.66,265c-15.55,1.45-14.5,14.77-14,23.65.35,6.21,2.33,17.75,2.33,17.75,2.65,11.35,7.09,17.66,13.17,19.22,7.62,1.94,17.2-4,24.75-14.78,6.68-9.54,7.16-15.49,7.19-16.89l2.21-34.85S883.93,264.23,875.66,265Z" style="fill:#f9b1a0"/><path d="M885.33,331.86s36.23-5,41.52-41.05c2.78-18.9-4.13-40.84-27-49.31-14.72-5.46-27.57,6.66-30,16.44-3,12.42,1.35,21.56,9.87,26.58,15.62,9.21,15.75,18.11,15.23,24.75C894.22,319.38,889.51,327.92,885.33,331.86Z" style="fill:#2d2c2b"/><polygon points="903.74 648.24 896.44 645.02 901.28 639.1 905.34 639.07 903.74 648.24" style="fill:#5b5454"/><path d="M909.86,638l-1.33,7.35s-.15,1.32-3,2.34c-.74.27-1.79.52-1.79.52l-.82-8.32Z" style="fill:#7c7676"/><path d="M866.92,660.14c-3.43-2.07-2.12-6.36-1.9-6.84,1.86-4,5-3.43,5-3.43-1.68,2.35,4.63,4.81,8.37,4.9,4.55.1,9.2-3.18,14.33-6.22,3.63-2.15,7.25-6.94,9.53-9.29,7-7.22,7.24-13.43,7.24-13.43a27.84,27.84,0,0,1,.72,6.15c.12,5.57-2.14,6.57-2.14,6.57s-.24,1.94-5.1,4.2c-5.46,2.54-9,12.48-16.16,16.24C880.9,662.11,871.9,663.14,866.92,660.14Z" style="fill:#7c7676"/><path d="M867.13,658.35c-3.78-2.3-3.24-5.51,2.55-11.63.24-.25,1.56-1.55,1.56-1.55-1.68,2.33-1.17,5.81,4.83,6.79,4.88.79,10-.58,15.15-4.79,3.27-2.69,8.16-5.89,12.74-11.76,6.77-8.66,5.2-15.2,5.2-15.2s3.79,2.81,3,9.81a25.38,25.38,0,0,1-2.67,9l-7.94,3.92c-5.29,2.66-6.21,10-14.78,14.15C878,661.39,870.7,660.53,867.13,658.35Z" style="fill:#2563ea"/><polygon points="920.54 229.48 901.49 217.8 845.49 250.3 864.54 261.99 920.54 229.48" style="fill:#dbdff1"/><polygon points="920.54 229.48 920.54 239.1 864.54 271.6 864.54 261.99 920.54 229.48" style="fill:#8c8eba"/><polygon points="845.49 250.3 845.49 259.92 864.54 271.6 864.54 261.99 845.49 250.3" style="fill:#b6b7d8"/><polygon points="1188.79 304.32 1136.12 267.37 1136.12 214.71 1188.79 251.65 1188.79 304.32" style="fill:#00bcf1"/><polygon points="1188.78 304.32 1195.03 299.88 1195.03 247.22 1188.78 251.65 1188.78 304.32" style="fill:#0088af"/><polygon points="1142.39 210.25 1136.12 214.71 1188.79 251.64 1195.03 247.22 1142.39 210.25" style="fill:#5bcaf4"/><text transform="matrix(0.38, 0.3, -0.02, 1, 1146.12, 261.78)" style="font-size:40.2728385925293px;fill:#fff;font-family:Arial-BoldMT, Arial;font-weight:700">Feet</text><polygon points="1200.17 397.77 1136.12 352.97 1136.12 300.31 1200.17 345.11 1200.17 397.77" style="fill:#84bf18"/><polygon points="1200.17 397.77 1206.43 393.34 1206.43 340.68 1200.17 345.11 1200.17 397.77" style="fill:#71a314"/><polygon points="1142.39 295.85 1136.12 300.31 1200.17 345.11 1206.41 340.69 1142.39 295.85" style="fill:#9ce01c"/><text transform="matrix(0.38, 0.3, -0.02, 1, 1144.84, 345.16)" style="font-size:40.2728385925293px;fill:#fff;font-family:Arial-BoldMT, Arial;font-weight:700">inches</text><polygon points="1235.04 500.75 1136.12 431.44 1136.12 378.77 1235.04 448.09 1235.04 500.75" style="fill:#dc6320"/><polygon points="1235.04 500.75 1241.29 496.32 1241.29 443.66 1235.04 448.09 1235.04 500.75" style="fill:#b55116"/><polygon points="1142.39 374.32 1136.12 378.77 1235.04 448.09 1241.28 443.68 1142.39 374.32" style="fill:#ef7822"/><text transform="matrix(0.39, 0.29, -0.02, 1, 1140.47, 420.76)" style="font-size:40.272850036621094px;fill:#fff;font-family:Arial-BoldMT, Arial;font-weight:700">centimeters</text><ellipse cx="1123.12" cy="238.64" rx="2.16" ry="4.76" style="fill:#4e4d48"/><ellipse cx="1123.12" cy="324.26" rx="2.16" ry="4.76" style="fill:#4e4d48"/><ellipse cx="1123.12" cy="399.69" rx="2.16" ry="4.76" style="fill:#4e4d48"/><polyline points="1123.12 238.64 1080.96 238.64 1045.36 285.5" style="fill:none;stroke:#4e4d48;stroke-miterlimit:10"/><polyline points="1123.12 324.26 1080.84 324.26 1045.36 317.57" style="fill:none;stroke:#4e4d48;stroke-miterlimit:10"/><polyline points="1123.12 399.69 1080.84 399.69 1045.36 353.51" style="fill:none;stroke:#4e4d48;stroke-miterlimit:10"/><path d="M568.06,665.85l-5.11-3-34.59-5.61-35.42,4.47-26.8,13.35-10,17-.86.17-.13,1.51,7.8,18.94,5.11,2.95-5.95,3-2.75-.08-.12,1.51,19.37,11.22,119.09-59.33.13-1.51Zm-82.17,37.71-4.55-11.06,6.4-10.89,15.65-7.79,20.7-2.61,20.2,3.27,3,1.73-58.38,29.08Z" style="fill:#0088af"/><path d="M568.19,664.35l-5.12-3-34.58-5.6-35.42,4.47L466.26,673.6l-10.95,18.64,7.8,18.94,5.11,3-8.83,4.39,19.37,11.22,119.1-59.33L578.5,659.21ZM486,702.06,481.47,691l6.4-10.89,15.65-7.79,20.69-2.61,20.2,3.28,3,1.72L489,703.79Z" style="fill:#00bcf1"/><polygon points="482.43 727.92 483.88 727.2 478.33 723.98 476.87 724.7 482.43 727.92" style="fill:#f6f6f6"/><polygon points="489.78 724.26 491.23 723.54 485.66 720.33 484.22 721.05 489.78 724.26" style="fill:#f6f6f6"/><polygon points="497.11 720.6 498.57 719.88 493.01 716.67 491.57 717.39 497.11 720.6" style="fill:#f6f6f6"/><polygon points="504.46 716.95 505.92 716.23 500.35 713.01 498.9 713.73 504.46 716.95" style="fill:#f6f6f6"/><polygon points="511.8 713.29 513.26 712.56 507.7 709.35 506.25 710.07 511.8 713.29" style="fill:#f6f6f6"/><polygon points="519.14 709.63 520.6 708.91 515.04 705.69 513.59 706.42 519.14 709.63" style="fill:#f6f6f6"/><polygon points="526.49 705.97 527.94 705.25 522.39 702.03 520.93 702.76 526.49 705.97" style="fill:#f6f6f6"/><polygon points="533.83 702.32 535.28 701.59 529.73 698.38 528.28 699.1 533.83 702.32" style="fill:#f6f6f6"/><polygon points="541.18 698.66 542.62 697.94 537.07 694.72 535.62 695.44 541.18 698.66" style="fill:#f6f6f6"/><polygon points="548.53 695 549.97 694.28 544.42 691.06 542.96 691.78 548.53 695" style="fill:#f6f6f6"/><polygon points="555.86 691.35 557.31 690.62 551.75 687.4 550.3 688.12 555.86 691.35" style="fill:#f6f6f6"/><polygon points="563.21 687.69 564.65 686.97 559.1 683.75 557.64 684.47 563.21 687.69" style="fill:#f6f6f6"/><polygon points="570.55 684.03 572 683.3 566.44 680.09 564.99 680.81 570.55 684.03" style="fill:#f6f6f6"/><polygon points="577.89 680.37 579.35 679.65 573.78 676.43 572.34 677.15 577.89 680.37" style="fill:#f6f6f6"/><polygon points="585.23 676.71 586.69 675.99 581.12 672.77 579.68 673.5 585.23 676.71" style="fill:#f6f6f6"/><polygon points="587.02 669.84 592.58 673.06 594.03 672.33 588.48 669.12 587.02 669.84" style="fill:#f6f6f6"/><polygon points="625.28 715.45 551.83 752.8 550.37 753.55 550.47 753.75 547.85 755.09 546.5 755.76 547.06 757.11 549.19 758.36 551.67 758.75 552.99 758.06 555.61 756.74 556 756.79 557.44 756.05 630.87 718.72 639.39 711.39 625.28 715.45" style="opacity:0.30000000000000004"/><polygon points="636.32 710.06 635.77 709.41 639.61 708.52 636.32 710.06" style="fill:#7f6a66"/><polygon points="636.66 711.05 636.41 710.26 639.61 708.52 636.66 711.05" style="fill:#3c312e"/><polygon points="636.71 710.4 636.36 710.39 636.35 709.72 639.61 708.52 636.71 710.4" style="fill:#64534d"/><polygon points="629.81 717 626.69 714.61 626.85 711.45 630.39 710.95 636.35 709.72 636.71 710.4 632.01 714.05 629.81 717" style="fill:#ebc188"/><polygon points="629.81 717 629.97 714.82 636.71 710.4 636.66 711.05 629.81 717" style="fill:#c39a5a"/><polygon points="628.73 712.55 626.85 711.45 635.77 709.41 636.35 709.72 628.73 712.55" style="fill:#f3e2b8"/><polygon points="565.2 747.81 563.95 745.54 562.06 744.44 560.61 745.18 560.45 747.3 561.67 749.63 563.56 750.72 565.04 749.98 565.2 747.81" style="fill:#745853"/><polygon points="563.95 745.54 562.06 744.44 626.85 711.45 628.73 712.55 564.22 745.57 563.95 745.54" style="fill:#9ce01c"/><polygon points="565.2 747.81 563.95 745.54 628.73 712.55 629.97 714.82 565.44 747.95 565.2 747.81" style="fill:#84bf18"/><polygon points="565.04 749.98 565.2 747.81 629.97 714.82 629.81 717 565.04 749.98" style="fill:#71a314"/><polygon points="556.58 752.22 555.35 749.91 553.46 748.8 552.01 749.56 551.84 751.72 553.07 754 554.96 755.09 556.42 754.35 556.58 752.22" style="fill:#d4cdc3"/><polygon points="555.35 749.91 553.46 748.8 562.06 744.44 563.95 745.51 555.6 749.96 555.35 749.91" style="fill:#e2ddd9"/><polygon points="556.58 752.22 555.35 749.91 563.95 745.51 565.2 747.81 556.82 752.32 556.58 752.22" style="fill:#cdcdcd"/><polygon points="556.42 754.35 556.58 752.22 565.2 747.81 565.04 749.98 556.42 754.35" style="fill:#9f9891"/><polygon points="552.24 754.3 551.1 752.2 549.34 751.19 548.01 751.88 547.87 753.83 548.99 755.95 550.74 756.97 552.09 756.28 552.24 754.3" style="fill:#be685c"/><polygon points="551.1 752.2 549.34 751.19 553.32 749.18 555.07 750.2 551.34 752.24 551.1 752.2" style="fill:#f8a18d"/><polygon points="552.24 754.3 551.1 752.2 555.07 750.2 556.18 752.31 552.45 754.4 552.24 754.3" style="fill:#d1786e"/><polygon points="552.09 756.28 552.24 754.3 556.18 752.31 556.03 754.26 552.09 756.28" style="fill:#a2475b"/><polygon points="571.37 741.76 569.47 740.65 572.63 739.05 574.52 740.13 571.6 741.81 571.37 741.76" style="fill:#f9ce90"/><polygon points="572.59 744.05 571.37 741.76 574.52 740.13 575.77 742.45 572.83 744.18 572.59 744.05" style="fill:#f9ad52"/><polygon points="572.42 746.2 572.59 744.05 575.77 742.45 575.61 744.57 572.42 746.2" style="fill:#fb8c1c"/><polygon points="465.21 770.74 465.02 772.81 444.33 760.82 444.5 758.75 465.21 770.74" style="fill:#c43f2f"/><polygon points="680.38 663.52 680.21 665.58 465.02 772.81 465.21 770.74 680.38 663.52" style="fill:#b55116"/><polygon points="680.38 663.52 659.68 651.54 444.5 758.75 465.21 770.74 680.38 663.52" style="fill:#ef7822"/><polygon points="451.37 755.32 458.87 759.67 460.22 759 452.71 754.66 451.37 755.32" style="fill:#f6f6f6"/><polygon points="464.74 748.66 472.25 753.01 473.59 752.34 466.08 747.99 464.74 748.66" style="fill:#f6f6f6"/><polygon points="478.12 742 485.62 746.34 486.97 745.67 479.46 741.33 478.12 742" style="fill:#f6f6f6"/><polygon points="491.49 735.33 499.01 739.69 500.34 739.01 492.83 734.67 491.49 735.33" style="fill:#f6f6f6"/><polygon points="504.87 728.67 512.38 733.03 513.72 732.36 506.22 728 504.87 728.67" style="fill:#f6f6f6"/><polygon points="518.24 722.01 525.75 726.36 527.09 725.69 519.59 721.34 518.24 722.01" style="fill:#f6f6f6"/><polygon points="531.62 715.35 539.12 719.69 540.47 719.03 532.96 714.68 531.62 715.35" style="fill:#f6f6f6"/><polygon points="545 708.68 552.51 713.03 553.85 712.36 546.35 708.01 545 708.68" style="fill:#f6f6f6"/><polygon points="558.37 702.02 565.89 706.37 567.23 705.7 559.72 701.35 558.37 702.02" style="fill:#f6f6f6"/><polygon points="571.75 695.36 579.26 699.7 580.61 699.03 573.1 694.69 571.75 695.36" style="fill:#f6f6f6"/><polygon points="585.13 688.69 592.64 693.05 593.98 692.38 586.47 688.03 585.13 688.69" style="fill:#f6f6f6"/><polygon points="598.51 682.03 606.02 686.38 607.35 685.71 599.85 681.37 598.51 682.03" style="fill:#f6f6f6"/><polygon points="611.88 675.37 619.39 679.72 620.74 679.05 613.23 674.7 611.88 675.37" style="fill:#f6f6f6"/><polygon points="625.26 668.7 632.76 673.06 634.11 672.39 626.6 668.03 625.26 668.7" style="fill:#f6f6f6"/><polygon points="638.63 662.04 646.15 666.39 647.49 665.72 639.98 661.37 638.63 662.04" style="fill:#f6f6f6"/><polygon points="653.35 654.72 652.01 655.38 659.53 659.73 660.86 659.06 653.35 654.72" style="fill:#f6f6f6"/><polygon points="1099.8 597.26 1084.48 506.14 1036.9 595.41 1078.65 619.61 1099.8 597.26" style="fill:#00bcf1"/><polygon points="1078.65 619.61 1084.48 506.14 1122.74 597.93 1078.65 619.61" style="fill:#0088af"/><polygon points="1014.34 613.36 1012.15 656.58 993.72 645.92 995.93 602.69 1007.89 608.43 1014.34 613.36" style="fill:#84bf18"/><polygon points="1041.12 614.15 1038.92 657.37 1012.15 656.58 1014.34 613.36 1026.04 612.83 1041.12 614.15" style="fill:#7cb316"/><polygon points="1060.56 604.6 1058.36 647.82 1038.92 657.37 1041.12 614.14 1049.79 607.92 1060.56 604.6" style="fill:#71a314"/><path d="M1042.89,579.62l-26.78-.79-19.44,9.56-.74,14.3,18.41,10.67,26.78.79,19.44-9.55.73-14.31Z" style="fill:#9ce01c"/><polygon points="1090.18 716.16 1048.19 694.81 1061.18 646.48 1142.26 645.24 1090.18 716.16" style="fill:#dc6320"/><polygon points="1103.16 667.83 1061.18 646.48 1100.27 623.89 1142.26 645.24 1120.22 667.58 1103.16 667.83" style="fill:#ef7822"/><polygon points="1160.52 675.51 1090.18 716.16 1103.16 667.83 1142.26 645.24 1160.52 675.51" style="fill:#b55116"/><g id="calculator"><path d="M380.28,604.55l3.69-234c.24-15,10.79-33.46,23.57-41.27l125.53-76.74c7-4.26,13.21-4.44,17.45-1.32v0l9.48,5.84-4,5.18a29,29,0,0,1,.2,3.3V510c0,15-10.7,32.87-23.91,40L403.76,618.87a28.11,28.11,0,0,1-4.91,2l-1.76,5.3-9.46-5.91a12,12,0,0,1-1.44-.91l-.29-.17,0,0C382.32,616.42,380.17,611.39,380.28,604.55Z" style="fill:#8c8fb4"/><path d="M391,611.2c-.27,15,10.25,21.37,23.44,14.27L543,556.61a17.53,17.53,0,0,0,1.73-1c12.43-7.65,22.19-24.58,22.19-38.9V272.19c0-15-10.36-20.83-23.11-13L418.24,336c-12.75,7.81-23.33,26.26-23.55,41.23Z" style="fill:#dbdff1"/></g><path d="M418.69,363.48l46.12-26.88c2.19-1.26,4.18-1.33,5.6-.45h0l2.41,1.64-.71.57a7.64,7.64,0,0,1,.5,2.76v25c0,4.95-3.52,11-7.81,13.48l-46.09,26.46a7.28,7.28,0,0,1-3.13,1l-.22,1-2.05-1.43a3.3,3.3,0,0,1-.43-.3l-.41-.29,0,0a6,6,0,0,1-1.59-4.47V377C410.9,372,414.41,366,418.69,363.48Z" style="fill:#939598"/><path d="M467,338.1c4.29-2.47,7.8-.44,7.8,4.51v25A17.23,17.23,0,0,1,467,381.1L420.9,407.56c-4.29,2.47-7.81.43-7.81-4.52V378.48c0-5,3.51-11,7.8-13.5Z" style="fill:#fff"/><polygon points="547.47 406.93 549.72 408.61 547.47 409.89 547.47 439.48 524.89 451.79 524.89 454.71 522.64 453.02 522.64 420.99 547.47 406.93" style="fill:#71a314"/><polygon points="549.72 408.61 549.72 441.16 524.89 454.71 524.89 422.68 549.72 408.61" style="fill:#84bf17"/><polygon points="509.7 426.79 511.95 428.48 509.7 429.75 509.7 459.34 487.12 471.66 487.12 474.57 484.87 472.89 484.87 440.86 509.7 426.79" style="fill:#0088af"/><polygon points="511.95 428.48 511.95 461.03 487.12 474.57 487.12 442.54 511.95 428.48" style="fill:#00bcf1"/><polygon points="471.44 447.23 473.69 448.92 471.44 450.19 471.44 479.78 448.86 492.1 448.86 495.01 446.61 493.33 446.61 461.3 471.44 447.23" style="fill:#0088af"/><polygon points="473.69 448.92 473.69 481.47 448.86 495.01 448.86 462.99 473.69 448.92" style="fill:#00bcf1"/><polygon points="434.36 467.19 436.61 468.88 434.36 470.15 434.36 499.74 411.78 512.05 411.78 514.97 409.53 513.28 409.53 481.25 434.36 467.19" style="fill:#0088af"/><polygon points="436.61 468.88 436.61 501.42 411.78 514.97 411.78 482.94 436.61 468.88" style="fill:#00bcf1"/><polygon points="547.47 452.44 549.72 454.13 547.47 455.4 547.47 484.99 524.89 497.3 524.89 500.22 522.64 498.53 522.64 466.5 547.47 452.44" style="fill:#71a314"/><polygon points="549.72 454.13 549.72 486.67 524.89 500.22 524.89 468.19 549.72 454.13" style="fill:#84bf17"/><polygon points="509.7 472.3 511.95 473.99 509.7 475.26 509.7 504.85 487.12 517.17 487.12 520.08 484.87 518.4 484.87 486.37 509.7 472.3" style="fill:#0088af"/><polygon points="511.95 473.99 511.95 506.54 487.12 520.08 487.12 488.05 511.95 473.99" style="fill:#00bcf1"/><polygon points="471.44 492.74 473.69 494.43 471.44 495.71 471.44 525.29 448.86 537.61 448.86 540.52 446.61 538.84 446.61 506.81 471.44 492.74" style="fill:#0088af"/><polygon points="473.69 494.43 473.69 526.98 448.86 540.52 448.86 508.49 473.69 494.43" style="fill:#00bcf1"/><polygon points="434.36 512.7 436.61 514.39 434.36 515.66 434.36 545.25 411.78 557.57 411.78 560.48 409.53 558.79 409.53 526.76 434.36 512.7" style="fill:#0088af"/><polygon points="436.61 514.39 436.61 546.93 411.78 560.48 411.78 528.45 436.61 514.39" style="fill:#00bcf1"/><path d="M414.52,570.41l128.79-70.8a3.11,3.11,0,0,1,3.54,0l0-.05,1.59,1.79-.5.6a4.19,4.19,0,0,1,.11.51V515.2a10.11,10.11,0,0,1-4.77,8L414.53,593.43a5,5,0,0,1-1.89.63l-.4.93-2.09-1.79.07-.07a3.15,3.15,0,0,1-.8-2.18V578.73C409.42,575.74,411.91,571.86,414.52,570.41Z" style="fill:#0088af"/><path d="M549.19,503.77c0-3-2.14-4.25-4.75-2.8l-128.79,70.8a10.13,10.13,0,0,0-4.75,8V592c0,3,2.14,4.26,4.76,2.83l128.77-70.21a10.1,10.1,0,0,0,4.76-8Z" style="fill:#00bcf1"/><text transform="matrix(0.45, -0.27, -0.01, 1, 430.88, 393.71)" style="font-size:37.577640533447266px;fill:#1d1d1b;font-family:Arial-BoldMT, Arial;font-weight:700">5 ft</text><text transform="matrix(0.45, -0.27, -0.01, 1, 423.04, 448.92)" style="font-size:37.577640533447266px;fill:#1d1d1b;font-family:Arial-BoldMT, Arial;font-weight:700">=</text><path d="M496.37,319l46.11-26.87c2.2-1.27,4.18-1.34,5.61-.46h0l2.41,1.64-.71.57a7.64,7.64,0,0,1,.49,2.76v25a17.23,17.23,0,0,1-7.81,13.48L496.38,361.6a7.31,7.31,0,0,1-3.12,1l-.23,1-2-1.43a4,4,0,0,1-.42-.3l-.41-.29,0,0a6,6,0,0,1-1.6-4.47V332.51C488.57,327.56,492.08,321.49,496.37,319Z" style="fill:#939598"/><path d="M544.68,293.64c4.29-2.48,7.8-.45,7.8,4.5v25a17.23,17.23,0,0,1-7.81,13.48L498.58,363.1c-4.29,2.46-7.81.43-7.81-4.53V334c0-4.95,3.51-11,7.8-13.5Z" style="fill:#fff"/><text transform="matrix(0.45, -0.27, -0.01, 1, 508.3, 348.99)" style="font-size:37.577640533447266px;fill:#1d1d1b;font-family:Arial-BoldMT, Arial;font-weight:700">5 in</text><path d="M457.94,395.67l84.54-47.8c2.2-1.27,4.18-1.34,5.61-.46h0l2.41,1.65-.71.57a7.55,7.55,0,0,1,.49,2.75v25c0,4.95-3.51,11-7.81,13.48L458,438.26a7.31,7.31,0,0,1-3.12,1l-.23,1-2.05-1.43a4,4,0,0,1-.42-.3l-.41-.29,0,0a6,6,0,0,1-1.6-4.47V409.17C450.14,404.22,453.65,398.15,457.94,395.67Z" style="fill:#939598"/><path d="M544.68,349.37c4.29-2.48,7.8-.45,7.8,4.51v25c0,4.95-3.51,11-7.81,13.48l-84.52,47.4c-4.29,2.46-7.81.42-7.81-4.53V410.67c0-4.95,3.51-11,7.8-13.5Z" style="fill:#fff"/><text transform="matrix(0.45, -0.27, -0.01, 1, 470.13, 426.78)" style="font-size:37.577640533447266px;fill:#1d1d1b;font-family:Arial-BoldMT, Arial;font-weight:700">165.1 cm</text></g></svg>